<svg width="47" height="38" viewBox="0 0 47 38" fill="none" xmlns="http://www.w3.org/2000/svg">
<g clip-path="url(#clip0_2_4306)">
<path d="M7.05 9.5C7.05 6.98044 8.04035 4.56408 9.80319 2.78249C11.566 1.00089 13.957 0 16.45 0C18.943 0 21.334 1.00089 23.0968 2.78249C24.8596 4.56408 25.85 6.98044 25.85 9.5C25.85 12.0196 24.8596 14.4359 23.0968 16.2175C21.334 17.9991 18.943 19 16.45 19C13.957 19 11.566 17.9991 9.80319 16.2175C8.04035 14.4359 7.05 12.0196 7.05 9.5ZM0 35.7957C0 28.4852 5.86031 22.5625 13.0939 22.5625H19.8061C27.0397 22.5625 32.9 28.4852 32.9 35.7957C32.9 37.0129 31.9233 38 30.7189 38H2.18109C0.976719 38 0 37.0129 0 35.7957ZM37.0125 23.1562V18.4062H32.3125C31.3358 18.4062 30.55 17.6121 30.55 16.625C30.55 15.6379 31.3358 14.8438 32.3125 14.8438H37.0125V10.0938C37.0125 9.10664 37.7983 8.3125 38.775 8.3125C39.7517 8.3125 40.5375 9.10664 40.5375 10.0938V14.8438H45.2375C46.2142 14.8438 47 15.6379 47 16.625C47 17.6121 46.2142 18.4062 45.2375 18.4062H40.5375V23.1562C40.5375 24.1434 39.7517 24.9375 38.775 24.9375C37.7983 24.9375 37.0125 24.1434 37.0125 23.1562Z" fill="white"/>
</g>
<defs>
<clipPath id="clip0_2_4306">
<rect width="47" height="38" fill="white"/>
</clipPath>
</defs>
</svg>
