<svg width="13" height="14" viewBox="0 0 13 14" fill="none" xmlns="http://www.w3.org/2000/svg">
<path d="M7.19601 1.96875C7.19601 1.60508 6.88552 1.3125 6.49958 1.3125C6.11364 1.3125 5.80315 1.60508 5.80315 1.96875V6.34375H1.1603C0.774358 6.34375 0.463867 6.63633 0.463867 7C0.463867 7.36367 0.774358 7.65625 1.1603 7.65625H5.80315V12.0312C5.80315 12.3949 6.11364 12.6875 6.49958 12.6875C6.88552 12.6875 7.19601 12.3949 7.19601 12.0312V7.65625H11.8389C12.2248 7.65625 12.5353 7.36367 12.5353 7C12.5353 6.63633 12.2248 6.34375 11.8389 6.34375H7.19601V1.96875Z" fill="#566D91"/>
</svg>
