<svg width="21" height="17" viewBox="0 0 21 17" fill="none" xmlns="http://www.w3.org/2000/svg">
<path d="M3.15 4.25C3.15 3.12283 3.5925 2.04183 4.38015 1.2448C5.1678 0.447767 6.23609 0 7.35 0C8.46391 0 9.5322 0.447767 10.3198 1.2448C11.1075 2.04183 11.55 3.12283 11.55 4.25C11.55 5.37717 11.1075 6.45817 10.3198 7.2552C9.5322 8.05223 8.46391 8.5 7.35 8.5C6.23609 8.5 5.1678 8.05223 4.38015 7.2552C3.5925 6.45817 3.15 5.37717 3.15 4.25ZM0 16.0139C0 12.7434 2.61844 10.0938 5.85047 10.0938H8.84953C12.0816 10.0938 14.7 12.7434 14.7 16.0139C14.7 16.5584 14.2636 17 13.7255 17H0.974531C0.436406 17 0 16.5584 0 16.0139ZM16.5375 10.3594V8.23438H14.4375C14.0011 8.23438 13.65 7.8791 13.65 7.4375C13.65 6.9959 14.0011 6.64062 14.4375 6.64062H16.5375V4.51562C16.5375 4.07402 16.8886 3.71875 17.325 3.71875C17.7614 3.71875 18.1125 4.07402 18.1125 4.51562V6.64062H20.2125C20.6489 6.64062 21 6.9959 21 7.4375C21 7.8791 20.6489 8.23438 20.2125 8.23438H18.1125V10.3594C18.1125 10.801 17.7614 11.1562 17.325 11.1562C16.8886 11.1562 16.5375 10.801 16.5375 10.3594Z" fill="#2A3649"/>
</svg>
