<svg width="21" height="26" viewBox="0 0 21 26" fill="none" xmlns="http://www.w3.org/2000/svg">
<g clip-path="url(#clip0_118_7704)">
<path d="M17.7633 9.55422C17.7633 5.68855 14.5109 2.55225 10.502 2.55225C6.4932 2.55225 3.24074 5.68855 3.24074 9.55422C3.24074 10.1572 3.46766 11.0908 4.01226 12.3356C4.54173 13.5414 5.29307 14.8738 6.15535 16.2207C7.59248 18.4671 9.25653 20.6358 10.502 22.1821C11.7526 20.6358 13.4166 18.4671 14.8487 16.2207C15.711 14.8738 16.4624 13.5414 16.9918 12.3356C17.5364 11.0908 17.7633 10.1572 17.7633 9.55422ZM20.1838 9.55422C20.1838 13.804 14.284 21.37 11.6971 24.4917C11.0769 25.2357 9.92719 25.2357 9.30695 24.4917C6.72012 21.37 0.820312 13.804 0.820312 9.55422C0.820312 4.39999 5.15692 0.218262 10.502 0.218262C15.8472 0.218262 20.1838 4.39999 20.1838 9.55422ZM12.1157 9.55422C12.1157 9.14154 11.9457 8.74577 11.643 8.45396C11.3404 8.16216 10.93 7.99822 10.502 7.99822C10.0741 7.99822 9.66365 8.16216 9.36104 8.45396C9.05843 8.74577 8.88842 9.14154 8.88842 9.55422C8.88842 9.96689 9.05843 10.3627 9.36104 10.6545C9.66365 10.9463 10.0741 11.1102 10.502 11.1102C10.93 11.1102 11.3404 10.9463 11.643 10.6545C11.9457 10.3627 12.1157 9.96689 12.1157 9.55422ZM6.46799 9.55422C6.46799 8.52253 6.893 7.5331 7.64954 6.80358C8.40607 6.07407 9.43214 5.66423 10.502 5.66423C11.5719 5.66423 12.598 6.07407 13.3545 6.80358C14.1111 7.5331 14.5361 8.52253 14.5361 9.55422C14.5361 10.5859 14.1111 11.5753 13.3545 12.3048C12.598 13.0344 11.5719 13.4442 10.502 13.4442C9.43214 13.4442 8.40607 13.0344 7.64954 12.3048C6.893 11.5753 6.46799 10.5859 6.46799 9.55422Z" fill="white"/>
</g>
<defs>
<clipPath id="clip0_118_7704">
<rect width="19.3635" height="24.8959" fill="white" transform="translate(0.820312 0.218262)"/>
</clipPath>
</defs>
</svg>
