<svg width="40" height="35" viewBox="0 0 40 35" fill="none" xmlns="http://www.w3.org/2000/svg">
<path d="M25.6403 15.2715C25.6403 11.4058 22.3878 8.26954 18.379 8.26954C14.3702 8.26954 11.1177 11.4058 11.1177 15.2715C11.1177 15.8744 11.3446 16.808 11.8892 18.0528C12.4187 19.2587 13.17 20.591 14.0323 21.938C15.4694 24.1844 17.1335 26.3531 18.379 27.8994C19.6296 26.3531 21.2936 24.1844 22.7257 21.938C23.588 20.591 24.3393 19.2587 24.8688 18.0528C25.4134 16.808 25.6403 15.8744 25.6403 15.2715ZM28.0607 15.2715C28.0607 19.5213 22.1609 27.0873 19.5741 30.209C18.9538 30.953 17.8041 30.953 17.1839 30.209C14.5971 27.0873 8.69727 19.5213 8.69727 15.2715C8.69727 10.1173 13.0339 5.93555 18.379 5.93555C23.7241 5.93555 28.0607 10.1173 28.0607 15.2715ZM19.9926 15.2715C19.9926 14.8588 19.8226 14.4631 19.52 14.1712C19.2174 13.8794 18.807 13.7155 18.379 13.7155C17.951 13.7155 17.5406 13.8794 17.238 14.1712C16.9354 14.4631 16.7654 14.8588 16.7654 15.2715C16.7654 15.6842 16.9354 16.0799 17.238 16.3718C17.5406 16.6636 17.951 16.8275 18.379 16.8275C18.807 16.8275 19.2174 16.6636 19.52 16.3718C19.8226 16.0799 19.9926 15.6842 19.9926 15.2715ZM14.3449 15.2715C14.3449 14.2398 14.77 13.2504 15.5265 12.5209C16.283 11.7914 17.3091 11.3815 18.379 11.3815C19.4489 11.3815 20.475 11.7914 21.2315 12.5209C21.988 13.2504 22.413 14.2398 22.413 15.2715C22.413 16.3032 21.988 17.2926 21.2315 18.0221C20.475 18.7516 19.4489 19.1615 18.379 19.1615C17.3091 19.1615 16.283 18.7516 15.5265 18.0221C14.77 17.2926 14.3449 16.3032 14.3449 15.2715Z" fill="#566D91"/>
</svg>
