<svg width="14" height="14" viewBox="0 0 14 14" fill="none" xmlns="http://www.w3.org/2000/svg">
<path d="M7 1.3125C8.50842 1.3125 9.95506 1.91172 11.0217 2.97833C12.0883 4.04494 12.6875 5.49158 12.6875 7C12.6875 8.50842 12.0883 9.95506 11.0217 11.0217C9.95506 12.0883 8.50842 12.6875 7 12.6875C5.49158 12.6875 4.04494 12.0883 2.97833 11.0217C1.91172 9.95506 1.3125 8.50842 1.3125 7C1.3125 5.49158 1.91172 4.04494 2.97833 2.97833C4.04494 1.91172 5.49158 1.3125 7 1.3125ZM7 14C8.85652 14 10.637 13.2625 11.9497 11.9497C13.2625 10.637 14 8.85652 14 7C14 5.14348 13.2625 3.36301 11.9497 2.05025C10.637 0.737498 8.85652 0 7 0C5.14348 0 3.36301 0.737498 2.05025 2.05025C0.737498 3.36301 0 5.14348 0 7C0 8.85652 0.737498 10.637 2.05025 11.9497C3.36301 13.2625 5.14348 14 7 14ZM7 3.5C6.63633 3.5 6.34375 3.79258 6.34375 4.15625V7.21875C6.34375 7.58242 6.63633 7.875 7 7.875C7.36367 7.875 7.65625 7.58242 7.65625 7.21875V4.15625C7.65625 3.79258 7.36367 3.5 7 3.5ZM7.875 9.625C7.875 9.39294 7.78281 9.17038 7.61872 9.00628C7.45462 8.84219 7.23206 8.75 7 8.75C6.76794 8.75 6.54538 8.84219 6.38128 9.00628C6.21719 9.17038 6.125 9.39294 6.125 9.625C6.125 9.85706 6.21719 10.0796 6.38128 10.2437C6.54538 10.4078 6.76794 10.5 7 10.5C7.23206 10.5 7.45462 10.4078 7.61872 10.2437C7.78281 10.0796 7.875 9.85706 7.875 9.625Z" fill="#2A3649"/>
</svg>
