<svg width="20" height="20" viewBox="0 0 20 20" fill="none" xmlns="http://www.w3.org/2000/svg">
<g clip-path="url(#clip0_118_8018)">
<path d="M8.75 3.125V1.25C8.75 0.558594 9.30859 0 10 0C10.6914 0 11.25 0.558594 11.25 1.25V3.125C11.25 3.81641 10.6914 4.375 10 4.375C9.30859 4.375 8.75 3.81641 8.75 3.125ZM6.25 10C6.25 9.00544 6.64509 8.05161 7.34835 7.34835C8.05161 6.64509 9.00544 6.25 10 6.25C10.9946 6.25 11.9484 6.64509 12.6517 7.34835C13.3549 8.05161 13.75 9.00544 13.75 10C13.75 10.9946 13.3549 11.9484 12.6517 12.6517C11.9484 13.3549 10.9946 13.75 10 13.75C9.00544 13.75 8.05161 13.3549 7.34835 12.6517C6.64509 11.9484 6.25 10.9946 6.25 10ZM0 10C0 9.30859 0.558594 8.75 1.25 8.75H3.125C3.81641 8.75 4.375 9.30859 4.375 10C4.375 10.6914 3.81641 11.25 3.125 11.25H1.25C0.558594 11.25 0 10.6914 0 10ZM16.875 8.75H18.75C19.4414 8.75 20 9.30859 20 10C20 10.6914 19.4414 11.25 18.75 11.25H16.875C16.1836 11.25 15.625 10.6914 15.625 10C15.625 9.30859 16.1836 8.75 16.875 8.75ZM10 20C9.30859 20 8.75 19.4414 8.75 18.75V16.875C8.75 16.1836 9.30859 15.625 10 15.625C10.6914 15.625 11.25 16.1836 11.25 16.875V18.75C11.25 19.4414 10.6914 20 10 20ZM2.86719 17.1328C2.37891 16.6445 2.37891 15.8516 2.86719 15.3633L4.11719 14.1133C4.60547 13.625 5.39844 13.625 5.88672 14.1133C6.375 14.6016 6.375 15.3945 5.88672 15.8828L4.63672 17.1328C4.14844 17.6211 3.35547 17.6211 2.86719 17.1328ZM14.1172 4.11328L15.3672 2.86328C15.8555 2.375 16.6484 2.375 17.1367 2.86328C17.625 3.35156 17.625 4.14453 17.1367 4.63281L15.8867 5.88281C15.3984 6.37109 14.6055 6.37109 14.1172 5.88281C13.6289 5.39453 13.6289 4.60156 14.1172 4.11328ZM17.1367 17.1328C16.6484 17.6211 15.8555 17.6211 15.3672 17.1328L14.1172 15.8828C13.6289 15.3945 13.6289 14.6016 14.1172 14.1133C14.6055 13.625 15.3984 13.625 15.8867 14.1133L17.1367 15.3633C17.625 15.8516 17.625 16.6445 17.1367 17.1328ZM4.11719 5.88281L2.86719 4.63281C2.37891 4.14453 2.37891 3.35156 2.86719 2.86328C3.35547 2.375 4.14844 2.375 4.63672 2.86328L5.88672 4.11328C6.375 4.60156 6.375 5.39453 5.88672 5.88281C5.39844 6.37109 4.60547 6.37109 4.11719 5.88281Z" fill="#566D91"/>
</g>
<defs>
<clipPath id="clip0_118_8018">
<rect width="20" height="20" fill="white"/>
</clipPath>
</defs>
</svg>
