<svg width="284" height="284" viewBox="0 0 284 284" fill="none" xmlns="http://www.w3.org/2000/svg">
<g style="mix-blend-mode:luminosity" filter="url(#filter0_di_60_2)">
<mask id="path-1-inside-1_60_2" fill="white">
<path d="M261 142C261 207.722 207.722 261 142 261C76.2781 261 23 207.722 23 142C23 76.2781 76.2781 23 142 23C207.722 23 261 76.2781 261 142ZM61.0521 142C61.0521 186.706 97.2937 222.948 142 222.948C186.706 222.948 222.948 186.706 222.948 142C222.948 97.2937 186.706 61.0521 142 61.0521C97.2937 61.0521 61.0521 97.2937 61.0521 142Z"/>
</mask>
<path d="M261 142C261 207.722 207.722 261 142 261C76.2781 261 23 207.722 23 142C23 76.2781 76.2781 23 142 23C207.722 23 261 76.2781 261 142ZM61.0521 142C61.0521 186.706 97.2937 222.948 142 222.948C186.706 222.948 222.948 186.706 222.948 142C222.948 97.2937 186.706 61.0521 142 61.0521C97.2937 61.0521 61.0521 97.2937 61.0521 142Z" fill="url(#paint0_linear_60_2)"/>
<path d="M261 142C261 207.722 207.722 261 142 261C76.2781 261 23 207.722 23 142C23 76.2781 76.2781 23 142 23C207.722 23 261 76.2781 261 142ZM61.0521 142C61.0521 186.706 97.2937 222.948 142 222.948C186.706 222.948 222.948 186.706 222.948 142C222.948 97.2937 186.706 61.0521 142 61.0521C97.2937 61.0521 61.0521 97.2937 61.0521 142Z" stroke="#EFEFEF" stroke-width="12" mask="url(#path-1-inside-1_60_2)"/>
</g>
<defs>
<filter id="filter0_di_60_2" x="0" y="0" width="284" height="284" filterUnits="userSpaceOnUse" color-interpolation-filters="sRGB">
<feFlood flood-opacity="0" result="BackgroundImageFix"/>
<feColorMatrix in="SourceAlpha" type="matrix" values="0 0 0 0 0 0 0 0 0 0 0 0 0 0 0 0 0 0 127 0" result="hardAlpha"/>
<feMorphology radius="8" operator="dilate" in="SourceAlpha" result="effect1_dropShadow_60_2"/>
<feOffset/>
<feGaussianBlur stdDeviation="7.5"/>
<feComposite in2="hardAlpha" operator="out"/>
<feColorMatrix type="matrix" values="0 0 0 0 0 0 0 0 0 0 0 0 0 0 0 0 0 0 0.4 0"/>
<feBlend mode="normal" in2="BackgroundImageFix" result="effect1_dropShadow_60_2"/>
<feBlend mode="normal" in="SourceGraphic" in2="effect1_dropShadow_60_2" result="shape"/>
<feColorMatrix in="SourceAlpha" type="matrix" values="0 0 0 0 0 0 0 0 0 0 0 0 0 0 0 0 0 0 127 0" result="hardAlpha"/>
<feMorphology radius="20" operator="erode" in="SourceAlpha" result="effect2_innerShadow_60_2"/>
<feOffset/>
<feGaussianBlur stdDeviation="7.5"/>
<feComposite in2="hardAlpha" operator="arithmetic" k2="-1" k3="1"/>
<feColorMatrix type="matrix" values="0 0 0 0 0 0 0 0 0 0 0 0 0 0 0 0 0 0 0.5 0"/>
<feBlend mode="normal" in2="shape" result="effect2_innerShadow_60_2"/>
</filter>
<linearGradient id="paint0_linear_60_2" x1="142" y1="23" x2="142" y2="261" gradientUnits="userSpaceOnUse">
<stop stop-color="#607E99"/>
<stop offset="1"/>
</linearGradient>
</defs>
</svg>
