<svg width="21" height="21" viewBox="0 0 21 21" fill="none" xmlns="http://www.w3.org/2000/svg">
<g clip-path="url(#clip0_1187_3707)">
<path d="M8.46987 3.01562L7.74888 4.125H13.2511L12.5301 3.01562C12.4732 2.92969 12.3783 2.875 12.2759 2.875H8.72031C8.61786 2.875 8.52299 2.92578 8.46607 3.01562H8.46987ZM14.048 1.97656L15.4406 4.125H15.9643H17.7857H18.0893C18.594 4.125 19 4.54297 19 5.0625C19 5.58203 18.594 6 18.0893 6H17.7857V17.875C17.7857 19.6016 16.4272 21 14.75 21H6.25C4.57277 21 3.21429 19.6016 3.21429 17.875V6H2.91071C2.40603 6 2 5.58203 2 5.0625C2 4.54297 2.40603 4.125 2.91071 4.125H3.21429H5.03571H5.55938L6.95201 1.97266C7.34665 1.36719 8.01071 1 8.72031 1H12.2759C12.9855 1 13.6496 1.36719 14.0442 1.97266L14.048 1.97656ZM5.03571 6V17.875C5.03571 18.5664 5.57835 19.125 6.25 19.125H14.75C15.4217 19.125 15.9643 18.5664 15.9643 17.875V6H5.03571ZM8.07143 8.5V16.625C8.07143 16.9688 7.79821 17.25 7.46429 17.25C7.13036 17.25 6.85714 16.9688 6.85714 16.625V8.5C6.85714 8.15625 7.13036 7.875 7.46429 7.875C7.79821 7.875 8.07143 8.15625 8.07143 8.5ZM11.1071 8.5V16.625C11.1071 16.9688 10.8339 17.25 10.5 17.25C10.1661 17.25 9.89286 16.9688 9.89286 16.625V8.5C9.89286 8.15625 10.1661 7.875 10.5 7.875C10.8339 7.875 11.1071 8.15625 11.1071 8.5ZM14.1429 8.5V16.625C14.1429 16.9688 13.8696 17.25 13.5357 17.25C13.2018 17.25 12.9286 16.9688 12.9286 16.625V8.5C12.9286 8.15625 13.2018 7.875 13.5357 7.875C13.8696 7.875 14.1429 8.15625 14.1429 8.5Z" fill="#566D91"/>
</g>
<defs>
<clipPath id="clip0_1187_3707">
<rect width="17" height="20" fill="white" transform="translate(2 1)"/>
</clipPath>
</defs>
</svg>
