<svg width="19" height="18" viewBox="0 0 19 18" fill="none" xmlns="http://www.w3.org/2000/svg">
<path d="M0.0683594 2.125C0.0683594 1.08984 0.932199 0.25 1.99693 0.25H5.85407C6.91881 0.25 7.78265 1.08984 7.78265 2.125V5.875C7.78265 6.91016 6.91881 7.75 5.85407 7.75H1.99693C0.932199 7.75 0.0683594 6.91016 0.0683594 5.875V2.125ZM2.63979 2.75V5.25H5.21122V2.75H2.63979ZM0.0683594 12.125C0.0683594 11.0898 0.932199 10.25 1.99693 10.25H5.85407C6.91881 10.25 7.78265 11.0898 7.78265 12.125V15.875C7.78265 16.9102 6.91881 17.75 5.85407 17.75H1.99693C0.932199 17.75 0.0683594 16.9102 0.0683594 15.875V12.125ZM2.63979 12.75V15.25H5.21122V12.75H2.63979ZM12.2826 0.25H16.1398C17.2045 0.25 18.0684 1.08984 18.0684 2.125V5.875C18.0684 6.91016 17.2045 7.75 16.1398 7.75H12.2826C11.2179 7.75 10.3541 6.91016 10.3541 5.875V2.125C10.3541 1.08984 11.2179 0.25 12.2826 0.25ZM15.4969 2.75H12.9255V5.25H15.4969V2.75ZM10.3541 10.875C10.3541 10.5312 10.6434 10.25 10.9969 10.25H13.5684C13.9219 10.25 14.2112 10.5312 14.2112 10.875C14.2112 11.2188 14.5005 11.5 14.8541 11.5H16.1398C16.4934 11.5 16.7826 11.2188 16.7826 10.875C16.7826 10.5312 17.0719 10.25 17.4255 10.25C17.7791 10.25 18.0684 10.5312 18.0684 10.875V14.625C18.0684 14.9688 17.7791 15.25 17.4255 15.25H14.8541C14.5005 15.25 14.2112 14.9688 14.2112 14.625C14.2112 14.2812 13.9219 14 13.5684 14C13.2148 14 12.9255 14.2812 12.9255 14.625V17.125C12.9255 17.4688 12.6362 17.75 12.2826 17.75H10.9969C10.6434 17.75 10.3541 17.4688 10.3541 17.125V10.875ZM14.8541 17.75C14.6836 17.75 14.5201 17.6842 14.3995 17.5669C14.2789 17.4497 14.2112 17.2908 14.2112 17.125C14.2112 16.9592 14.2789 16.8003 14.3995 16.6831C14.5201 16.5658 14.6836 16.5 14.8541 16.5C15.0246 16.5 15.1881 16.5658 15.3086 16.6831C15.4292 16.8003 15.4969 16.9592 15.4969 17.125C15.4969 17.2908 15.4292 17.4497 15.3086 17.5669C15.1881 17.6842 15.0246 17.75 14.8541 17.75ZM17.4255 17.75C17.255 17.75 17.0915 17.6842 16.9709 17.5669C16.8504 17.4497 16.7826 17.2908 16.7826 17.125C16.7826 16.9592 16.8504 16.8003 16.9709 16.6831C17.0915 16.5658 17.255 16.5 17.4255 16.5C17.596 16.5 17.7595 16.5658 17.8801 16.6831C18.0006 16.8003 18.0684 16.9592 18.0684 17.125C18.0684 17.2908 18.0006 17.4497 17.8801 17.5669C17.7595 17.6842 17.596 17.75 17.4255 17.75Z" fill="#566D91"/>
</svg>
