<svg width="21" height="21" viewBox="0 0 21 21" fill="none" xmlns="http://www.w3.org/2000/svg">
<path d="M14.7509 2.67871L13.0494 4.38027L17.6197 8.95058L19.3212 7.24902C20.2001 6.37012 20.2001 4.94629 19.3212 4.06738L17.9361 2.67871C17.0572 1.7998 15.6333 1.7998 14.7544 2.67871H14.7509ZM12.2548 5.1748L4.05991 13.3732C3.69429 13.7389 3.4271 14.1924 3.27944 14.6881L2.03491 18.9174C1.94702 19.2162 2.02788 19.5361 2.24585 19.7541C2.46382 19.9721 2.78374 20.0529 3.07905 19.9686L7.30835 18.724C7.80405 18.5764 8.25757 18.3092 8.62319 17.9436L16.8251 9.74512L12.2548 5.1748Z" fill="#566D91"/>
</svg>
