<svg width="54" height="54" viewBox="0 0 54 54" fill="none" xmlns="http://www.w3.org/2000/svg">
<g clip-path="url(#clip0_0_1)">
<path d="M23.25 27C25.1065 27 26.887 26.2625 28.1997 24.9497C29.5125 23.637 30.25 21.8565 30.25 20C30.25 18.1435 29.5125 16.363 28.1997 15.0503C26.887 13.7375 25.1065 13 23.25 13C21.3935 13 19.613 13.7375 18.3003 15.0503C16.9875 16.363 16.25 18.1435 16.25 20C16.25 21.8565 16.9875 23.637 18.3003 24.9497C19.613 26.2625 21.3935 27 23.25 27ZM20.7508 29.625C15.3641 29.625 11 33.9891 11 39.3758C11 40.2727 11.7273 41 12.6242 41H28.6531C28.4836 40.5187 28.4508 39.9938 28.5766 39.4797L29.3969 36.193C29.55 35.575 29.8672 35.0172 30.3156 34.5688L32.5195 32.3648C30.7641 30.6695 28.3797 29.625 25.7438 29.625H20.7508ZM44.5672 25.8898C43.7141 25.0367 42.3305 25.0367 41.4719 25.8898L39.8641 27.4977L43.7469 31.3805L45.3547 29.7727C46.2078 28.9195 46.2078 27.5359 45.3547 26.6773L44.5672 25.8898ZM31.557 35.8047C31.3328 36.0289 31.1742 36.3078 31.0977 36.6195L30.2773 39.9062C30.2008 40.207 30.2883 40.5188 30.507 40.7375C30.7258 40.9563 31.0375 41.0437 31.3383 40.9672L34.625 40.1469C34.9312 40.0703 35.2156 39.9117 35.4398 39.6875L42.5055 32.6164L38.6227 28.7336L31.557 35.8047Z" fill="#566D91"/>
</g>
<circle cx="27" cy="27" r="26.5" stroke="#566D91"/>
<defs>
<clipPath id="clip0_0_1">
<rect width="35" height="28" fill="white" transform="translate(11 13)"/>
</clipPath>
</defs>
</svg>
