<svg width="11" height="6" viewBox="0 0 11 6" fill="none" xmlns="http://www.w3.org/2000/svg">
<path d="M0 2.72063C0 1.21875 1.11719 0 2.49391 0C3.15563 0 3.78984 0.286875 4.25734 0.796875L5.5 2.15062L6.74094 0.796875C7.21016 0.286875 7.84438 0 8.50609 0C9.88281 0 11 1.21875 11 2.72063V3.2775C11 4.78125 9.88281 6 8.50609 6C7.84438 6 7.21016 5.71313 6.74266 5.20312L5.5 3.84938L4.25906 5.20312C3.78984 5.71313 3.15563 6 2.49391 6C1.11719 6 0 4.78125 0 3.27938V2.72063ZM4.72141 3L3.48047 1.64625C3.21922 1.36125 2.86344 1.2 2.49391 1.2C1.72391 1.2 1.1 1.88063 1.1 2.72063V3.2775C1.1 4.1175 1.72391 4.79813 2.49391 4.79813C2.86344 4.79813 3.21922 4.63875 3.48047 4.35188L4.72141 3ZM6.27688 3L7.51781 4.35375C7.77906 4.63875 8.13484 4.8 8.50437 4.8C9.27437 4.8 9.89828 4.11938 9.89828 3.27938V2.72063C9.89828 1.88063 9.27437 1.2 8.50437 1.2C8.13484 1.2 7.77906 1.35938 7.51781 1.64625L6.27859 3H6.27688Z" fill="#566D90"/>
</svg>
