<svg width="8" height="11" viewBox="0 0 8 11" fill="none" xmlns="http://www.w3.org/2000/svg">
<g clip-path="url(#clip0_165_1818)">
<path d="M0.666667 0C0.297917 0 0 0.307227 0 0.6875C0 1.06777 0.297917 1.375 0.666667 1.375V1.61133C0.666667 2.52227 1.01875 3.39668 1.64375 4.04121L3.05625 5.5L1.64375 6.95879C1.01875 7.60332 0.666667 8.47773 0.666667 9.38867V9.625C0.297917 9.625 0 9.93223 0 10.3125C0 10.6928 0.297917 11 0.666667 11H1.33333H6.66667H7.33333C7.70208 11 8 10.6928 8 10.3125C8 9.93223 7.70208 9.625 7.33333 9.625V9.38867C7.33333 8.47773 6.98125 7.60332 6.35625 6.95879L4.94375 5.5L6.35833 4.04121C6.98333 3.39668 7.33541 2.52227 7.33541 1.61133V1.375C7.70416 1.375 8.00208 1.06777 8.00208 0.6875C8.00208 0.307227 7.70416 0 7.33541 0H6.66667H1.33333H0.666667ZM6 9.38867V9.625H2V9.38867C2 8.84082 2.21042 8.3166 2.58542 7.92988L4 6.47324L5.41458 7.93203C5.78958 8.31875 6 8.84297 6 9.39082V9.38867Z" fill="#566D90"/>
</g>
<defs>
<clipPath id="clip0_165_1818">
<rect width="8" height="11" fill="white"/>
</clipPath>
</defs>
</svg>
