<svg width="11" height="11" viewBox="0 0 11 11" fill="none" xmlns="http://www.w3.org/2000/svg">
<g clip-path="url(#clip0_165_1824)">
<path d="M9.96875 5.5C9.96875 4.31481 9.49794 3.17817 8.65988 2.34012C7.82183 1.50206 6.68519 1.03125 5.5 1.03125C4.31481 1.03125 3.17817 1.50206 2.34012 2.34012C1.50206 3.17817 1.03125 4.31481 1.03125 5.5C1.03125 6.68519 1.50206 7.82183 2.34012 8.65988C3.17817 9.49794 4.31481 9.96875 5.5 9.96875C6.68519 9.96875 7.82183 9.49794 8.65988 8.65988C9.49794 7.82183 9.96875 6.68519 9.96875 5.5ZM0 5.5C0 4.04131 0.579463 2.64236 1.61091 1.61091C2.64236 0.579463 4.04131 0 5.5 0C6.95869 0 8.35764 0.579463 9.38909 1.61091C10.4205 2.64236 11 4.04131 11 5.5C11 6.95869 10.4205 8.35764 9.38909 9.38909C8.35764 10.4205 6.95869 11 5.5 11C4.04131 11 2.64236 10.4205 1.61091 9.38909C0.579463 8.35764 0 6.95869 0 5.5ZM3.09375 4.29688C3.09375 4.01113 3.32363 3.78125 3.60938 3.78125H5.67188C5.95762 3.78125 6.1875 4.01113 6.1875 4.29688V6.70312C6.1875 6.98887 5.95762 7.21875 5.67188 7.21875H3.60938C3.32363 7.21875 3.09375 6.98887 3.09375 6.70312V4.29688ZM7.83965 6.82988L6.875 6.1875V4.8125L7.83965 4.17012C7.88262 4.14219 7.93418 4.125 7.98574 4.125C8.13184 4.125 8.25 4.24316 8.25 4.38926V6.61074C8.25 6.75684 8.13184 6.875 7.98574 6.875C7.93418 6.875 7.88262 6.85996 7.83965 6.82988Z" fill="#566D90"/>
</g>
<defs>
<clipPath id="clip0_165_1824">
<rect width="11" height="11" fill="white"/>
</clipPath>
</defs>
</svg>
