<svg width="24" height="24" viewBox="0 0 24 24" fill="none" xmlns="http://www.w3.org/2000/svg">
<g filter="url(#filter0_d_118_7762)">
<circle cx="12" cy="8" r="8" fill="white"/>
</g>
<g clip-path="url(#clip0_118_7762)">
<path d="M14.3809 5.06836L16.7793 7.4668C16.9199 7.60742 17 7.80078 17 8C17 8.19922 16.9199 8.39258 16.7793 8.5332L14.3809 10.9316C14.2559 11.0566 14.0879 11.125 13.9121 11.125C13.5469 11.125 13.25 10.8281 13.25 10.4629V9.25H10.75C10.4043 9.25 10.125 8.9707 10.125 8.625V7.375C10.125 7.0293 10.4043 6.75 10.75 6.75H13.25V5.53711C13.25 5.17188 13.5469 4.875 13.9121 4.875C14.0879 4.875 14.2559 4.94531 14.3809 5.06836ZM10.125 4.875H8.875C8.5293 4.875 8.25 5.1543 8.25 5.5V10.5C8.25 10.8457 8.5293 11.125 8.875 11.125H10.125C10.4707 11.125 10.75 11.4043 10.75 11.75C10.75 12.0957 10.4707 12.375 10.125 12.375H8.875C7.83984 12.375 7 11.5352 7 10.5V5.5C7 4.46484 7.83984 3.625 8.875 3.625H10.125C10.4707 3.625 10.75 3.9043 10.75 4.25C10.75 4.5957 10.4707 4.875 10.125 4.875Z" fill="#2A3649"/>
</g>
<defs>
<filter id="filter0_d_118_7762" x="0" y="0" width="24" height="24" filterUnits="userSpaceOnUse" color-interpolation-filters="sRGB">
<feFlood flood-opacity="0" result="BackgroundImageFix"/>
<feColorMatrix in="SourceAlpha" type="matrix" values="0 0 0 0 0 0 0 0 0 0 0 0 0 0 0 0 0 0 127 0" result="hardAlpha"/>
<feOffset dy="4"/>
<feGaussianBlur stdDeviation="2"/>
<feComposite in2="hardAlpha" operator="out"/>
<feColorMatrix type="matrix" values="0 0 0 0 0 0 0 0 0 0 0 0 0 0 0 0 0 0 0.25 0"/>
<feBlend mode="normal" in2="BackgroundImageFix" result="effect1_dropShadow_118_7762"/>
<feBlend mode="normal" in="SourceGraphic" in2="effect1_dropShadow_118_7762" result="shape"/>
</filter>
<clipPath id="clip0_118_7762">
<rect width="10" height="10" fill="white" transform="translate(7 3)"/>
</clipPath>
</defs>
</svg>
