<svg width="23" height="20" viewBox="0 0 23 20" fill="none" xmlns="http://www.w3.org/2000/svg">
<g clip-path="url(#clip0_394_437)">
<path d="M12.5539 8.34375C12.6977 7.87891 12.7776 7.38672 12.7776 6.875C12.7776 4.11328 10.4895 1.875 7.66645 1.875C4.84336 1.875 2.55534 4.11328 2.55534 6.875C2.55534 7.9375 2.89076 8.91797 3.46575 9.72266C3.6135 9.92969 3.78919 10.1641 3.97687 10.4141C4.49197 11.1055 5.1069 11.9336 5.5661 12.75C5.98138 13.4922 6.19301 14.2656 6.29683 14.9961H4.35221C4.26437 14.5273 4.11662 14.0703 3.88103 13.6484C3.48572 12.9453 2.99457 12.2852 2.50343 11.625C2.29579 11.3477 2.08815 11.0703 1.8885 10.7891C1.10187 9.68359 0.638672 8.33203 0.638672 6.875C0.638672 3.07812 3.7852 0 7.66645 0C11.5397 0 14.6783 3.0625 14.6942 6.84766C13.9835 7.14844 13.5762 7.84766 13.5762 8.53906V8.57422C13.2687 8.40625 12.9093 8.32422 12.5539 8.34375ZM9.80673 16.25C9.94648 16.6094 10.1142 16.9648 10.3178 17.3047C10.4336 17.5 10.5574 17.6914 10.6932 17.875C10.2659 19.1094 9.072 20 7.66645 20C5.90152 20 4.472 18.6016 4.472 16.875V16.25H9.80673ZM5.74978 6.875C5.74978 7.21875 5.46228 7.5 5.11089 7.5C4.7595 7.5 4.472 7.21875 4.472 6.875C4.472 5.14844 5.90152 3.75 7.66645 3.75C8.01784 3.75 8.30534 4.03125 8.30534 4.375C8.30534 4.71875 8.01784 5 7.66645 5C6.60829 5 5.74978 5.83984 5.74978 6.875ZM14.8539 8.52344C14.8539 8.25 15.0336 8.00391 15.3052 7.94531C15.7244 7.85156 16.1637 7.80078 16.6109 7.80078C17.0581 7.80078 17.4974 7.85156 17.9166 7.94531C18.1882 8.00391 18.3678 8.25 18.3678 8.52344V9.21484C18.3678 9.51953 18.5595 9.79297 18.831 9.94531C19.1026 10.0977 19.434 10.1211 19.7015 9.96875L20.2526 9.66016C20.4961 9.52344 20.7996 9.55469 20.9913 9.75391C21.2947 10.0703 21.5623 10.4258 21.7939 10.8164C22.0255 11.207 22.2052 11.6133 22.3329 12.0273C22.4168 12.2891 22.289 12.5625 22.0454 12.6992L21.4704 13.0234C21.2109 13.168 21.0711 13.4492 21.0711 13.7422C21.0711 14.0352 21.2109 14.3164 21.4704 14.4609L22.0454 14.7852C22.289 14.9219 22.4128 15.1953 22.3329 15.457C22.2012 15.8711 22.0215 16.2773 21.7939 16.668C21.5663 17.0586 21.2947 17.4141 20.9913 17.7305C20.7996 17.9297 20.4921 17.9609 20.2526 17.8242L19.7015 17.5156C19.434 17.3633 19.0986 17.3867 18.831 17.5391C18.5595 17.6914 18.3678 17.9648 18.3678 18.2695V18.9609C18.3678 19.2344 18.1882 19.4805 17.9166 19.5391C17.4974 19.6328 17.0581 19.6836 16.6109 19.6836C16.1637 19.6836 15.7244 19.6328 15.3052 19.5391C15.0336 19.4805 14.8539 19.2344 14.8539 18.9609V18.2734C14.8539 17.9648 14.6583 17.6914 14.3868 17.5352C14.1152 17.3828 13.7798 17.3594 13.5083 17.5117L12.9692 17.8164C12.7256 17.9531 12.4222 17.9219 12.2305 17.7227C11.927 17.4062 11.6595 17.0508 11.4279 16.6602C11.1963 16.2695 11.0166 15.8633 10.8888 15.4492C10.805 15.1875 10.9328 14.9141 11.1763 14.7773L11.7354 14.4609C11.9949 14.3125 12.1387 14.0273 12.1387 13.7344C12.1387 13.4414 11.9989 13.1562 11.7354 13.0078L11.1763 12.6914C10.9328 12.5547 10.809 12.2812 10.8888 12.0195C11.0206 11.6055 11.1963 11.1992 11.4279 10.8086C11.6595 10.418 11.927 10.0625 12.2305 9.74609C12.4222 9.54688 12.7256 9.51562 12.9692 9.65234L13.5123 9.95703C13.7838 10.1094 14.1192 10.0859 14.3908 9.93359C14.6663 9.78125 14.8579 9.50391 14.8579 9.19531V8.52344H14.8539ZM18.5316 13.7383C18.5434 13.4846 18.5025 13.2312 18.4114 12.9934C18.3204 12.7556 18.1809 12.5383 18.0016 12.3547C17.8223 12.1711 17.6068 12.0249 17.3681 11.9251C17.1294 11.8252 16.8725 11.7737 16.6129 11.7737C16.3533 11.7737 16.0964 11.8252 15.8577 11.9251C15.619 12.0249 15.4035 12.1711 15.2242 12.3547C15.0448 12.5383 14.9054 12.7556 14.8143 12.9934C14.7233 13.2312 14.6824 13.4846 14.6942 13.7383C14.6824 13.992 14.7233 14.2454 14.8143 14.4832C14.9054 14.721 15.0448 14.9383 15.2242 15.1219C15.4035 15.3055 15.619 15.4517 15.8577 15.5515C16.0964 15.6514 16.3533 15.7028 16.6129 15.7028C16.8725 15.7028 17.1294 15.6514 17.3681 15.5515C17.6068 15.4517 17.8223 15.3055 18.0016 15.1219C18.1809 14.9383 18.3204 14.721 18.4114 14.4832C18.5025 14.2454 18.5434 13.992 18.5316 13.7383Z" fill="white"/>
</g>
<defs>
<clipPath id="clip0_394_437">
<rect width="23" height="20" fill="white"/>
</clipPath>
</defs>
</svg>
