<svg width="38" height="38" viewBox="0 0 38 38" fill="none" xmlns="http://www.w3.org/2000/svg">
<g filter="url(#filter0_d_118_7761)">
<circle cx="19" cy="15" r="15" fill="white"/>
</g>
<g clip-path="url(#clip0_118_7761)">
<path d="M19.4994 8C18.9858 8 18.5709 8.39102 18.5709 8.875V9.4C16.4526 9.80469 14.8566 11.5711 14.8566 13.6875V14.2016C14.8566 15.4867 14.3546 16.7281 13.4492 17.6906L13.2345 17.9176C12.9907 18.1746 12.9327 18.5437 13.0807 18.8582C13.2287 19.1727 13.5624 19.375 13.928 19.375H25.0709C25.4365 19.375 25.7673 19.1727 25.9182 18.8582C26.0691 18.5437 26.0082 18.1746 25.7644 17.9176L25.5497 17.6906C24.6443 16.7281 24.1423 15.4895 24.1423 14.2016V13.6875C24.1423 11.5711 22.5463 9.80469 20.428 9.4V8.875C20.428 8.39102 20.0131 8 19.4994 8ZM20.814 21.4887C21.1622 21.1605 21.3566 20.7148 21.3566 20.25H19.4994H17.6423C17.6423 20.7148 17.8367 21.1605 18.1849 21.4887C18.5331 21.8168 19.0061 22 19.4994 22C19.9927 22 20.4657 21.8168 20.814 21.4887Z" fill="#2A3649"/>
</g>
<defs>
<filter id="filter0_d_118_7761" x="0" y="0" width="38" height="38" filterUnits="userSpaceOnUse" color-interpolation-filters="sRGB">
<feFlood flood-opacity="0" result="BackgroundImageFix"/>
<feColorMatrix in="SourceAlpha" type="matrix" values="0 0 0 0 0 0 0 0 0 0 0 0 0 0 0 0 0 0 127 0" result="hardAlpha"/>
<feOffset dy="4"/>
<feGaussianBlur stdDeviation="2"/>
<feComposite in2="hardAlpha" operator="out"/>
<feColorMatrix type="matrix" values="0 0 0 0 0 0 0 0 0 0 0 0 0 0 0 0 0 0 0.25 0"/>
<feBlend mode="normal" in2="BackgroundImageFix" result="effect1_dropShadow_118_7761"/>
<feBlend mode="normal" in="SourceGraphic" in2="effect1_dropShadow_118_7761" result="shape"/>
</filter>
<clipPath id="clip0_118_7761">
<path d="M13 13C13 10.2386 15.2386 8 18 8H21C23.7614 8 26 10.2386 26 13V22H13V13Z" fill="white"/>
</clipPath>
</defs>
</svg>
