<svg width="386" height="9" viewBox="0 0 386 9" fill="none" xmlns="http://www.w3.org/2000/svg">
<path d="M190.895 8.15909C190.205 8.15909 189.601 7.99503 189.08 7.6669C188.563 7.33878 188.159 6.87973 187.867 6.28977C187.579 5.69981 187.435 5.01042 187.435 4.22159C187.435 3.42614 187.579 2.73177 187.867 2.13849C188.159 1.54522 188.563 1.08452 189.08 0.756392C189.601 0.428267 190.205 0.264205 190.895 0.264205C191.584 0.264205 192.188 0.428267 192.705 0.756392C193.225 1.08452 193.629 1.54522 193.918 2.13849C194.209 2.73177 194.355 3.42614 194.355 4.22159C194.355 5.01042 194.209 5.69981 193.918 6.28977C193.629 6.87973 193.225 7.33878 192.705 7.6669C192.188 7.99503 191.584 8.15909 190.895 8.15909ZM190.895 7.10511C191.419 7.10511 191.849 6.97088 192.188 6.70241C192.526 6.43395 192.776 6.08097 192.938 5.64347C193.101 5.20597 193.182 4.73201 193.182 4.22159C193.182 3.71117 193.101 3.23556 192.938 2.79474C192.776 2.35393 192.526 1.99763 192.188 1.72585C191.849 1.45407 191.419 1.31818 190.895 1.31818C190.371 1.31818 189.94 1.45407 189.602 1.72585C189.264 1.99763 189.014 2.35393 188.852 2.79474C188.689 3.23556 188.608 3.71117 188.608 4.22159C188.608 4.73201 188.689 5.20597 188.852 5.64347C189.014 6.08097 189.264 6.43395 189.602 6.70241C189.94 6.97088 190.371 7.10511 190.895 7.10511ZM196.146 8V0.363636H197.28V1.51705H197.359C197.498 1.1392 197.75 0.832623 198.115 0.597301C198.479 0.361979 198.89 0.244318 199.348 0.244318C199.434 0.244318 199.542 0.245975 199.671 0.249289C199.8 0.252604 199.898 0.257576 199.964 0.264205V1.45739C199.925 1.44744 199.833 1.43253 199.691 1.41264C199.552 1.38944 199.404 1.37784 199.248 1.37784C198.877 1.37784 198.546 1.45573 198.254 1.61151C197.966 1.76397 197.737 1.97609 197.568 2.24787C197.402 2.51634 197.319 2.82292 197.319 3.16761V8H196.146Z" fill="white"/>
<line x1="219.5" y1="4.98828" x2="385.503" y2="4.98828" stroke="white" stroke-linecap="round"/>
<line x1="0.5" y1="4.98828" x2="166.503" y2="4.98828" stroke="white" stroke-linecap="round"/>
</svg>
