<svg width="23" height="20" viewBox="0 0 23 20" fill="none" xmlns="http://www.w3.org/2000/svg">
<g clip-path="url(#clip0_1339_649)">
<path d="M12.1185 0.222656C11.7591 -0.0742188 11.236 -0.0742188 10.8766 0.222656L0.334948 8.97266C-0.0683505 9.30859 -0.116267 9.89844 0.223143 10.293C0.562552 10.6875 1.1695 10.7344 1.5728 10.4023L2.55509 9.58984V16.875C2.55509 18.6016 3.9846 20 5.74953 20H17.2495C19.0145 20 20.444 18.6016 20.444 16.875V9.58984L21.4223 10.4023C21.8256 10.7383 22.4325 10.6875 22.7719 10.293C23.1113 9.89844 23.0634 9.30469 22.6601 8.97266L20.444 7.13281V2.1875C20.444 1.66797 20.0167 1.25 19.4856 1.25C18.9546 1.25 18.5273 1.66797 18.5273 2.1875V5.54297L12.1185 0.222656ZM4.47175 16.875V8L11.4995 2.16797L18.5273 8V16.875C18.5273 17.5664 17.9563 18.125 17.2495 18.125H5.74953C5.04276 18.125 4.47175 17.5664 4.47175 16.875ZM11.4995 11.25C12.1773 11.25 12.8273 10.9866 13.3066 10.5178C13.7858 10.0489 14.0551 9.41304 14.0551 8.75C14.0551 8.08696 13.7858 7.45107 13.3066 6.98223C12.8273 6.51339 12.1773 6.25 11.4995 6.25C10.8218 6.25 10.1717 6.51339 9.69248 6.98223C9.21322 7.45107 8.94398 8.08696 8.94398 8.75C8.94398 9.41304 9.21322 10.0489 9.69248 10.5178C10.1717 10.9866 10.8218 11.25 11.4995 11.25ZM7.02731 15.625C7.02731 15.9688 7.31481 16.25 7.6662 16.25H15.3329C15.6843 16.25 15.9718 15.9688 15.9718 15.625C15.9718 13.8984 14.5422 12.5 12.7773 12.5H10.2218C8.45682 12.5 7.02731 13.8984 7.02731 15.625Z" fill="#E3982A"/>
</g>
<defs>
<clipPath id="clip0_1339_649">
<rect width="23" height="20" fill="white"/>
</clipPath>
</defs>
</svg>
