<svg width="26" height="21" viewBox="0 0 26 21" fill="none" xmlns="http://www.w3.org/2000/svg">
<path d="M15.3334 1.3125V1.96875C15.3334 2.69473 14.8121 3.28125 14.1667 3.28125H11.8334C11.1881 3.28125 10.6667 2.69473 10.6667 1.96875V1.3125H9.50008C8.85477 1.3125 8.33341 1.89902 8.33341 2.625V18.375C8.33341 19.101 8.85477 19.6875 9.50008 19.6875H16.5001C17.1454 19.6875 17.6667 19.101 17.6667 18.375V2.625C17.6667 1.89902 17.1454 1.3125 16.5001 1.3125H15.3334ZM14.1667 1.3125H11.8334V1.96875H14.1667V1.3125ZM7.16675 2.625C7.16675 1.17715 8.2131 0 9.50008 0H16.5001C17.7871 0 18.8334 1.17715 18.8334 2.625V18.375C18.8334 19.8229 17.7871 21 16.5001 21H9.50008C8.2131 21 7.16675 19.8229 7.16675 18.375V2.625Z" fill="#E3982A"/>
</svg>
