<svg width="23" height="20" viewBox="0 0 23 20" fill="none" xmlns="http://www.w3.org/2000/svg">
<g clip-path="url(#clip0_1339_647)">
<path d="M12.5542 8.34375C12.6979 7.87891 12.7778 7.38672 12.7778 6.875C12.7778 4.11328 10.4898 1.875 7.66669 1.875C4.8436 1.875 2.55558 4.11328 2.55558 6.875C2.55558 7.9375 2.891 8.91797 3.466 9.72266C3.61374 9.92969 3.78944 10.1641 3.97711 10.4141C4.49221 11.1055 5.10714 11.9336 5.56635 12.75C5.98162 13.4922 6.19326 14.2656 6.29708 14.9961H4.35246C4.26461 14.5273 4.11687 14.0703 3.88128 13.6484C3.48596 12.9453 2.99482 12.2852 2.50367 11.625C2.29603 11.3477 2.0884 11.0703 1.88874 10.7891C1.10211 9.68359 0.638916 8.33203 0.638916 6.875C0.638916 3.07813 3.78544 0 7.66669 0C11.54 0 14.6785 3.0625 14.6945 6.84766C13.9837 7.14844 13.5764 7.84766 13.5764 8.53906V8.57422C13.2689 8.40625 12.9096 8.32422 12.5542 8.34375ZM9.80697 16.25C9.94673 16.6094 10.1144 16.9648 10.3181 17.3047C10.4339 17.5 10.5577 17.6914 10.6934 17.875C10.2662 19.1094 9.07225 20 7.66669 20C5.90176 20 4.47225 18.6016 4.47225 16.875V16.25H9.80697ZM5.75003 6.875C5.75003 7.21875 5.46253 7.5 5.11114 7.5C4.75975 7.5 4.47225 7.21875 4.47225 6.875C4.47225 5.14844 5.90176 3.75 7.66669 3.75C8.01808 3.75 8.30558 4.03125 8.30558 4.375C8.30558 4.71875 8.01808 5 7.66669 5C6.60853 5 5.75003 5.83984 5.75003 6.875ZM14.8542 8.52344C14.8542 8.25 15.0339 8.00391 15.3054 7.94531C15.7247 7.85156 16.1639 7.80078 16.6111 7.80078C17.0584 7.80078 17.4976 7.85156 17.9169 7.94531C18.1884 8.00391 18.3681 8.25 18.3681 8.52344V9.21484C18.3681 9.51953 18.5597 9.79297 18.8313 9.94531C19.1028 10.0977 19.4342 10.1211 19.7018 9.96875L20.2528 9.66016C20.4964 9.52344 20.7999 9.55469 20.9915 9.75391C21.295 10.0703 21.5625 10.4258 21.7941 10.8164C22.0257 11.207 22.2054 11.6133 22.3332 12.0273C22.417 12.2891 22.2893 12.5625 22.0457 12.6992L21.4707 13.0234C21.2111 13.168 21.0714 13.4492 21.0714 13.7422C21.0714 14.0352 21.2111 14.3164 21.4707 14.4609L22.0457 14.7852C22.2893 14.9219 22.413 15.1953 22.3332 15.457C22.2014 15.8711 22.0217 16.2773 21.7941 16.668C21.5665 17.0586 21.295 17.4141 20.9915 17.7305C20.7999 17.9297 20.4924 17.9609 20.2528 17.8242L19.7018 17.5156C19.4342 17.3633 19.0988 17.3867 18.8313 17.5391C18.5597 17.6914 18.3681 17.9648 18.3681 18.2695V18.9609C18.3681 19.2344 18.1884 19.4805 17.9169 19.5391C17.4976 19.6328 17.0584 19.6836 16.6111 19.6836C16.1639 19.6836 15.7247 19.6328 15.3054 19.5391C15.0339 19.4805 14.8542 19.2344 14.8542 18.9609V18.2734C14.8542 17.9648 14.6585 17.6914 14.387 17.5352C14.1155 17.3828 13.7801 17.3594 13.5085 17.5117L12.9695 17.8164C12.7259 17.9531 12.4224 17.9219 12.2308 17.7227C11.9273 17.4063 11.6597 17.0508 11.4282 16.6602C11.1966 16.2695 11.0169 15.8633 10.8891 15.4492C10.8052 15.1875 10.933 14.9141 11.1766 14.7773L11.7356 14.4609C11.9952 14.3125 12.1389 14.0273 12.1389 13.7344C12.1389 13.4414 11.9992 13.1562 11.7356 13.0078L11.1766 12.6914C10.933 12.5547 10.8092 12.2813 10.8891 12.0195C11.0209 11.6055 11.1966 11.1992 11.4282 10.8086C11.6597 10.418 11.9273 10.0625 12.2308 9.74609C12.4224 9.54688 12.7259 9.51563 12.9695 9.65234L13.5125 9.95703C13.7841 10.1094 14.1195 10.0859 14.391 9.93359C14.6665 9.78125 14.8582 9.50391 14.8582 9.19531V8.52344H14.8542ZM18.5318 13.7383C18.5436 13.4846 18.5028 13.2312 18.4117 12.9934C18.3206 12.7556 18.1812 12.5383 18.0019 12.3547C17.8225 12.1711 17.607 12.0249 17.3683 11.9251C17.1296 11.8252 16.8727 11.7737 16.6131 11.7737C16.3535 11.7737 16.0966 11.8252 15.8579 11.9251C15.6193 12.0249 15.4037 12.1711 15.2244 12.3547C15.0451 12.5383 14.9057 12.7556 14.8146 12.9934C14.7235 13.2312 14.6826 13.4846 14.6945 13.7383C14.6826 13.992 14.7235 14.2454 14.8146 14.4832C14.9057 14.721 15.0451 14.9383 15.2244 15.1219C15.4037 15.3055 15.6193 15.4517 15.8579 15.5515C16.0966 15.6514 16.3535 15.7028 16.6131 15.7028C16.8727 15.7028 17.1296 15.6514 17.3683 15.5515C17.607 15.4517 17.8225 15.3055 18.0019 15.1219C18.1812 14.9383 18.3206 14.721 18.4117 14.4832C18.5028 14.2454 18.5436 13.992 18.5318 13.7383Z" fill="#E3982A"/>
</g>
<defs>
<clipPath id="clip0_1339_647">
<rect width="23" height="20" fill="white"/>
</clipPath>
</defs>
</svg>
