<svg width="31" height="31" viewBox="0 0 31 31" fill="none" xmlns="http://www.w3.org/2000/svg">
<path d="M22.1523 27.1636H8.28843C6.90706 27.1636 5.77686 26.0011 5.77686 24.5803V16.6366C5.77686 15.2157 6.90706 14.0532 8.28843 14.0532H22.1523C23.5337 14.0532 24.6639 15.2157 24.6639 16.6366V24.5803C24.6639 26.0011 23.5337 27.1636 22.1523 27.1636Z" stroke="white" stroke-width="1.2" stroke-miterlimit="10" stroke-linecap="round" stroke-linejoin="round"/>
<path d="M20.8337 14.0532V10.4237C20.8337 7.23324 18.3221 4.6499 15.2203 4.6499C12.1185 4.6499 9.60693 7.23324 9.60693 10.4237V14.0532" stroke="white" stroke-width="1.2" stroke-miterlimit="10" stroke-linecap="round" stroke-linejoin="round"/>
<path d="M15.22 20.6019C16.0662 20.6019 16.7521 19.8963 16.7521 19.026C16.7521 18.1557 16.0662 17.4502 15.22 17.4502C14.3739 17.4502 13.688 18.1557 13.688 19.026C13.688 19.8963 14.3739 20.6019 15.22 20.6019Z" fill="white"/>
<path d="M15.2202 20.0464V22.6039" stroke="white" stroke-width="1.2" stroke-miterlimit="10" stroke-linecap="round" stroke-linejoin="round"/>
</svg>
