<svg width="27" height="27" viewBox="0 0 27 27" fill="none" xmlns="http://www.w3.org/2000/svg">
<path d="M19.5801 23.0536H7.47763C6.27177 23.0536 5.28516 22.067 5.28516 20.8611V14.1192C5.28516 12.9134 6.27177 11.9268 7.47763 11.9268H19.5801C20.786 11.9268 21.7726 12.9134 21.7726 14.1192V20.8611C21.7726 22.067 20.786 23.0536 19.5801 23.0536Z" stroke="#566D91" stroke-width="1.2" stroke-miterlimit="10" stroke-linecap="round" stroke-linejoin="round"/>
<path d="M18.4293 11.9269V8.84647C18.4293 6.13877 16.2368 3.94629 13.5291 3.94629C10.8214 3.94629 8.62891 6.13877 8.62891 8.84647V11.9269" stroke="#566D91" stroke-width="1.2" stroke-miterlimit="10" stroke-linecap="round" stroke-linejoin="round"/>
<path d="M13.5288 17.4849C14.2674 17.4849 14.8662 16.8861 14.8662 16.1475C14.8662 15.4088 14.2674 14.8101 13.5288 14.8101C12.7902 14.8101 12.1914 15.4088 12.1914 16.1475C12.1914 16.8861 12.7902 17.4849 13.5288 17.4849Z" fill="#566D91"/>
<path d="M13.5293 17.0137V19.1842" stroke="#566D91" stroke-width="1.2" stroke-miterlimit="10" stroke-linecap="round" stroke-linejoin="round"/>
</svg>
