<svg width="14" height="18" viewBox="0 0 14 18" fill="none" xmlns="http://www.w3.org/2000/svg">
<g clip-path="url(#clip0_118_8046)">
<path d="M7 9.17152C8.06087 9.17152 9.07828 8.72411 9.82843 7.9277C10.5786 7.1313 11 6.05115 11 4.92487C11 3.79859 10.5786 2.71844 9.82843 1.92204C9.07828 1.12564 8.06087 0.678223 7 0.678223C5.93913 0.678223 4.92172 1.12564 4.17157 1.92204C3.42143 2.71844 3 3.79859 3 4.92487C3 6.05115 3.42143 7.1313 4.17157 7.9277C4.92172 8.72411 5.93913 9.17152 7 9.17152ZM5.57188 10.764C2.49375 10.764 0 13.4115 0 16.6795C0 17.2236 0.415625 17.6648 0.928125 17.6648H13.0719C13.5844 17.6648 14 17.2236 14 16.6795C14 13.4115 11.5063 10.764 8.42813 10.764H5.57188Z" fill="#535353"/>
</g>
<defs>
<clipPath id="clip0_118_8046">
<rect width="14" height="16.9866" fill="white" transform="translate(0 0.678223)"/>
</clipPath>
</defs>
</svg>
