<svg width="12" height="13" viewBox="0 0 12 13" fill="none" xmlns="http://www.w3.org/2000/svg">
<g clip-path="url(#clip0_49_288)">
<path d="M6 6.5C6.90931 6.5 7.78138 6.15759 8.42437 5.5481C9.06735 4.9386 9.42857 4.11195 9.42857 3.25C9.42857 2.38805 9.06735 1.5614 8.42437 0.951903C7.78138 0.34241 6.90931 0 6 0C5.09069 0 4.21862 0.34241 3.57563 0.951903C2.93265 1.5614 2.57143 2.38805 2.57143 3.25C2.57143 4.11195 2.93265 4.9386 3.57563 5.5481C4.21862 6.15759 5.09069 6.5 6 6.5ZM4.77589 7.71875C2.1375 7.71875 0 9.74492 0 12.2459C0 12.6623 0.35625 13 0.795536 13H11.2045C11.6438 13 12 12.6623 12 12.2459C12 9.74492 9.8625 7.71875 7.22411 7.71875H4.77589Z" fill="#566D91"/>
</g>
<defs>
<clipPath id="clip0_49_288">
<rect width="12" height="13" fill="white"/>
</clipPath>
</defs>
</svg>
