<svg width="40" height="35" viewBox="0 0 40 35" fill="none" xmlns="http://www.w3.org/2000/svg">
<path d="M24.0612 18.7575C23.3523 18.4549 22.5311 18.6538 22.0427 19.2502L20.6078 21.005C18.6195 19.851 16.9598 18.1913 15.8058 16.2031L17.5563 14.7724C18.1527 14.284 18.3559 13.4628 18.049 12.754L15.9744 7.91309C15.6502 7.15238 14.8333 6.72881 14.025 6.90169L9.18417 7.93902C8.38889 8.10759 7.81836 8.81211 7.81836 9.629C7.81836 19.6219 15.3909 27.8514 25.1115 28.8844C25.5351 28.9276 25.9586 28.9622 26.3909 28.9795H26.3952C26.6588 28.9881 26.9182 28.9968 27.1818 28.9968C27.9987 28.9968 28.7032 28.4263 28.8718 27.631L29.9091 22.7901C30.082 21.9819 29.6584 21.165 28.8977 20.8408L24.0569 18.7661L24.0612 18.7575ZM26.9009 26.9178C17.5779 26.7665 10.0443 19.2329 9.89734 9.90995L14.185 8.98932L16.0435 13.3288L14.4918 14.5995C13.7052 15.2435 13.5021 16.363 14.0121 17.2447C15.3476 19.5485 17.2667 21.4675 19.5704 22.8031C20.4522 23.3131 21.5716 23.1099 22.2156 22.3233L23.4863 20.7716L27.8258 22.6302L26.9009 26.9178Z" fill="#566D91"/>
</svg>
