<svg width="23" height="23" viewBox="0 0 23 23" fill="none" xmlns="http://www.w3.org/2000/svg">
<g clip-path="url(#clip0_118_7710)">
<path d="M17.0631 12.0451C16.3543 11.7425 15.5331 11.9414 15.0447 12.5378L13.6097 14.2926C11.6215 13.1386 9.96177 11.4789 8.80774 9.49067L10.5582 8.06002C11.1547 7.57161 11.3578 6.75039 11.051 6.04155L8.9763 1.20069C8.65214 0.43998 7.83524 0.0164045 7.02699 0.189293L2.18613 1.22662C1.39084 1.39519 0.820312 2.09971 0.820312 2.9166C0.820312 12.9095 8.39281 21.139 18.1134 22.172C18.537 22.2152 18.9606 22.2498 19.3928 22.2671H19.3971C19.6608 22.2757 19.9201 22.2844 20.1838 22.2844C21.0007 22.2844 21.7052 21.7139 21.8738 20.9186L22.9111 16.0777C23.084 15.2695 22.6604 14.4526 21.8997 14.1284L17.0588 12.0537L17.0631 12.0451ZM19.9028 20.2054C10.5798 20.0541 3.04625 12.5205 2.89929 3.19754L7.18691 2.27692L9.04546 6.61641L7.49379 7.88713C6.70715 8.53114 6.50401 9.65059 7.01403 10.5323C8.34959 12.8361 10.2686 14.7551 12.5724 16.0907C13.4541 16.6007 14.5736 16.3975 15.2176 15.6109L16.4883 14.0592L20.8278 15.9178L19.9028 20.2054Z" fill="white"/>
</g>
<defs>
<clipPath id="clip0_118_7710">
<rect width="22.1297" height="22.1297" fill="white" transform="translate(0.820312 0.150391)"/>
</clipPath>
</defs>
</svg>
