<svg width="21" height="21" viewBox="0 0 21 21" fill="none" xmlns="http://www.w3.org/2000/svg">
<path d="M15.8434 7.56157H13.7803C13.0543 7.56157 12.4678 8.1481 12.4678 8.87407C12.4678 9.60005 13.0543 10.1866 13.7803 10.1866H19.0303C19.7563 10.1866 20.3428 9.60005 20.3428 8.87407V3.62407C20.3428 2.8981 19.7563 2.31157 19.0303 2.31157C18.3043 2.31157 17.7178 2.8981 17.7178 3.62407V5.72407L16.9959 5.0022C13.4071 1.41333 7.59107 1.41333 4.0022 5.0022C0.41333 8.59106 0.41333 14.4071 4.0022 17.9959C7.59107 21.5848 13.4071 21.5848 16.9959 17.9959C17.5086 17.4833 17.5086 16.6506 16.9959 16.1379C16.4833 15.6252 15.6506 15.6252 15.1379 16.1379C12.5745 18.7014 8.41958 18.7014 5.8561 16.1379C3.29263 13.5745 3.29263 9.41958 5.8561 6.8561C8.41958 4.29263 12.5745 4.29263 15.1379 6.8561L15.8434 7.56157Z" fill="white"/>
</svg>
