<svg width="284" height="284" viewBox="0 0 284 284" fill="none" xmlns="http://www.w3.org/2000/svg">
<g style="mix-blend-mode:luminosity" filter="url(#filter0_di_57_8)">
<mask id="path-1-inside-1_57_8" fill="white">
<path d="M261 142C261 207.722 207.722 261 142 261C76.2781 261 23 207.722 23 142C23 76.2781 76.2781 23 142 23C207.722 23 261 76.2781 261 142ZM61.0521 142C61.0521 186.706 97.2937 222.948 142 222.948C186.706 222.948 222.948 186.706 222.948 142C222.948 97.2937 186.706 61.0521 142 61.0521C97.2937 61.0521 61.0521 97.2937 61.0521 142Z"/>
</mask>
<path d="M261 142C261 207.722 207.722 261 142 261C76.2781 261 23 207.722 23 142C23 76.2781 76.2781 23 142 23C207.722 23 261 76.2781 261 142ZM61.0521 142C61.0521 186.706 97.2937 222.948 142 222.948C186.706 222.948 222.948 186.706 222.948 142C222.948 97.2937 186.706 61.0521 142 61.0521C97.2937 61.0521 61.0521 97.2937 61.0521 142Z" fill="url(#paint0_linear_57_8)"/>
<path d="M261 142C261 207.722 207.722 261 142 261C76.2781 261 23 207.722 23 142C23 76.2781 76.2781 23 142 23C207.722 23 261 76.2781 261 142ZM61.0521 142C61.0521 186.706 97.2937 222.948 142 222.948C186.706 222.948 222.948 186.706 222.948 142C222.948 97.2937 186.706 61.0521 142 61.0521C97.2937 61.0521 61.0521 97.2937 61.0521 142Z" stroke="#EFEFEF" stroke-width="12" mask="url(#path-1-inside-1_57_8)"/>
</g>
<path d="M129.875 173.719C130.646 173.719 131.385 173.413 131.93 172.868C132.475 172.323 132.781 171.583 132.781 170.812C132.781 170.042 132.475 169.302 131.93 168.757C131.385 168.212 130.646 167.906 129.875 167.906C129.104 167.906 128.365 168.212 127.82 168.757C127.275 169.302 126.969 170.042 126.969 170.812C126.969 171.583 127.275 172.323 127.82 172.868C128.365 173.413 129.104 173.719 129.875 173.719ZM137.625 168.875C136.553 168.875 135.688 169.741 135.688 170.812C135.688 171.884 136.553 172.75 137.625 172.75H155.062C156.134 172.75 157 171.884 157 170.812C157 169.741 156.134 168.875 155.062 168.875H137.625ZM137.625 178.562C136.553 178.562 135.688 179.428 135.688 180.5C135.688 181.572 136.553 182.438 137.625 182.438H155.062C156.134 182.438 157 181.572 157 180.5C157 179.428 156.134 178.562 155.062 178.562H137.625ZM137.625 188.25C136.553 188.25 135.688 189.116 135.688 190.188C135.688 191.259 136.553 192.125 137.625 192.125H155.062C156.134 192.125 157 191.259 157 190.188C157 189.116 156.134 188.25 155.062 188.25H137.625ZM129.875 193.094C130.646 193.094 131.385 192.788 131.93 192.243C132.475 191.698 132.781 190.958 132.781 190.188C132.781 189.417 132.475 188.677 131.93 188.132C131.385 187.587 130.646 187.281 129.875 187.281C129.104 187.281 128.365 187.587 127.82 188.132C127.275 188.677 126.969 189.417 126.969 190.188C126.969 190.958 127.275 191.698 127.82 192.243C128.365 192.788 129.104 193.094 129.875 193.094ZM132.781 180.5C132.781 180.118 132.706 179.74 132.56 179.388C132.414 179.035 132.2 178.715 131.93 178.445C131.66 178.175 131.34 177.961 130.987 177.815C130.635 177.669 130.257 177.594 129.875 177.594C129.493 177.594 129.115 177.669 128.763 177.815C128.41 177.961 128.09 178.175 127.82 178.445C127.55 178.715 127.336 179.035 127.19 179.388C127.044 179.74 126.969 180.118 126.969 180.5C126.969 180.882 127.044 181.26 127.19 181.612C127.336 181.965 127.55 182.285 127.82 182.555C128.09 182.825 128.41 183.039 128.763 183.185C129.115 183.331 129.493 183.406 129.875 183.406C130.257 183.406 130.635 183.331 130.987 183.185C131.34 183.039 131.66 182.825 131.93 182.555C132.2 182.285 132.414 181.965 132.56 181.612C132.706 181.26 132.781 180.882 132.781 180.5Z" fill="#19A752"/>
<g filter="url(#filter1_d_57_8)">
<path d="M80.5888 130V112.545H87.1342C88.4751 112.545 89.6001 112.778 90.5092 113.244C91.424 113.71 92.1143 114.364 92.5803 115.205C93.0518 116.04 93.2876 117.014 93.2876 118.128C93.2876 119.247 93.049 120.219 92.5717 121.043C92.1001 121.861 91.4041 122.494 90.4837 122.943C89.5632 123.386 88.4325 123.608 87.0916 123.608H82.4297V120.983H86.6655C87.4496 120.983 88.0916 120.875 88.5916 120.659C89.0916 120.437 89.4609 120.116 89.6996 119.696C89.9439 119.27 90.0661 118.747 90.0661 118.128C90.0661 117.509 89.9439 116.98 89.6996 116.543C89.4553 116.099 89.0831 115.764 88.5831 115.537C88.0831 115.304 87.4382 115.188 86.6484 115.188H83.7507V130H80.5888ZM89.6058 122.091L93.9268 130H90.3984L86.1541 122.091H89.6058ZM101.67 130.256C100.357 130.256 99.2237 129.983 98.2692 129.438C97.3203 128.886 96.5902 128.108 96.0788 127.102C95.5675 126.091 95.3118 124.901 95.3118 123.531C95.3118 122.185 95.5675 121.003 96.0788 119.986C96.5959 118.963 97.3175 118.168 98.2436 117.599C99.1697 117.026 100.258 116.739 101.508 116.739C102.315 116.739 103.076 116.869 103.792 117.131C104.513 117.386 105.15 117.784 105.701 118.324C106.258 118.864 106.695 119.551 107.013 120.386C107.332 121.216 107.491 122.205 107.491 123.352V124.298H96.7607V122.219H104.533C104.528 121.628 104.4 121.102 104.15 120.642C103.9 120.176 103.55 119.81 103.102 119.543C102.658 119.276 102.141 119.142 101.55 119.142C100.92 119.142 100.366 119.295 99.8885 119.602C99.4112 119.903 99.0391 120.301 98.772 120.795C98.5107 121.284 98.3771 121.821 98.3714 122.406V124.222C98.3714 124.983 98.5107 125.636 98.7891 126.182C99.0675 126.722 99.4567 127.136 99.9567 127.426C100.457 127.71 101.042 127.852 101.712 127.852C102.161 127.852 102.567 127.79 102.931 127.665C103.295 127.534 103.61 127.344 103.877 127.094C104.144 126.844 104.346 126.534 104.482 126.165L107.363 126.489C107.181 127.25 106.835 127.915 106.323 128.483C105.817 129.045 105.17 129.483 104.38 129.795C103.59 130.102 102.687 130.256 101.67 130.256ZM120.447 120.369L117.635 120.676C117.555 120.392 117.416 120.125 117.217 119.875C117.024 119.625 116.763 119.423 116.433 119.27C116.104 119.116 115.7 119.04 115.223 119.04C114.581 119.04 114.041 119.179 113.604 119.457C113.172 119.736 112.959 120.097 112.964 120.54C112.959 120.92 113.098 121.23 113.382 121.469C113.672 121.707 114.149 121.903 114.814 122.057L117.047 122.534C118.286 122.801 119.206 123.224 119.808 123.804C120.416 124.384 120.723 125.142 120.729 126.08C120.723 126.903 120.482 127.631 120.004 128.261C119.533 128.886 118.876 129.375 118.036 129.727C117.195 130.08 116.229 130.256 115.138 130.256C113.536 130.256 112.246 129.92 111.268 129.25C110.291 128.574 109.709 127.634 109.521 126.429L112.53 126.139C112.666 126.73 112.956 127.176 113.399 127.477C113.842 127.778 114.419 127.929 115.129 127.929C115.862 127.929 116.45 127.778 116.893 127.477C117.342 127.176 117.567 126.804 117.567 126.361C117.567 125.986 117.422 125.676 117.132 125.432C116.848 125.187 116.405 125 115.803 124.869L113.57 124.401C112.314 124.139 111.385 123.699 110.783 123.08C110.18 122.455 109.882 121.665 109.888 120.71C109.882 119.903 110.101 119.205 110.544 118.614C110.993 118.017 111.615 117.557 112.411 117.233C113.212 116.903 114.135 116.739 115.18 116.739C116.714 116.739 117.922 117.065 118.803 117.719C119.689 118.372 120.237 119.256 120.447 120.369ZM123.273 130V116.909H126.358V130H123.273ZM124.824 115.051C124.335 115.051 123.915 114.889 123.562 114.565C123.21 114.236 123.034 113.841 123.034 113.381C123.034 112.915 123.21 112.52 123.562 112.196C123.915 111.866 124.335 111.702 124.824 111.702C125.318 111.702 125.739 111.866 126.085 112.196C126.438 112.52 126.614 112.915 126.614 113.381C126.614 113.841 126.438 114.236 126.085 114.565C125.739 114.889 125.318 115.051 124.824 115.051ZM134.388 130.23C133.36 130.23 132.44 129.966 131.627 129.438C130.815 128.909 130.173 128.142 129.701 127.136C129.229 126.131 128.994 124.909 128.994 123.472C128.994 122.017 129.232 120.79 129.71 119.79C130.192 118.784 130.843 118.026 131.661 117.514C132.479 116.997 133.391 116.739 134.397 116.739C135.164 116.739 135.795 116.869 136.289 117.131C136.783 117.386 137.175 117.696 137.465 118.06C137.755 118.418 137.979 118.756 138.138 119.074H138.266V112.545H141.36V130H138.326V127.938H138.138C137.979 128.256 137.749 128.594 137.448 128.952C137.147 129.304 136.749 129.605 136.255 129.855C135.761 130.105 135.138 130.23 134.388 130.23ZM135.249 127.699C135.903 127.699 136.46 127.523 136.92 127.17C137.38 126.812 137.729 126.315 137.968 125.679C138.207 125.043 138.326 124.301 138.326 123.455C138.326 122.608 138.207 121.872 137.968 121.247C137.735 120.622 137.388 120.136 136.928 119.79C136.474 119.443 135.914 119.27 135.249 119.27C134.562 119.27 133.988 119.449 133.528 119.807C133.067 120.165 132.721 120.659 132.488 121.29C132.255 121.92 132.138 122.642 132.138 123.455C132.138 124.273 132.255 125.003 132.488 125.645C132.727 126.281 133.076 126.784 133.536 127.153C134.002 127.517 134.573 127.699 135.249 127.699ZM150.443 130.256C149.131 130.256 147.997 129.983 147.043 129.438C146.094 128.886 145.364 128.108 144.852 127.102C144.341 126.091 144.085 124.901 144.085 123.531C144.085 122.185 144.341 121.003 144.852 119.986C145.369 118.963 146.091 118.168 147.017 117.599C147.943 117.026 149.031 116.739 150.281 116.739C151.088 116.739 151.849 116.869 152.565 117.131C153.287 117.386 153.923 117.784 154.474 118.324C155.031 118.864 155.469 119.551 155.787 120.386C156.105 121.216 156.264 122.205 156.264 123.352V124.298H145.534V122.219H153.307C153.301 121.628 153.173 121.102 152.923 120.642C152.673 120.176 152.324 119.81 151.875 119.543C151.432 119.276 150.915 119.142 150.324 119.142C149.693 119.142 149.139 119.295 148.662 119.602C148.185 119.903 147.813 120.301 147.545 120.795C147.284 121.284 147.151 121.821 147.145 122.406V124.222C147.145 124.983 147.284 125.636 147.562 126.182C147.841 126.722 148.23 127.136 148.73 127.426C149.23 127.71 149.815 127.852 150.486 127.852C150.935 127.852 151.341 127.79 151.705 127.665C152.068 127.534 152.384 127.344 152.651 127.094C152.918 126.844 153.119 126.534 153.256 126.165L156.136 126.489C155.955 127.25 155.608 127.915 155.097 128.483C154.591 129.045 153.943 129.483 153.153 129.795C152.364 130.102 151.46 130.256 150.443 130.256ZM161.96 122.33V130H158.874V116.909H161.823V119.134H161.977C162.278 118.401 162.758 117.818 163.417 117.386C164.082 116.955 164.903 116.739 165.88 116.739C166.783 116.739 167.57 116.932 168.241 117.318C168.917 117.705 169.44 118.264 169.809 118.997C170.184 119.73 170.369 120.619 170.363 121.665V130H167.278V122.142C167.278 121.267 167.05 120.582 166.596 120.088C166.147 119.594 165.525 119.347 164.729 119.347C164.19 119.347 163.71 119.466 163.289 119.705C162.874 119.937 162.548 120.276 162.309 120.719C162.076 121.162 161.96 121.699 161.96 122.33ZM180.036 116.909V119.295H172.511V116.909H180.036ZM174.369 113.773H177.454V126.062C177.454 126.477 177.516 126.795 177.641 127.017C177.772 127.233 177.942 127.381 178.153 127.46C178.363 127.54 178.596 127.58 178.852 127.58C179.045 127.58 179.221 127.565 179.38 127.537C179.545 127.509 179.67 127.483 179.755 127.46L180.275 129.872C180.11 129.929 179.874 129.991 179.567 130.06C179.266 130.128 178.897 130.168 178.46 130.179C177.687 130.202 176.991 130.085 176.371 129.83C175.752 129.568 175.261 129.165 174.897 128.619C174.539 128.074 174.363 127.392 174.369 126.574V113.773ZM185.651 115.188L187.56 111.293H190.577L187.96 115.188H185.651ZM204.893 120.369L202.08 120.676C202.001 120.392 201.862 120.125 201.663 119.875C201.469 119.625 201.208 119.423 200.879 119.27C200.549 119.116 200.146 119.04 199.668 119.04C199.026 119.04 198.487 119.179 198.049 119.457C197.617 119.736 197.404 120.097 197.41 120.54C197.404 120.92 197.543 121.23 197.827 121.469C198.117 121.707 198.594 121.903 199.259 122.057L201.492 122.534C202.731 122.801 203.651 123.224 204.254 123.804C204.862 124.384 205.168 125.142 205.174 126.08C205.168 126.903 204.927 127.631 204.45 128.261C203.978 128.886 203.322 129.375 202.481 129.727C201.64 130.08 200.674 130.256 199.583 130.256C197.981 130.256 196.691 129.92 195.714 129.25C194.737 128.574 194.154 127.634 193.967 126.429L196.975 126.139C197.112 126.73 197.401 127.176 197.844 127.477C198.288 127.778 198.864 127.929 199.575 127.929C200.308 127.929 200.896 127.778 201.339 127.477C201.788 127.176 202.012 126.804 202.012 126.361C202.012 125.986 201.867 125.676 201.577 125.432C201.293 125.187 200.85 125 200.248 124.869L198.015 124.401C196.759 124.139 195.83 123.699 195.228 123.08C194.626 122.455 194.327 121.665 194.333 120.71C194.327 119.903 194.546 119.205 194.989 118.614C195.438 118.017 196.06 117.557 196.856 117.233C197.657 116.903 198.58 116.739 199.626 116.739C201.16 116.739 202.367 117.065 203.248 117.719C204.134 118.372 204.683 119.256 204.893 120.369ZM129.601 149V137.364H131.709V147.233H136.834V149H129.601ZM138.572 149V140.273H140.629V149H138.572ZM139.607 139.034C139.281 139.034 139 138.926 138.766 138.71C138.531 138.491 138.413 138.227 138.413 137.92C138.413 137.61 138.531 137.347 138.766 137.131C139 136.911 139.281 136.801 139.607 136.801C139.936 136.801 140.216 136.911 140.447 137.131C140.682 137.347 140.8 137.61 140.8 137.92C140.8 138.227 140.682 138.491 140.447 138.71C140.216 138.926 139.936 139.034 139.607 139.034ZM149.642 142.58L147.767 142.784C147.714 142.595 147.621 142.417 147.489 142.25C147.36 142.083 147.186 141.949 146.966 141.847C146.746 141.744 146.477 141.693 146.159 141.693C145.731 141.693 145.371 141.786 145.08 141.972C144.792 142.157 144.65 142.398 144.653 142.693C144.65 142.947 144.742 143.153 144.932 143.312C145.125 143.472 145.443 143.602 145.886 143.705L147.375 144.023C148.201 144.201 148.814 144.483 149.216 144.869C149.621 145.256 149.826 145.761 149.83 146.386C149.826 146.936 149.665 147.42 149.347 147.841C149.032 148.258 148.595 148.583 148.034 148.818C147.473 149.053 146.83 149.17 146.102 149.17C145.034 149.17 144.174 148.947 143.523 148.5C142.871 148.049 142.483 147.422 142.358 146.619L144.364 146.426C144.455 146.82 144.648 147.117 144.943 147.318C145.239 147.519 145.623 147.619 146.097 147.619C146.585 147.619 146.977 147.519 147.273 147.318C147.572 147.117 147.722 146.869 147.722 146.574C147.722 146.324 147.625 146.117 147.432 145.955C147.242 145.792 146.947 145.667 146.545 145.58L145.057 145.267C144.22 145.093 143.6 144.799 143.199 144.386C142.797 143.97 142.598 143.443 142.602 142.807C142.598 142.269 142.744 141.803 143.04 141.409C143.339 141.011 143.754 140.705 144.284 140.489C144.818 140.269 145.434 140.159 146.131 140.159C147.153 140.159 147.958 140.377 148.545 140.812C149.136 141.248 149.502 141.837 149.642 142.58ZM155.884 140.273V141.864H150.866V140.273H155.884ZM152.105 138.182H154.162V146.375C154.162 146.652 154.204 146.864 154.287 147.011C154.374 147.155 154.488 147.254 154.628 147.307C154.768 147.36 154.923 147.386 155.094 147.386C155.223 147.386 155.34 147.377 155.446 147.358C155.556 147.339 155.639 147.322 155.696 147.307L156.043 148.915C155.933 148.953 155.776 148.994 155.571 149.04C155.37 149.085 155.124 149.112 154.832 149.119C154.317 149.134 153.853 149.057 153.44 148.886C153.027 148.712 152.7 148.443 152.457 148.08C152.219 147.716 152.101 147.261 152.105 146.716V138.182Z" fill="white"/>
</g>
<defs>
<filter id="filter0_di_57_8" x="0" y="0" width="284" height="284" filterUnits="userSpaceOnUse" color-interpolation-filters="sRGB">
<feFlood flood-opacity="0" result="BackgroundImageFix"/>
<feColorMatrix in="SourceAlpha" type="matrix" values="0 0 0 0 0 0 0 0 0 0 0 0 0 0 0 0 0 0 127 0" result="hardAlpha"/>
<feMorphology radius="8" operator="dilate" in="SourceAlpha" result="effect1_dropShadow_57_8"/>
<feOffset/>
<feGaussianBlur stdDeviation="7.5"/>
<feComposite in2="hardAlpha" operator="out"/>
<feColorMatrix type="matrix" values="0 0 0 0 0 0 0 0 0 0 0 0 0 0 0 0 0 0 0.4 0"/>
<feBlend mode="normal" in2="BackgroundImageFix" result="effect1_dropShadow_57_8"/>
<feBlend mode="normal" in="SourceGraphic" in2="effect1_dropShadow_57_8" result="shape"/>
<feColorMatrix in="SourceAlpha" type="matrix" values="0 0 0 0 0 0 0 0 0 0 0 0 0 0 0 0 0 0 127 0" result="hardAlpha"/>
<feMorphology radius="20" operator="erode" in="SourceAlpha" result="effect2_innerShadow_57_8"/>
<feOffset/>
<feGaussianBlur stdDeviation="7.5"/>
<feComposite in2="hardAlpha" operator="arithmetic" k2="-1" k3="1"/>
<feColorMatrix type="matrix" values="0 0 0 0 0 0 0 0 0 0 0 0 0 0 0 0 0 0 0.5 0"/>
<feBlend mode="normal" in2="shape" result="effect2_innerShadow_57_8"/>
</filter>
<filter id="filter1_d_57_8" x="76.5888" y="111.293" width="132.585" height="45.8778" filterUnits="userSpaceOnUse" color-interpolation-filters="sRGB">
<feFlood flood-opacity="0" result="BackgroundImageFix"/>
<feColorMatrix in="SourceAlpha" type="matrix" values="0 0 0 0 0 0 0 0 0 0 0 0 0 0 0 0 0 0 127 0" result="hardAlpha"/>
<feOffset dy="4"/>
<feGaussianBlur stdDeviation="2"/>
<feComposite in2="hardAlpha" operator="out"/>
<feColorMatrix type="matrix" values="0 0 0 0 0 0 0 0 0 0 0 0 0 0 0 0 0 0 0.25 0"/>
<feBlend mode="normal" in2="BackgroundImageFix" result="effect1_dropShadow_57_8"/>
<feBlend mode="normal" in="SourceGraphic" in2="effect1_dropShadow_57_8" result="shape"/>
</filter>
<linearGradient id="paint0_linear_57_8" x1="142" y1="23" x2="142" y2="261" gradientUnits="userSpaceOnUse">
<stop stop-color="#607E99"/>
<stop offset="1"/>
</linearGradient>
</defs>
</svg>
