<svg width="23" height="20" viewBox="0 0 23 20" fill="none" xmlns="http://www.w3.org/2000/svg">
<g clip-path="url(#clip0_394_504)">
<path d="M12.1182 0.222656C11.7588 -0.0742188 11.2357 -0.0742188 10.8764 0.222656L0.334704 8.97266C-0.0685946 9.30859 -0.116511 9.89844 0.222898 10.293C0.562308 10.6875 1.16925 10.7344 1.57255 10.4023L2.55484 9.58984V16.875C2.55484 18.6016 3.98436 20 5.74929 20H17.2493C19.0142 20 20.4437 18.6016 20.4437 16.875V9.58984L21.422 10.4023C21.8253 10.7383 22.4323 10.6875 22.7717 10.293C23.1111 9.89844 23.0632 9.30469 22.6599 8.97266L20.4437 7.13281V2.1875C20.4437 1.66797 20.0165 1.25 19.4854 1.25C18.9543 1.25 18.5271 1.66797 18.5271 2.1875V5.54297L12.1182 0.222656ZM4.47151 16.875V8L11.4993 2.16797L18.5271 8V16.875C18.5271 17.5664 17.9561 18.125 17.2493 18.125H5.74929C5.04252 18.125 4.47151 17.5664 4.47151 16.875ZM11.4993 11.25C12.1771 11.25 12.8271 10.9866 13.3063 10.5178C13.7856 10.0489 14.0548 9.41304 14.0548 8.75C14.0548 8.08696 13.7856 7.45107 13.3063 6.98223C12.8271 6.51339 12.1771 6.25 11.4993 6.25C10.8215 6.25 10.1715 6.51339 9.69224 6.98223C9.21298 7.45107 8.94373 8.08696 8.94373 8.75C8.94373 9.41304 9.21298 10.0489 9.69224 10.5178C10.1715 10.9866 10.8215 11.25 11.4993 11.25ZM7.02707 15.625C7.02707 15.9688 7.31457 16.25 7.66595 16.25H15.3326C15.684 16.25 15.9715 15.9688 15.9715 15.625C15.9715 13.8984 14.542 12.5 12.7771 12.5H10.2215C8.45658 12.5 7.02707 13.8984 7.02707 15.625Z" fill="white"/>
</g>
<defs>
<clipPath id="clip0_394_504">
<rect width="23" height="20" fill="white"/>
</clipPath>
</defs>
</svg>
