<svg width="18" height="18" viewBox="0 0 18 18" fill="none" xmlns="http://www.w3.org/2000/svg">
<g clip-path="url(#clip0_118_7789)">
<path d="M12.9375 7.3125C12.9375 5.82066 12.3449 4.38992 11.29 3.33502C10.2351 2.28013 8.80434 1.6875 7.3125 1.6875C5.82066 1.6875 4.38992 2.28013 3.33502 3.33502C2.28013 4.38992 1.6875 5.82066 1.6875 7.3125C1.6875 8.80434 2.28013 10.2351 3.33502 11.29C4.38992 12.3449 5.82066 12.9375 7.3125 12.9375C8.80434 12.9375 10.2351 12.3449 11.29 11.29C12.3449 10.2351 12.9375 8.80434 12.9375 7.3125ZM11.8512 13.0465C10.6066 14.0344 9.02813 14.625 7.3125 14.625C3.27305 14.625 0 11.352 0 7.3125C0 3.27305 3.27305 0 7.3125 0C11.352 0 14.625 3.27305 14.625 7.3125C14.625 9.02812 14.0344 10.6066 13.0465 11.8512L17.7539 16.5586C18.0844 16.8891 18.0844 17.4234 17.7539 17.7504C17.4234 18.0773 16.8891 18.0809 16.5621 17.7504L11.8512 13.0465Z" fill="#8E8E8E"/>
</g>
<defs>
<clipPath id="clip0_118_7789">
<rect width="18" height="18" rx="5" fill="white"/>
</clipPath>
</defs>
</svg>
