<svg width="20" height="20" viewBox="0 0 20 20" fill="none" xmlns="http://www.w3.org/2000/svg">
<g clip-path="url(#clip0_53_239)">
<path d="M1.94927 1.08594C0.589891 0.496097 -0.749953 1.95703 -0.0468279 3.26172L2.6602 8.28907C2.83208 8.61328 3.15239 8.82813 3.51567 8.875L10.3907 9.73438C10.5235 9.75 10.625 9.86328 10.625 9.9961C10.625 10.1289 10.5235 10.2422 10.3907 10.2578L3.51567 11.1172C3.15239 11.1641 2.83208 11.3828 2.6602 11.7031L-0.0468279 16.7383C-0.749953 18.043 0.589891 19.5039 1.94927 18.9141L19.211 11.4336C20.4649 10.8906 20.4649 9.10938 19.211 8.56641L1.94927 1.08594Z" fill="#566D91"/>
</g>
<defs>
<clipPath id="clip0_53_239">
<rect width="20" height="20" fill="white"/>
</clipPath>
</defs>
</svg>
