<svg width="21" height="21" viewBox="0 0 21 21" fill="none" xmlns="http://www.w3.org/2000/svg">
<g clip-path="url(#clip0_1187_3701)">
<path d="M15.7951 17.3711L3.81035 5.95703C2.65781 7.33984 1.96875 9.09375 1.96875 11C1.96875 15.4883 5.7873 19.125 10.5 19.125C12.5016 19.125 14.3432 18.4688 15.7951 17.3711ZM17.1855 16.0469C18.3422 14.6602 19.0312 12.9062 19.0312 11C19.0312 6.51172 15.2127 2.875 10.5 2.875C8.49844 2.875 6.65684 3.53125 5.20488 4.62891L17.1896 16.043L17.1855 16.0469ZM0 11C0 8.34784 1.10625 5.8043 3.07538 3.92893C5.04451 2.05357 7.71523 1 10.5 1C13.2848 1 15.9555 2.05357 17.9246 3.92893C19.8938 5.8043 21 8.34784 21 11C21 13.6522 19.8938 16.1957 17.9246 18.0711C15.9555 19.9464 13.2848 21 10.5 21C7.71523 21 5.04451 19.9464 3.07538 18.0711C1.10625 16.1957 0 13.6522 0 11Z" fill="white"/>
</g>
<defs>
<clipPath id="clip0_1187_3701">
<rect width="21" height="20" fill="white" transform="translate(0 1)"/>
</clipPath>
</defs>
</svg>
