<svg width="15" height="20" viewBox="0 0 15 20" fill="none" xmlns="http://www.w3.org/2000/svg">
<g clip-path="url(#clip0_394_212)">
<path d="M1.875 17.5V2.5C1.875 2.15625 2.15625 1.875 2.5 1.875H8.75V5C8.75 5.69141 9.30859 6.25 10 6.25H13.125V17.5C13.125 17.8438 12.8438 18.125 12.5 18.125H2.5C2.15625 18.125 1.875 17.8438 1.875 17.5ZM2.5 0C1.12109 0 0 1.12109 0 2.5V17.5C0 18.8789 1.12109 20 2.5 20H12.5C13.8789 20 15 18.8789 15 17.5V6.03516C15 5.37109 14.7383 4.73438 14.2695 4.26562L10.7305 0.730469C10.2617 0.261719 9.62891 0 8.96484 0H2.5ZM8.4375 15.9375V11.9492L9.64844 13.1602C10.0156 13.5273 10.6094 13.5273 10.9727 13.1602C11.3359 12.793 11.3398 12.1992 10.9727 11.8359L8.16016 9.02344C7.79297 8.65625 7.19922 8.65625 6.83594 9.02344L4.02344 11.8359C3.65625 12.2031 3.65625 12.7969 4.02344 13.1602C4.39062 13.5234 4.98437 13.5273 5.34766 13.1602L6.55859 11.9492V15.9375C6.55859 16.457 6.97656 16.875 7.49609 16.875C8.01562 16.875 8.43359 16.457 8.43359 15.9375H8.4375Z" fill="#566D91"/>
</g>
<defs>
<clipPath id="clip0_394_212">
<rect width="15" height="20" fill="white"/>
</clipPath>
</defs>
</svg>
