<svg width="35" height="38" viewBox="0 0 35 38" fill="none" xmlns="http://www.w3.org/2000/svg">
<g clip-path="url(#clip0_118_8153)">
<path d="M17.5 19C20.1522 19 22.6957 17.9991 24.5711 16.2175C26.4464 14.4359 27.5 12.0196 27.5 9.5C27.5 6.98044 26.4464 4.56408 24.5711 2.78249C22.6957 1.00089 20.1522 0 17.5 0C14.8478 0 12.3043 1.00089 10.4289 2.78249C8.55357 4.56408 7.5 6.98044 7.5 9.5C7.5 12.0196 8.55357 14.4359 10.4289 16.2175C12.3043 17.9991 14.8478 19 17.5 19ZM13.9297 22.5625C6.23438 22.5625 0 28.4852 0 35.7957C0 37.0129 1.03906 38 2.32031 38H32.6797C33.9609 38 35 37.0129 35 35.7957C35 28.4852 28.7656 22.5625 21.0703 22.5625H13.9297Z" fill="white"/>
</g>
<defs>
<clipPath id="clip0_118_8153">
<rect width="35" height="38" fill="white"/>
</clipPath>
</defs>
</svg>
