<svg width="14" height="21" viewBox="0 0 14 21" fill="none" xmlns="http://www.w3.org/2000/svg">
<path d="M9.33366 1.3125V1.96875C9.33366 2.69473 8.81231 3.28125 8.16699 3.28125H5.83366C5.18835 3.28125 4.66699 2.69473 4.66699 1.96875V1.3125H3.50033C2.85501 1.3125 2.33366 1.89902 2.33366 2.625V18.375C2.33366 19.101 2.85501 19.6875 3.50033 19.6875H10.5003C11.1456 19.6875 11.667 19.101 11.667 18.375V2.625C11.667 1.89902 11.1456 1.3125 10.5003 1.3125H9.33366ZM8.16699 1.3125H5.83366V1.96875H8.16699V1.3125ZM1.16699 2.625C1.16699 1.17715 2.21335 0 3.50033 0H10.5003C11.7873 0 12.8337 1.17715 12.8337 2.625V18.375C12.8337 19.8229 11.7873 21 10.5003 21H3.50033C2.21335 21 1.16699 19.8229 1.16699 18.375V2.625Z" fill="white"/>
</svg>
