<svg width="23" height="20" viewBox="0 0 23 20" fill="none" xmlns="http://www.w3.org/2000/svg">
<path d="M9.57143 2.14286C9.57143 0.959821 8.61161 0 7.42857 0H3.14286C1.95982 0 1 0.959821 1 2.14286V6.42857C1 7.61161 1.95982 8.57143 3.14286 8.57143H7.42857C8.61161 8.57143 9.57143 7.61161 9.57143 6.42857V2.14286ZM9.57143 13.5714C9.57143 12.3884 8.61161 11.4286 7.42857 11.4286H3.14286C1.95982 11.4286 1 12.3884 1 13.5714V17.8571C1 19.0402 1.95982 20 3.14286 20H7.42857C8.61161 20 9.57143 19.0402 9.57143 17.8571V13.5714ZM12.4286 2.14286V6.42857C12.4286 7.61161 13.3884 8.57143 14.5714 8.57143H18.8571C20.0402 8.57143 21 7.61161 21 6.42857V2.14286C21 0.959821 20.0402 0 18.8571 0H14.5714C13.3884 0 12.4286 0.959821 12.4286 2.14286ZM21 13.5714C21 12.3884 20.0402 11.4286 18.8571 11.4286H14.5714C13.3884 11.4286 12.4286 12.3884 12.4286 13.5714V17.8571C12.4286 19.0402 13.3884 20 14.5714 20H18.8571C20.0402 20 21 19.0402 21 17.8571V13.5714Z" fill="#E3982A"/>
</svg>
