<svg width="23" height="20" viewBox="0 0 23 20" fill="none" xmlns="http://www.w3.org/2000/svg">
<g clip-path="url(#clip0_1339_1574)">
<path d="M12.1187 0.222656C11.7593 -0.0742188 11.2362 -0.0742188 10.8769 0.222656L0.335192 8.97266C-0.0681064 9.30859 -0.116023 9.89844 0.223387 10.293C0.562796 10.6875 1.16974 10.7344 1.57304 10.4023L2.55533 9.58984V16.875C2.55533 18.6016 3.98485 20 5.74978 20H17.2498C19.0147 20 20.4442 18.6016 20.4442 16.875V9.58984L21.4225 10.4023C21.8258 10.7383 22.4328 10.6875 22.7722 10.293C23.1116 9.89844 23.0637 9.30469 22.6604 8.97266L20.4442 7.13281V2.1875C20.4442 1.66797 20.017 1.25 19.4859 1.25C18.9548 1.25 18.5276 1.66797 18.5276 2.1875V5.54297L12.1187 0.222656ZM4.472 16.875V8L11.4998 2.16797L18.5276 8V16.875C18.5276 17.5664 17.9565 18.125 17.2498 18.125H5.74978C5.043 18.125 4.472 17.5664 4.472 16.875ZM11.4998 11.25C12.1776 11.25 12.8276 10.9866 13.3068 10.5178C13.7861 10.0489 14.0553 9.41304 14.0553 8.75C14.0553 8.08696 13.7861 7.45107 13.3068 6.98223C12.8276 6.51339 12.1776 6.25 11.4998 6.25C10.822 6.25 10.172 6.51339 9.69273 6.98223C9.21347 7.45107 8.94422 8.08696 8.94422 8.75C8.94422 9.41304 9.21347 10.0489 9.69273 10.5178C10.172 10.9866 10.822 11.25 11.4998 11.25ZM7.02755 15.625C7.02755 15.9688 7.31505 16.25 7.66644 16.25H15.3331C15.6845 16.25 15.972 15.9688 15.972 15.625C15.972 13.8984 14.5425 12.5 12.7776 12.5H10.222C8.45707 12.5 7.02755 13.8984 7.02755 15.625Z" fill="#E3982A"/>
</g>
<defs>
<clipPath id="clip0_1339_1574">
<rect width="23" height="20" fill="white"/>
</clipPath>
</defs>
</svg>
