<svg width="107" height="105" viewBox="0 0 107 105" fill="none" xmlns="http://www.w3.org/2000/svg">
<g filter="url(#filter0_d_89_30)">
<ellipse cx="53.0337" cy="48.5" rx="48.0337" ry="47.5" fill="white"/>
</g>
<path d="M37.7 35C36.2094 35 35 36.1758 35 37.625V43.4164L38.6 46.6266V46.375C38.6 45.8937 39.005 45.5 39.5 45.5H41.3C41.795 45.5 42.2 45.8937 42.2 46.375V48.125C42.2 48.6063 41.795 49 41.3 49H40.2425C40.3494 49.3719 40.4 49.7602 40.4 50.1539V50.75H41.3C41.795 50.75 42.2 51.1437 42.2 51.625V53.375C42.2 53.8563 41.795 54.25 41.3 54.25H40.4V60.375C40.4 61.3594 40.0625 62.2672 39.5 63H50.3C51.7906 63 53 61.8242 53 60.375V37.625C53 36.1758 51.7906 35 50.3 35H37.7ZM45.8 46.375C45.8 45.8937 46.205 45.5 46.7 45.5H48.5C48.995 45.5 49.4 45.8937 49.4 46.375V48.125C49.4 48.6063 48.995 49 48.5 49H46.7C46.205 49 45.8 48.6063 45.8 48.125V46.375ZM46.7 50.75H48.5C48.995 50.75 49.4 51.1437 49.4 51.625V53.375C49.4 53.8563 48.995 54.25 48.5 54.25H46.7C46.205 54.25 45.8 53.8563 45.8 53.375V51.625C45.8 51.1437 46.205 50.75 46.7 50.75ZM39.5 40.25H41.3C41.795 40.25 42.2 40.6437 42.2 41.125V42.875C42.2 43.3563 41.795 43.75 41.3 43.75H39.5C39.005 43.75 38.6 43.3563 38.6 42.875V41.125C38.6 40.6437 39.005 40.25 39.5 40.25ZM45.8 41.125C45.8 40.6437 46.205 40.25 46.7 40.25H48.5C48.995 40.25 49.4 40.6437 49.4 41.125V42.875C49.4 43.3563 48.995 43.75 48.5 43.75H46.7C46.205 43.75 45.8 43.3563 45.8 42.875V41.125ZM17 50.1539V60.375C17 61.8242 18.2094 63 19.7 63H35.9C37.3906 63 38.6 61.8242 38.6 60.375V50.1539C38.6 49.4156 38.285 48.7156 37.7225 48.218L29.6225 40.9992C28.5875 40.0805 27.0069 40.0805 25.9719 40.9992L17.8719 48.218C17.315 48.7156 17 49.4211 17 50.1539ZM25.1 51.1875C25.1 50.4602 25.7019 49.875 26.45 49.875H29.15C29.8981 49.875 30.5 50.4602 30.5 51.1875V53.8125C30.5 54.5398 29.8981 55.125 29.15 55.125H26.45C25.7019 55.125 25.1 54.5398 25.1 53.8125V51.1875Z" fill="#2A3649"/>
<path d="M92.9892 48.9727C92.9892 49.957 92.1819 50.7281 91.267 50.7281H89.5448L89.5825 59.4891C89.5932 61.4305 88.0486 63.0055 86.138 63.0055H68.8943C66.9944 63.0055 65.4498 61.4359 65.4498 59.5055V50.7281H63.7222C62.7535 50.7281 62 49.9625 62 48.9727C62 48.4805 62.1615 48.043 62.5382 47.6602L76.3375 35.4375C76.7142 35.0547 77.1448 35 77.5215 35C77.8983 35 78.3288 35.1094 78.6517 35.3828L92.3972 47.6602C92.8278 48.043 93.0431 48.4805 92.9892 48.9727ZM80.9444 47.25C80.9444 46.3217 80.5815 45.4315 79.9356 44.7751C79.2896 44.1187 78.4135 43.75 77.5 43.75C76.5865 43.75 75.7104 44.1187 75.0644 44.7751C74.4185 45.4315 74.0556 46.3217 74.0556 47.25C74.0556 48.1783 74.4185 49.0685 75.0644 49.7249C75.7104 50.3813 76.5865 50.75 77.5 50.75C78.4135 50.75 79.2896 50.3813 79.9356 49.7249C80.5815 49.0685 80.9444 48.1783 80.9444 47.25ZM75.7778 52.5C73.399 52.5 71.4722 54.4578 71.4722 56.875C71.4722 57.3563 71.8597 57.75 72.3333 57.75H82.6667C83.1403 57.75 83.5278 57.3563 83.5278 56.875C83.5278 54.4578 81.601 52.5 79.2222 52.5H75.7778Z" fill="#2A3649"/>
<defs>
<filter id="filter0_d_89_30" x="0" y="0" width="106.067" height="105" filterUnits="userSpaceOnUse" color-interpolation-filters="sRGB">
<feFlood flood-opacity="0" result="BackgroundImageFix"/>
<feColorMatrix in="SourceAlpha" type="matrix" values="0 0 0 0 0 0 0 0 0 0 0 0 0 0 0 0 0 0 127 0" result="hardAlpha"/>
<feMorphology radius="1" operator="dilate" in="SourceAlpha" result="effect1_dropShadow_89_30"/>
<feOffset dy="4"/>
<feGaussianBlur stdDeviation="2"/>
<feComposite in2="hardAlpha" operator="out"/>
<feColorMatrix type="matrix" values="0 0 0 0 0 0 0 0 0 0 0 0 0 0 0 0 0 0 0.25 0"/>
<feBlend mode="normal" in2="BackgroundImageFix" result="effect1_dropShadow_89_30"/>
<feBlend mode="normal" in="SourceGraphic" in2="effect1_dropShadow_89_30" result="shape"/>
</filter>
</defs>
</svg>
