<svg width="107" height="107" viewBox="0 0 107 107" fill="none" xmlns="http://www.w3.org/2000/svg">
<g filter="url(#filter0_d_118_3252)">
<circle cx="53.5" cy="49.5" r="47.5" fill="white"/>
</g>
<g clip-path="url(#clip0_118_3252)">
<path d="M58.675 23C55.818 23 53.5 25.2676 53.5 28.0625V39.2316L60.4 45.4227V44.9375C60.4 44.0094 61.1763 43.25 62.125 43.25H65.575C66.5238 43.25 67.3 44.0094 67.3 44.9375V48.3125C67.3 49.2406 66.5238 50 65.575 50H63.5481C63.753 50.7172 63.85 51.466 63.85 52.2254V53.375H65.575C66.5238 53.375 67.3 54.1344 67.3 55.0625V58.4375C67.3 59.3656 66.5238 60.125 65.575 60.125H63.85V71.9375C63.85 73.8359 63.2031 75.5867 62.125 77H82.825C85.682 77 88 74.7324 88 71.9375V28.0625C88 25.2676 85.682 23 82.825 23H58.675ZM74.2 44.9375C74.2 44.0094 74.9762 43.25 75.925 43.25H79.375C80.3237 43.25 81.1 44.0094 81.1 44.9375V48.3125C81.1 49.2406 80.3237 50 79.375 50H75.925C74.9762 50 74.2 49.2406 74.2 48.3125V44.9375ZM75.925 53.375H79.375C80.3237 53.375 81.1 54.1344 81.1 55.0625V58.4375C81.1 59.3656 80.3237 60.125 79.375 60.125H75.925C74.9762 60.125 74.2 59.3656 74.2 58.4375V55.0625C74.2 54.1344 74.9762 53.375 75.925 53.375ZM62.125 33.125H65.575C66.5238 33.125 67.3 33.8844 67.3 34.8125V38.1875C67.3 39.1156 66.5238 39.875 65.575 39.875H62.125C61.1763 39.875 60.4 39.1156 60.4 38.1875V34.8125C60.4 33.8844 61.1763 33.125 62.125 33.125ZM74.2 34.8125C74.2 33.8844 74.9762 33.125 75.925 33.125H79.375C80.3237 33.125 81.1 33.8844 81.1 34.8125V38.1875C81.1 39.1156 80.3237 39.875 79.375 39.875H75.925C74.9762 39.875 74.2 39.1156 74.2 38.1875V34.8125ZM19 52.2254V71.9375C19 74.7324 21.318 77 24.175 77H55.225C58.082 77 60.4 74.7324 60.4 71.9375V52.2254C60.4 50.8016 59.7962 49.4516 58.7181 48.4918L43.1931 34.5699C41.2094 32.798 38.1798 32.798 36.1961 34.5699L20.6711 48.4918C19.6038 49.4516 19 50.8121 19 52.2254ZM34.525 54.2188C34.525 52.816 35.6786 51.6875 37.1125 51.6875H42.2875C43.7214 51.6875 44.875 52.816 44.875 54.2188V59.2812C44.875 60.684 43.7214 61.8125 42.2875 61.8125H37.1125C35.6786 61.8125 34.525 60.684 34.525 59.2812V54.2188Z" fill="#2A3649"/>
</g>
<defs>
<filter id="filter0_d_118_3252" x="0" y="0" width="107" height="107" filterUnits="userSpaceOnUse" color-interpolation-filters="sRGB">
<feFlood flood-opacity="0" result="BackgroundImageFix"/>
<feColorMatrix in="SourceAlpha" type="matrix" values="0 0 0 0 0 0 0 0 0 0 0 0 0 0 0 0 0 0 127 0" result="hardAlpha"/>
<feMorphology radius="1" operator="dilate" in="SourceAlpha" result="effect1_dropShadow_118_3252"/>
<feOffset dy="4"/>
<feGaussianBlur stdDeviation="2.5"/>
<feComposite in2="hardAlpha" operator="out"/>
<feColorMatrix type="matrix" values="0 0 0 0 0 0 0 0 0 0 0 0 0 0 0 0 0 0 0.1 0"/>
<feBlend mode="normal" in2="BackgroundImageFix" result="effect1_dropShadow_118_3252"/>
<feBlend mode="normal" in="SourceGraphic" in2="effect1_dropShadow_118_3252" result="shape"/>
</filter>
<clipPath id="clip0_118_3252">
<rect width="69" height="54" fill="white" transform="translate(19 23)"/>
</clipPath>
</defs>
</svg>
