<svg width="26" height="21" viewBox="0 0 26 21" fill="none" xmlns="http://www.w3.org/2000/svg">
<g clip-path="url(#clip0_541_783)">
<path d="M14.95 0C13.8734 0 13 0.881836 13 1.96875V6.3123L15.6 8.71992V8.53125C15.6 8.17031 15.8925 7.875 16.25 7.875H17.55C17.9075 7.875 18.2 8.17031 18.2 8.53125V9.84375C18.2 10.2047 17.9075 10.5 17.55 10.5H16.7862C16.8634 10.7789 16.9 11.0701 16.9 11.3654V11.8125H17.55C17.9075 11.8125 18.2 12.1078 18.2 12.4688V13.7812C18.2 14.1422 17.9075 14.4375 17.55 14.4375H16.9V19.0312C16.9 19.7695 16.6562 20.4504 16.25 21H24.05C25.1266 21 26 20.1182 26 19.0312V1.96875C26 0.881836 25.1266 0 24.05 0H14.95ZM20.8 8.53125C20.8 8.17031 21.0925 7.875 21.45 7.875H22.75C23.1075 7.875 23.4 8.17031 23.4 8.53125V9.84375C23.4 10.2047 23.1075 10.5 22.75 10.5H21.45C21.0925 10.5 20.8 10.2047 20.8 9.84375V8.53125ZM21.45 11.8125H22.75C23.1075 11.8125 23.4 12.1078 23.4 12.4688V13.7812C23.4 14.1422 23.1075 14.4375 22.75 14.4375H21.45C21.0925 14.4375 20.8 14.1422 20.8 13.7812V12.4688C20.8 12.1078 21.0925 11.8125 21.45 11.8125ZM16.25 3.9375H17.55C17.9075 3.9375 18.2 4.23281 18.2 4.59375V5.90625C18.2 6.26719 17.9075 6.5625 17.55 6.5625H16.25C15.8925 6.5625 15.6 6.26719 15.6 5.90625V4.59375C15.6 4.23281 15.8925 3.9375 16.25 3.9375ZM20.8 4.59375C20.8 4.23281 21.0925 3.9375 21.45 3.9375H22.75C23.1075 3.9375 23.4 4.23281 23.4 4.59375V5.90625C23.4 6.26719 23.1075 6.5625 22.75 6.5625H21.45C21.0925 6.5625 20.8 6.26719 20.8 5.90625V4.59375ZM0 11.3654V19.0312C0 20.1182 0.873437 21 1.95 21H13.65C14.7266 21 15.6 20.1182 15.6 19.0312V11.3654C15.6 10.8117 15.3725 10.2867 14.9662 9.91348L9.11625 4.49941C8.36875 3.81035 7.22719 3.81035 6.47969 4.49941L0.629687 9.91348C0.2275 10.2867 0 10.8158 0 11.3654ZM5.85 12.1406C5.85 11.5951 6.28469 11.1562 6.825 11.1562H8.775C9.31531 11.1562 9.75 11.5951 9.75 12.1406V14.1094C9.75 14.6549 9.31531 15.0938 8.775 15.0938H6.825C6.28469 15.0938 5.85 14.6549 5.85 14.1094V12.1406Z" fill="white"/>
</g>
<defs>
<clipPath id="clip0_541_783">
<rect width="26" height="21" fill="white"/>
</clipPath>
</defs>
</svg>
