<svg width="19" height="19" viewBox="0 0 19 19" fill="none" xmlns="http://www.w3.org/2000/svg">
<circle cx="9.5" cy="9.5" r="9.5" fill="#E3982A"/>
<g clip-path="url(#clip0_2_5229)">
<path d="M9.55 9.5C10.2396 9.5 10.9009 9.21027 11.3885 8.69454C11.8761 8.17882 12.15 7.47935 12.15 6.75C12.15 6.02065 11.8761 5.32118 11.3885 4.80546C10.9009 4.28973 10.2396 4 9.55 4C8.86044 4 8.19912 4.28973 7.71152 4.80546C7.22393 5.32118 6.95 6.02065 6.95 6.75C6.95 7.47935 7.22393 8.17882 7.71152 8.69454C8.19912 9.21027 8.86044 9.5 9.55 9.5ZM8.62172 10.5312C6.62094 10.5312 5 12.2457 5 14.3619C5 14.7143 5.27016 15 5.60328 15H11.5569C11.4939 14.8109 11.4817 14.6047 11.5284 14.4027L11.8331 13.1115C11.89 12.8688 12.0078 12.6496 12.1744 12.4734L12.993 11.6076C12.3409 10.9416 11.4553 10.5312 10.4762 10.5312H8.62172ZM17.4678 9.06387C17.1509 8.72871 16.637 8.72871 16.3181 9.06387L15.7209 9.69551L17.1631 11.2209L17.7603 10.5893C18.0772 10.2541 18.0772 9.71055 17.7603 9.37324L17.4678 9.06387ZM12.6355 12.959C12.5522 13.0471 12.4933 13.1566 12.4648 13.2791L12.1602 14.5703C12.1317 14.6885 12.1642 14.8109 12.2455 14.8969C12.3267 14.9828 12.4425 15.0172 12.5542 14.9871L13.775 14.6648C13.8888 14.6348 13.9944 14.5725 14.0777 14.4844L16.702 11.7064L15.2598 10.1811L12.6355 12.959Z" fill="#2A3649"/>
</g>
<defs>
<clipPath id="clip0_2_5229">
<rect width="13" height="11" fill="white" transform="translate(5 4)"/>
</clipPath>
</defs>
</svg>
