<svg width="10" height="8" viewBox="0 0 10 8" fill="none" xmlns="http://www.w3.org/2000/svg">
<g clip-path="url(#clip0_2599_2171)">
<path d="M5.75 0C5.33594 0 5 0.335938 5 0.75V2.40469L6 3.32188V3.25C6 3.1125 6.1125 3 6.25 3H6.75C6.8875 3 7 3.1125 7 3.25V3.75C7 3.8875 6.8875 4 6.75 4H6.45625C6.48594 4.10625 6.5 4.21719 6.5 4.32969V4.5H6.75C6.8875 4.5 7 4.6125 7 4.75V5.25C7 5.3875 6.8875 5.5 6.75 5.5H6.5V7.25C6.5 7.53125 6.40625 7.79063 6.25 8H9.25C9.66406 8 10 7.66406 10 7.25V0.75C10 0.335938 9.66406 0 9.25 0H5.75ZM8 3.25C8 3.1125 8.1125 3 8.25 3H8.75C8.8875 3 9 3.1125 9 3.25V3.75C9 3.8875 8.8875 4 8.75 4H8.25C8.1125 4 8 3.8875 8 3.75V3.25ZM8.25 4.5H8.75C8.8875 4.5 9 4.6125 9 4.75V5.25C9 5.3875 8.8875 5.5 8.75 5.5H8.25C8.1125 5.5 8 5.3875 8 5.25V4.75C8 4.6125 8.1125 4.5 8.25 4.5ZM6.25 1.5H6.75C6.8875 1.5 7 1.6125 7 1.75V2.25C7 2.3875 6.8875 2.5 6.75 2.5H6.25C6.1125 2.5 6 2.3875 6 2.25V1.75C6 1.6125 6.1125 1.5 6.25 1.5ZM8 1.75C8 1.6125 8.1125 1.5 8.25 1.5H8.75C8.8875 1.5 9 1.6125 9 1.75V2.25C9 2.3875 8.8875 2.5 8.75 2.5H8.25C8.1125 2.5 8 2.3875 8 2.25V1.75ZM0 4.32969V7.25C0 7.66406 0.335938 8 0.75 8H5.25C5.66406 8 6 7.66406 6 7.25V4.32969C6 4.11875 5.9125 3.91875 5.75625 3.77656L3.50625 1.71406C3.21875 1.45156 2.77969 1.45156 2.49219 1.71406L0.242188 3.77656C0.0875 3.91875 0 4.12031 0 4.32969ZM2.25 4.625C2.25 4.41719 2.41719 4.25 2.625 4.25H3.375C3.58281 4.25 3.75 4.41719 3.75 4.625V5.375C3.75 5.58281 3.58281 5.75 3.375 5.75H2.625C2.41719 5.75 2.25 5.58281 2.25 5.375V4.625Z" fill="white"/>
</g>
<defs>
<clipPath id="clip0_2599_2171">
<rect width="10" height="8" fill="white"/>
</clipPath>
</defs>
</svg>
