<svg width="30" height="26" viewBox="0 0 30 26" fill="none" xmlns="http://www.w3.org/2000/svg">
<g clip-path="url(#clip0_2599_2123)">
<path d="M29.9896 12.9746C29.9896 13.8887 29.2083 14.6047 28.3229 14.6047H26.6562L26.6927 22.7398C26.7031 24.5426 25.2083 26.0051 23.3594 26.0051H6.67188C4.83333 26.0051 3.33854 24.5477 3.33854 22.7551V14.6047H1.66667C0.729167 14.6047 0 13.8937 0 12.9746C0 12.5176 0.15625 12.1113 0.520833 11.7559L13.875 0.40625C14.2396 0.0507812 14.6562 0 15.0208 0C15.3854 0 15.8021 0.101562 16.1146 0.355469L29.4167 11.7559C29.8333 12.1113 30.0417 12.5176 29.9896 12.9746Z" fill="#566D91"/>
</g>
<defs>
<clipPath id="clip0_2599_2123">
<rect width="30" height="26" fill="white"/>
</clipPath>
</defs>
</svg>
