<svg width="9" height="8" viewBox="0 0 9 8" fill="none" xmlns="http://www.w3.org/2000/svg">
<g clip-path="url(#clip0_2599_2169)">
<path d="M8.99687 3.99219C8.99687 4.27344 8.7625 4.49375 8.49687 4.49375H7.99687L8.00781 6.99687C8.01094 7.55156 7.5625 8.00156 7.00781 8.00156H2.00156C1.45 8.00156 1.00156 7.55312 1.00156 7.00156V4.49375H0.5C0.21875 4.49375 0 4.275 0 3.99219C0 3.85156 0.046875 3.72656 0.15625 3.61719L4.1625 0.125C4.27187 0.015625 4.39687 0 4.50625 0C4.61562 0 4.74062 0.03125 4.83437 0.109375L8.825 3.61719C8.95 3.72656 9.0125 3.85156 8.99687 3.99219Z" fill="white"/>
</g>
<defs>
<clipPath id="clip0_2599_2169">
<rect width="9" height="8" fill="white"/>
</clipPath>
</defs>
</svg>
