<svg width="9" height="8" viewBox="0 0 9 8" fill="none" xmlns="http://www.w3.org/2000/svg">
<g clip-path="url(#clip0_2599_2167)">
<path d="M8.99687 3.99219C8.99687 4.27344 8.7625 4.49375 8.49687 4.49375H7.99687L8.00781 6.99687C8.01094 7.55156 7.5625 8.00156 7.00781 8.00156H2.00156C1.45 8.00156 1.00156 7.55312 1.00156 7.00156V4.49375H0.5C0.21875 4.49375 0 4.275 0 3.99219C0 3.85156 0.046875 3.72656 0.15625 3.61719L4.1625 0.125C4.27187 0.015625 4.39687 0 4.50625 0C4.61562 0 4.74062 0.03125 4.83437 0.109375L8.825 3.61719C8.95 3.72656 9.0125 3.85156 8.99687 3.99219ZM5.5 3.5C5.5 3.23478 5.39464 2.98043 5.20711 2.79289C5.01957 2.60536 4.76522 2.5 4.5 2.5C4.23478 2.5 3.98043 2.60536 3.79289 2.79289C3.60536 2.98043 3.5 3.23478 3.5 3.5C3.5 3.76522 3.60536 4.01957 3.79289 4.20711C3.98043 4.39464 4.23478 4.5 4.5 4.5C4.76522 4.5 5.01957 4.39464 5.20711 4.20711C5.39464 4.01957 5.5 3.76522 5.5 3.5ZM4 5C3.30938 5 2.75 5.55937 2.75 6.25C2.75 6.3875 2.8625 6.5 3 6.5H6C6.1375 6.5 6.25 6.3875 6.25 6.25C6.25 5.55937 5.69063 5 5 5H4Z" fill="white"/>
</g>
<defs>
<clipPath id="clip0_2599_2167">
<rect width="9" height="8" fill="white"/>
</clipPath>
</defs>
</svg>
