<svg width="30" height="26" viewBox="0 0 30 26" fill="none" xmlns="http://www.w3.org/2000/svg">
<g clip-path="url(#clip0_2568_1702)">
<path d="M29.9896 12.9746C29.9896 13.8887 29.2083 14.6047 28.3229 14.6047H26.6562L26.6927 22.7398C26.7031 24.5426 25.2083 26.0051 23.3594 26.0051H6.67188C4.83333 26.0051 3.33854 24.5477 3.33854 22.7551V14.6047H1.66667C0.729167 14.6047 0 13.8937 0 12.9746C0 12.5176 0.15625 12.1113 0.520833 11.7559L13.875 0.40625C14.2396 0.0507812 14.6562 0 15.0208 0C15.3854 0 15.8021 0.101562 16.1146 0.355469L29.4167 11.7559C29.8333 12.1113 30.0417 12.5176 29.9896 12.9746ZM18.3333 11.375C18.3333 10.513 17.9821 9.6864 17.357 9.0769C16.7319 8.46741 15.8841 8.125 15 8.125C14.1159 8.125 13.2681 8.46741 12.643 9.0769C12.0179 9.6864 11.6667 10.513 11.6667 11.375C11.6667 12.237 12.0179 13.0636 12.643 13.6731C13.2681 14.2826 14.1159 14.625 15 14.625C15.8841 14.625 16.7319 14.2826 17.357 13.6731C17.9821 13.0636 18.3333 12.237 18.3333 11.375ZM13.3333 16.25C11.0313 16.25 9.16667 18.068 9.16667 20.3125C9.16667 20.7594 9.54167 21.125 10 21.125H20C20.4583 21.125 20.8333 20.7594 20.8333 20.3125C20.8333 18.068 18.9688 16.25 16.6667 16.25H13.3333Z" fill="#566D91"/>
</g>
<defs>
<clipPath id="clip0_2568_1702">
<rect width="30" height="26" fill="white"/>
</clipPath>
</defs>
</svg>
