<svg width="32" height="26" viewBox="0 0 32 26" fill="none" xmlns="http://www.w3.org/2000/svg">
<g clip-path="url(#clip0_2659_2136)">
<path d="M18.4 0C17.075 0 16 1.0918 16 2.4375V7.81523L19.2 10.7961V10.5625C19.2 10.1156 19.56 9.75 20 9.75H21.6C22.04 9.75 22.4 10.1156 22.4 10.5625V12.1875C22.4 12.6344 22.04 13 21.6 13H20.66C20.755 13.3453 20.8 13.7059 20.8 14.0715V14.625H21.6C22.04 14.625 22.4 14.9906 22.4 15.4375V17.0625C22.4 17.5094 22.04 17.875 21.6 17.875H20.8V23.5625C20.8 24.4766 20.5 25.3195 20 26H29.6C30.925 26 32 24.9082 32 23.5625V2.4375C32 1.0918 30.925 0 29.6 0H18.4ZM25.6 10.5625C25.6 10.1156 25.96 9.75 26.4 9.75H28C28.44 9.75 28.8 10.1156 28.8 10.5625V12.1875C28.8 12.6344 28.44 13 28 13H26.4C25.96 13 25.6 12.6344 25.6 12.1875V10.5625ZM26.4 14.625H28C28.44 14.625 28.8 14.9906 28.8 15.4375V17.0625C28.8 17.5094 28.44 17.875 28 17.875H26.4C25.96 17.875 25.6 17.5094 25.6 17.0625V15.4375C25.6 14.9906 25.96 14.625 26.4 14.625ZM20 4.875H21.6C22.04 4.875 22.4 5.24062 22.4 5.6875V7.3125C22.4 7.75938 22.04 8.125 21.6 8.125H20C19.56 8.125 19.2 7.75938 19.2 7.3125V5.6875C19.2 5.24062 19.56 4.875 20 4.875ZM25.6 5.6875C25.6 5.24062 25.96 4.875 26.4 4.875H28C28.44 4.875 28.8 5.24062 28.8 5.6875V7.3125C28.8 7.75938 28.44 8.125 28 8.125H26.4C25.96 8.125 25.6 7.75938 25.6 7.3125V5.6875ZM0 14.0715V23.5625C0 24.9082 1.075 26 2.4 26H16.8C18.125 26 19.2 24.9082 19.2 23.5625V14.0715C19.2 13.3859 18.92 12.7359 18.42 12.2738L11.22 5.5707C10.3 4.71758 8.895 4.71758 7.975 5.5707L0.775 12.2738C0.28 12.7359 0 13.391 0 14.0715ZM7.2 15.0312C7.2 14.3559 7.735 13.8125 8.4 13.8125H10.8C11.465 13.8125 12 14.3559 12 15.0312V17.4688C12 18.1441 11.465 18.6875 10.8 18.6875H8.4C7.735 18.6875 7.2 18.1441 7.2 17.4688V15.0312Z" fill="#E3982A"/>
</g>
<defs>
<clipPath id="clip0_2659_2136">
<rect width="32" height="26" fill="white"/>
</clipPath>
</defs>
</svg>
