<svg width="27" height="27" viewBox="0 0 27 27" fill="none" xmlns="http://www.w3.org/2000/svg">
<g filter="url(#filter0_d_2_5134)">
<circle cx="13.5" cy="9.5" r="9.5" fill="#E3982A"/>
</g>
<g clip-path="url(#clip0_2_5134)">
<path d="M16.3273 6.01868L19.1754 8.86682C19.3424 9.03381 19.4375 9.26343 19.4375 9.5C19.4375 9.73657 19.3424 9.96619 19.1754 10.1332L16.3273 12.9813C16.1788 13.1298 15.9794 13.2109 15.7706 13.2109C15.3369 13.2109 14.9844 12.8584 14.9844 12.4247V10.9844H12.0156C11.6051 10.9844 11.2734 10.6527 11.2734 10.2422V8.75781C11.2734 8.34729 11.6051 8.01562 12.0156 8.01562H14.9844V6.57532C14.9844 6.1416 15.3369 5.78906 15.7706 5.78906C15.9794 5.78906 16.1788 5.87256 16.3273 6.01868ZM11.2734 5.78906H9.78906C9.37854 5.78906 9.04688 6.12073 9.04688 6.53125V12.4688C9.04688 12.8793 9.37854 13.2109 9.78906 13.2109H11.2734C11.684 13.2109 12.0156 13.5426 12.0156 13.9531C12.0156 14.3636 11.684 14.6953 11.2734 14.6953H9.78906C8.55981 14.6953 7.5625 13.698 7.5625 12.4688V6.53125C7.5625 5.302 8.55981 4.30469 9.78906 4.30469H11.2734C11.684 4.30469 12.0156 4.63635 12.0156 5.04688C12.0156 5.4574 11.684 5.78906 11.2734 5.78906Z" fill="#2A3649"/>
</g>
<defs>
<filter id="filter0_d_2_5134" x="0" y="0" width="27" height="27" filterUnits="userSpaceOnUse" color-interpolation-filters="sRGB">
<feFlood flood-opacity="0" result="BackgroundImageFix"/>
<feColorMatrix in="SourceAlpha" type="matrix" values="0 0 0 0 0 0 0 0 0 0 0 0 0 0 0 0 0 0 127 0" result="hardAlpha"/>
<feOffset dy="4"/>
<feGaussianBlur stdDeviation="2"/>
<feComposite in2="hardAlpha" operator="out"/>
<feColorMatrix type="matrix" values="0 0 0 0 0 0 0 0 0 0 0 0 0 0 0 0 0 0 0.25 0"/>
<feBlend mode="normal" in2="BackgroundImageFix" result="effect1_dropShadow_2_5134"/>
<feBlend mode="normal" in="SourceGraphic" in2="effect1_dropShadow_2_5134" result="shape"/>
</filter>
<clipPath id="clip0_2_5134">
<rect width="11.875" height="11.875" fill="white" transform="translate(7.5625 3.5625)"/>
</clipPath>
</defs>
</svg>
