<svg width="24" height="24" viewBox="0 0 24 24" fill="none" xmlns="http://www.w3.org/2000/svg">
<circle cx="12" cy="12" r="11.5" fill="white" stroke="#D0301F"/>
<path d="M11.9994 6C11.5253 6 11.1423 6.39102 11.1423 6.875V7.4C9.18695 7.80469 7.71375 9.57109 7.71375 11.6875V12.2016C7.71375 13.4867 7.25036 14.7281 6.41466 15.6906L6.21645 15.9176C5.99145 16.1746 5.93788 16.5438 6.07449 16.8582C6.21109 17.1727 6.51912 17.375 6.85662 17.375H17.1422C17.4797 17.375 17.785 17.1727 17.9243 16.8582C18.0636 16.5438 18.0074 16.1746 17.7824 15.9176L17.5842 15.6906C16.7485 14.7281 16.2851 13.4895 16.2851 12.2016V11.6875C16.2851 9.57109 14.8119 7.80469 12.8565 7.4V6.875C12.8565 6.39102 12.4735 6 11.9994 6ZM13.2128 19.4887C13.5342 19.1605 13.7137 18.7148 13.7137 18.25H11.9994H10.2851C10.2851 18.7148 10.4646 19.1605 10.786 19.4887C11.1075 19.8168 11.5441 20 11.9994 20C12.4548 20 12.8914 19.8168 13.2128 19.4887Z" fill="#D0301F"/>
</svg>
