<svg width="24" height="24" viewBox="0 0 24 24" fill="none" xmlns="http://www.w3.org/2000/svg">
<path d="M22.8571 11.7621C22.8571 17.9854 17.849 23.0242 11.6786 23.0242C5.50817 23.0242 0.5 17.9854 0.5 11.7621C0.5 5.53885 5.50817 0.5 11.6786 0.5C17.849 0.5 22.8571 5.53885 22.8571 11.7621Z" fill="white" stroke="#F08F00"/>
<path d="M11.9191 4.94043C11.445 4.94043 11.0619 5.33145 11.0619 5.81543V6.34043C9.10659 6.74512 7.6334 8.51152 7.6334 10.6279V11.142C7.6334 12.4271 7.17001 13.6686 6.33431 14.6311L6.1361 14.858C5.9111 15.115 5.85753 15.4842 5.99413 15.7986C6.13074 16.1131 6.43877 16.3154 6.77627 16.3154H17.0618C17.3993 16.3154 17.7047 16.1131 17.844 15.7986C17.9833 15.4842 17.927 15.115 17.702 14.858L17.5038 14.6311C16.6681 13.6686 16.2047 12.4299 16.2047 11.142V10.6279C16.2047 8.51152 14.7315 6.74512 12.7762 6.34043V5.81543C12.7762 5.33145 12.3932 4.94043 11.9191 4.94043ZM13.1324 18.4291C13.4539 18.101 13.6333 17.6553 13.6333 17.1904H11.9191H10.2048C10.2048 17.6553 10.3843 18.101 10.7057 18.4291C11.0271 18.7572 11.4637 18.9404 11.9191 18.9404C12.3744 18.9404 12.811 18.7572 13.1324 18.4291Z" fill="#F08F00"/>
</svg>
