<svg width="43" height="43" viewBox="0 0 43 43" fill="none" xmlns="http://www.w3.org/2000/svg">
<g filter="url(#filter0_d_2_5143)">
<circle cx="21.5" cy="17.5" r="17.5" fill="#E3982A"/>
</g>
<g clip-path="url(#clip0_2_5143)">
<path d="M21.4994 9C20.9067 9 20.4279 9.44687 20.4279 10V10.6C17.9837 11.0625 16.1422 13.0813 16.1422 15.5V16.0875C16.1422 17.5562 15.563 18.975 14.5183 20.075L14.2706 20.3344C13.9893 20.6281 13.9224 21.05 14.0931 21.4094C14.2639 21.7688 14.6489 22 15.0708 22H27.9279C28.3498 22 28.7315 21.7688 28.9056 21.4094C29.0797 21.05 29.0094 20.6281 28.7282 20.3344L28.4804 20.075C27.4357 18.975 26.8565 17.5594 26.8565 16.0875V15.5C26.8565 13.0813 25.015 11.0625 22.5708 10.6V10C22.5708 9.44687 22.092 9 21.4994 9ZM23.0161 24.4156C23.4179 24.0406 23.6422 23.5312 23.6422 23H21.4994H19.3565C19.3565 23.5312 19.5808 24.0406 19.9826 24.4156C20.3844 24.7906 20.9302 25 21.4994 25C22.0686 25 22.6143 24.7906 23.0161 24.4156Z" fill="#2A3649"/>
</g>
<defs>
<filter id="filter0_d_2_5143" x="0" y="0" width="43" height="43" filterUnits="userSpaceOnUse" color-interpolation-filters="sRGB">
<feFlood flood-opacity="0" result="BackgroundImageFix"/>
<feColorMatrix in="SourceAlpha" type="matrix" values="0 0 0 0 0 0 0 0 0 0 0 0 0 0 0 0 0 0 127 0" result="hardAlpha"/>
<feOffset dy="4"/>
<feGaussianBlur stdDeviation="2"/>
<feComposite in2="hardAlpha" operator="out"/>
<feColorMatrix type="matrix" values="0 0 0 0 0 0 0 0 0 0 0 0 0 0 0 0 0 0 0.25 0"/>
<feBlend mode="normal" in2="BackgroundImageFix" result="effect1_dropShadow_2_5143"/>
<feBlend mode="normal" in="SourceGraphic" in2="effect1_dropShadow_2_5143" result="shape"/>
</filter>
<clipPath id="clip0_2_5143">
<path d="M14 14C14 11.2386 16.2386 9 19 9H24C26.7614 9 29 11.2386 29 14V25H14V14Z" fill="white"/>
</clipPath>
</defs>
</svg>
