<svg width="15" height="15" viewBox="0 0 15 15" fill="none" xmlns="http://www.w3.org/2000/svg">
<g clip-path="url(#clip0_541_808)">
<path d="M8.20312 0.703125C8.20312 0.313477 7.88965 0 7.5 0C7.11035 0 6.79688 0.313477 6.79688 0.703125V7.73438C6.79688 8.12402 7.11035 8.4375 7.5 8.4375C7.88965 8.4375 8.20312 8.12402 8.20312 7.73438V0.703125ZM3.93164 3.14355C4.24512 2.91211 4.30957 2.47266 4.08105 2.15918C3.85254 1.8457 3.41016 1.78125 3.09668 2.00977C1.3623 3.29004 0.234375 5.35254 0.234375 7.67578C0.234375 11.5605 3.38379 14.707 7.26562 14.707C11.1475 14.707 14.2969 11.5576 14.2969 7.67578C14.2969 5.35254 13.1689 3.29004 11.4316 2.0127C11.1182 1.78125 10.6787 1.84863 10.4473 2.16211C10.2158 2.47559 10.2832 2.91504 10.5967 3.14648C11.9883 4.17188 12.8877 5.81836 12.8877 7.67871C12.8877 10.7842 10.3682 13.3037 7.2627 13.3037C4.15723 13.3037 1.64062 10.7812 1.64062 7.67578C1.64062 5.81836 2.54004 4.16895 3.93164 3.14355Z" fill="white"/>
</g>
<defs>
<clipPath id="clip0_541_808">
<rect width="15" height="15" fill="white"/>
</clipPath>
</defs>
</svg>
