<svg width="109" height="107" viewBox="0 0 109 107" fill="none" xmlns="http://www.w3.org/2000/svg">
<g filter="url(#filter0_d_118_3252)">
<ellipse cx="54.0337" cy="49.5" rx="48.0337" ry="47.5" fill="white"/>
</g>
<g clip-path="url(#clip0_118_3252)">
<path d="M45.9279 23.6719C45.9279 22.1912 44.7233 21 43.226 21C41.7287 21 40.5241 22.1912 40.5241 23.6719V28.125H39.6235C35.6495 28.125 32.4184 31.3201 32.4184 35.25V36.1406H27.9153C26.418 36.1406 25.2134 37.3318 25.2134 38.8125C25.2134 40.2932 26.418 41.4844 27.9153 41.4844H32.4184V46.8281H27.9153C26.418 46.8281 25.2134 48.0193 25.2134 49.5C25.2134 50.9807 26.418 52.1719 27.9153 52.1719H32.4184V57.5156H27.9153C26.418 57.5156 25.2134 58.7068 25.2134 60.1875C25.2134 61.6682 26.418 62.8594 27.9153 62.8594H32.4184V63.75C32.4184 67.6799 35.6495 70.875 39.6235 70.875H40.5241V75.3281C40.5241 76.8088 41.7287 78 43.226 78C44.7233 78 45.9279 76.8088 45.9279 75.3281V70.875H51.3317V75.3281C51.3317 76.8088 52.5363 78 54.0336 78C55.5309 78 56.7355 76.8088 56.7355 75.3281V70.875H62.1393V75.3281C62.1393 76.8088 63.3439 78 64.8412 78C66.3385 78 67.5431 76.8088 67.5431 75.3281V70.875H68.4437C72.4178 70.875 75.6488 67.6799 75.6488 63.75V62.8594H80.1519C81.6492 62.8594 82.8538 61.6682 82.8538 60.1875C82.8538 58.7068 81.6492 57.5156 80.1519 57.5156H75.6488V52.1719H80.1519C81.6492 52.1719 82.8538 50.9807 82.8538 49.5C82.8538 48.0193 81.6492 46.8281 80.1519 46.8281H75.6488V41.4844H80.1519C81.6492 41.4844 82.8538 40.2932 82.8538 38.8125C82.8538 37.3318 81.6492 36.1406 80.1519 36.1406H75.6488V35.25C75.6488 31.3201 72.4178 28.125 68.4437 28.125H67.5431V23.6719C67.5431 22.1912 66.3385 21 64.8412 21C63.3439 21 62.1393 22.1912 62.1393 23.6719V28.125H56.7355V23.6719C56.7355 22.1912 55.5309 21 54.0336 21C52.5363 21 51.3317 22.1912 51.3317 23.6719V28.125H45.9279V23.6719ZM70.245 35.25V63.75C70.245 64.7297 69.4344 65.5312 68.4437 65.5312H39.6235C38.6328 65.5312 37.8222 64.7297 37.8222 63.75V35.25C37.8222 34.2703 38.6328 33.4688 39.6235 33.4688H68.4437C69.4344 33.4688 70.245 34.2703 70.245 35.25ZM46.8285 38.8125C44.8359 38.8125 43.226 40.4045 43.226 42.375V56.625C43.226 58.5955 44.8359 60.1875 46.8285 60.1875H61.2387C63.2313 60.1875 64.8412 58.5955 64.8412 56.625V42.375C64.8412 40.4045 63.2313 38.8125 61.2387 38.8125H46.8285ZM48.6298 44.1562H59.4374V54.8438H48.6298V44.1562Z" fill="#2A3649"/>
</g>
<defs>
<filter id="filter0_d_118_3252" x="0" y="0" width="108.067" height="107" filterUnits="userSpaceOnUse" color-interpolation-filters="sRGB">
<feFlood flood-opacity="0" result="BackgroundImageFix"/>
<feColorMatrix in="SourceAlpha" type="matrix" values="0 0 0 0 0 0 0 0 0 0 0 0 0 0 0 0 0 0 127 0" result="hardAlpha"/>
<feMorphology radius="1" operator="dilate" in="SourceAlpha" result="effect1_dropShadow_118_3252"/>
<feOffset dy="4"/>
<feGaussianBlur stdDeviation="2.5"/>
<feComposite in2="hardAlpha" operator="out"/>
<feColorMatrix type="matrix" values="0 0 0 0 0 0 0 0 0 0 0 0 0 0 0 0 0 0 0.1 0"/>
<feBlend mode="normal" in2="BackgroundImageFix" result="effect1_dropShadow_118_3252"/>
<feBlend mode="normal" in="SourceGraphic" in2="effect1_dropShadow_118_3252" result="shape"/>
</filter>
<clipPath id="clip0_118_3252">
<rect width="57.6404" height="57" fill="white" transform="translate(25.2134 21)"/>
</clipPath>
</defs>
</svg>
