<svg width="21" height="21" viewBox="0 0 21 21" fill="none" xmlns="http://www.w3.org/2000/svg">
<g clip-path="url(#clip0_1339_1572)">
<path d="M13.4531 0.984375C13.4531 0.438867 13.892 0 14.4375 0C14.983 0 15.4219 0.438867 15.4219 0.984375V2.625H15.75C17.1979 2.625 18.375 3.80215 18.375 5.25V5.57812H20.0156C20.5611 5.57812 21 6.01699 21 6.5625C21 7.10801 20.5611 7.54688 20.0156 7.54688H18.375V9.51562H20.0156C20.5611 9.51562 21 9.95449 21 10.5C21 11.0455 20.5611 11.4844 20.0156 11.4844H18.375V13.4531H20.0156C20.5611 13.4531 21 13.892 21 14.4375C21 14.983 20.5611 15.4219 20.0156 15.4219H18.375V15.75C18.375 17.1979 17.1979 18.375 15.75 18.375H15.4219V20.0156C15.4219 20.5611 14.983 21 14.4375 21C13.892 21 13.4531 20.5611 13.4531 20.0156V18.375H11.4844V20.0156C11.4844 20.5611 11.0455 21 10.5 21C9.95449 21 9.51562 20.5611 9.51562 20.0156V18.375H7.54688V20.0156C7.54688 20.5611 7.10801 21 6.5625 21C6.01699 21 5.57812 20.5611 5.57812 20.0156V18.375H5.25C3.80215 18.375 2.625 17.1979 2.625 15.75V15.4219H0.984375C0.438867 15.4219 0 14.983 0 14.4375C0 13.892 0.438867 13.4531 0.984375 13.4531H2.625V11.4844H0.984375C0.438867 11.4844 0 11.0455 0 10.5C0 9.95449 0.438867 9.51562 0.984375 9.51562H2.625V7.54688H0.984375C0.438867 7.54688 0 7.10801 0 6.5625C0 6.01699 0.438867 5.57812 0.984375 5.57812H2.625V5.25C2.625 3.80215 3.80215 2.625 5.25 2.625H5.57812V0.984375C5.57812 0.438867 6.01699 0 6.5625 0C7.10801 0 7.54688 0.438867 7.54688 0.984375V2.625H9.51562V0.984375C9.51562 0.438867 9.95449 0 10.5 0C11.0455 0 11.4844 0.438867 11.4844 0.984375V2.625H13.4531V0.984375ZM4.59375 5.25V15.75C4.59375 16.1109 4.88906 16.4062 5.25 16.4062H15.75C16.1109 16.4062 16.4062 16.1109 16.4062 15.75V5.25C16.4062 4.88906 16.1109 4.59375 15.75 4.59375H5.25C4.88906 4.59375 4.59375 4.88906 4.59375 5.25ZM13.125 6.5625C13.851 6.5625 14.4375 7.14902 14.4375 7.875V13.125C14.4375 13.851 13.851 14.4375 13.125 14.4375H7.875C7.14902 14.4375 6.5625 13.851 6.5625 13.125V7.875C6.5625 7.14902 7.14902 6.5625 7.875 6.5625H13.125ZM12.4688 8.53125H8.53125V12.4688H12.4688V8.53125Z" fill="#E3982A"/>
</g>
<defs>
<clipPath id="clip0_1339_1572">
<rect width="21" height="21" fill="white" transform="matrix(-1 0 0 1 21 0)"/>
</clipPath>
</defs>
</svg>
