<svg width="13" height="13" viewBox="0 0 13 13" fill="none" xmlns="http://www.w3.org/2000/svg">
<g clip-path="url(#clip0_2687_4182)">
<path d="M9.5418 6.98758C9.12539 6.80985 8.64297 6.92664 8.35605 7.27703L7.51309 8.30789C6.34512 7.62996 5.37012 6.65496 4.69219 5.48699L5.72051 4.64656C6.0709 4.35965 6.19023 3.87723 6.00996 3.46082L4.79121 0.617073C4.60078 0.170198 4.1209 -0.0786303 3.64609 0.0229322L0.802344 0.632307C0.335156 0.731331 0 1.1452 0 1.62508C0 7.49539 4.44844 12.3298 10.1588 12.9366C10.4076 12.962 10.6564 12.9823 10.9104 12.9925H10.9129C11.0678 12.9975 11.2201 13.0026 11.375 13.0026C11.8549 13.0026 12.2687 12.6675 12.3678 12.2003L12.9771 9.35652C13.0787 8.88172 12.8299 8.40184 12.383 8.21141L9.53926 6.99266L9.5418 6.98758ZM11.21 11.7813C5.7332 11.6925 1.30762 7.26688 1.22129 1.79012L3.74004 1.2493L4.83184 3.79852L3.92031 4.545C3.4582 4.92332 3.33887 5.58094 3.63848 6.09891C4.42305 7.45223 5.55039 8.57957 6.90371 9.36414C7.42168 9.66375 8.0793 9.54442 8.45762 9.08231L9.2041 8.17078L11.7533 9.26258L11.21 11.7813Z" fill="#566D91"/>
</g>
<defs>
<clipPath id="clip0_2687_4182">
<rect width="13" height="13" fill="white"/>
</clipPath>
</defs>
</svg>
