<svg width="18" height="20" viewBox="0 0 18 20" fill="none" xmlns="http://www.w3.org/2000/svg">
<g clip-path="url(#clip0_118_3811)">
<path d="M6.85045 2.01562L6.08705 3.125H11.9129L11.1496 2.01562C11.0893 1.92969 10.9888 1.875 10.8804 1.875H7.11563C7.00714 1.875 6.9067 1.92578 6.84643 2.01562H6.85045ZM12.7567 0.976562L14.2313 3.125H14.7857H16.7143H17.0357C17.5701 3.125 18 3.54297 18 4.0625C18 4.58203 17.5701 5 17.0357 5H16.7143V16.875C16.7143 18.6016 15.2759 20 13.5 20H4.5C2.72411 20 1.28571 18.6016 1.28571 16.875V5H0.964286C0.429911 5 0 4.58203 0 4.0625C0 3.54297 0.429911 3.125 0.964286 3.125H1.28571H3.21429H3.76875L5.2433 0.972656C5.66116 0.367188 6.36429 0 7.11563 0H10.8804C11.6317 0 12.3348 0.367188 12.7527 0.972656L12.7567 0.976562ZM3.21429 5V16.875C3.21429 17.5664 3.78884 18.125 4.5 18.125H13.5C14.2112 18.125 14.7857 17.5664 14.7857 16.875V5H3.21429ZM6.42857 7.5V15.625C6.42857 15.9688 6.13929 16.25 5.78571 16.25C5.43214 16.25 5.14286 15.9688 5.14286 15.625V7.5C5.14286 7.15625 5.43214 6.875 5.78571 6.875C6.13929 6.875 6.42857 7.15625 6.42857 7.5ZM9.64286 7.5V15.625C9.64286 15.9688 9.35357 16.25 9 16.25C8.64643 16.25 8.35714 15.9688 8.35714 15.625V7.5C8.35714 7.15625 8.64643 6.875 9 6.875C9.35357 6.875 9.64286 7.15625 9.64286 7.5ZM12.8571 7.5V15.625C12.8571 15.9688 12.5679 16.25 12.2143 16.25C11.8607 16.25 11.5714 15.9688 11.5714 15.625V7.5C11.5714 7.15625 11.8607 6.875 12.2143 6.875C12.5679 6.875 12.8571 7.15625 12.8571 7.5Z" fill="#AB1000"/>
</g>
<defs>
<clipPath id="clip0_118_3811">
<rect width="18" height="20" fill="white"/>
</clipPath>
</defs>
</svg>
