<svg width="107" height="107" viewBox="0 0 107 107" fill="none" xmlns="http://www.w3.org/2000/svg">
<g filter="url(#filter0_d_118_3252)">
<circle cx="53.5" cy="49.5" r="47.5" fill="white"/>
</g>
<g clip-path="url(#clip0_118_3252)">
<path d="M78.8694 53.0859C80.5222 53.0859 81.9806 51.7188 81.9806 49.9512C82.0778 49.0723 81.6889 48.291 80.9111 47.6074L75.7778 43.0664V31.25C75.7778 29.5215 74.3875 28.125 72.6667 28.125H69.5556C67.8347 28.125 66.4444 29.5215 66.4444 31.25V34.834L56.0903 25.6836C55.5069 25.1953 54.7292 25 54.0486 25C53.3681 25 52.5903 25.0977 51.9097 25.7812L26.9722 47.6074C26.2917 48.291 26 49.0723 26 49.9512C26 51.709 27.3611 53.0859 29.1111 53.0859H32.2222V59.8926C32.2125 59.9805 32.2125 60.0684 32.2125 60.166V71.0938C32.2125 73.252 33.9528 75 36.1014 75H37.6569C37.7736 75 37.8903 74.9902 38.0069 74.9805C38.1528 74.9902 38.2986 75 38.4444 75H41.5556H43.8889C46.0375 75 47.7778 73.252 47.7778 71.0938V68.75V62.5C47.7778 60.7715 49.1681 59.375 50.8889 59.375H57.1111C58.8319 59.375 60.2222 60.7715 60.2222 62.5V68.75V71.0938C60.2222 73.252 61.9625 75 64.1111 75H66.4444H69.6042C69.7403 75 69.8764 75 70.0125 74.9902C70.1194 75 70.2264 75 70.3333 75H71.8889C74.0375 75 75.7778 73.252 75.7778 71.0938V69.5117C75.8069 69.2578 75.8264 68.9941 75.8264 68.7207L75.7583 53.0762H78.8694V53.0859Z" fill="#2A3649"/>
</g>
<defs>
<filter id="filter0_d_118_3252" x="0" y="0" width="107" height="107" filterUnits="userSpaceOnUse" color-interpolation-filters="sRGB">
<feFlood flood-opacity="0" result="BackgroundImageFix"/>
<feColorMatrix in="SourceAlpha" type="matrix" values="0 0 0 0 0 0 0 0 0 0 0 0 0 0 0 0 0 0 127 0" result="hardAlpha"/>
<feMorphology radius="1" operator="dilate" in="SourceAlpha" result="effect1_dropShadow_118_3252"/>
<feOffset dy="4"/>
<feGaussianBlur stdDeviation="2.5"/>
<feComposite in2="hardAlpha" operator="out"/>
<feColorMatrix type="matrix" values="0 0 0 0 0 0 0 0 0 0 0 0 0 0 0 0 0 0 0.1 0"/>
<feBlend mode="normal" in2="BackgroundImageFix" result="effect1_dropShadow_118_3252"/>
<feBlend mode="normal" in="SourceGraphic" in2="effect1_dropShadow_118_3252" result="shape"/>
</filter>
<clipPath id="clip0_118_3252">
<rect width="56" height="50" fill="white" transform="translate(26 25)"/>
</clipPath>
</defs>
</svg>
