<svg width="105" height="105" viewBox="0 0 105 105" fill="none" xmlns="http://www.w3.org/2000/svg">
<g filter="url(#filter0_d_89_18)">
<circle cx="52.5" cy="48.5" r="47.5" fill="white"/>
</g>
<path d="M80.9802 48.9512C80.9802 50.709 79.4958 52.0859 77.8135 52.0859H74.6469L74.7162 67.7305C74.7359 71.1973 71.8958 74.0098 68.3828 74.0098H36.6766C33.1833 74.0098 30.3432 71.207 30.3432 67.7598V52.0859H27.1667C25.3854 52.0859 24 50.7188 24 48.9512C24 48.0723 24.2969 47.291 24.9896 46.6074L50.3625 24.7812C51.0552 24.0977 51.8469 24 52.5396 24C53.2323 24 54.024 24.1953 54.6177 24.6836L79.8917 46.6074C80.6833 47.291 81.0792 48.0723 80.9802 48.9512ZM58.8333 45.875C58.8333 44.2174 58.1661 42.6277 56.9783 41.4556C55.7906 40.2835 54.1797 39.625 52.5 39.625C50.8203 39.625 49.2094 40.2835 48.0217 41.4556C46.8339 42.6277 46.1667 44.2174 46.1667 45.875C46.1667 47.5326 46.8339 49.1223 48.0217 50.2944C49.2094 51.4665 50.8203 52.125 52.5 52.125C54.1797 52.125 55.7906 51.4665 56.9783 50.2944C58.1661 49.1223 58.8333 47.5326 58.8333 45.875ZM49.3333 55.25C44.9594 55.25 41.4167 58.7461 41.4167 63.0625C41.4167 63.9219 42.1292 64.625 43 64.625H62C62.8708 64.625 63.5833 63.9219 63.5833 63.0625C63.5833 58.7461 60.0406 55.25 55.6667 55.25H49.3333Z" fill="#2A3649"/>
<defs>
<filter id="filter0_d_89_18" x="0" y="0" width="105" height="105" filterUnits="userSpaceOnUse" color-interpolation-filters="sRGB">
<feFlood flood-opacity="0" result="BackgroundImageFix"/>
<feColorMatrix in="SourceAlpha" type="matrix" values="0 0 0 0 0 0 0 0 0 0 0 0 0 0 0 0 0 0 127 0" result="hardAlpha"/>
<feMorphology radius="1" operator="dilate" in="SourceAlpha" result="effect1_dropShadow_89_18"/>
<feOffset dy="4"/>
<feGaussianBlur stdDeviation="2"/>
<feComposite in2="hardAlpha" operator="out"/>
<feColorMatrix type="matrix" values="0 0 0 0 0 0 0 0 0 0 0 0 0 0 0 0 0 0 0.25 0"/>
<feBlend mode="normal" in2="BackgroundImageFix" result="effect1_dropShadow_89_18"/>
<feBlend mode="normal" in="SourceGraphic" in2="effect1_dropShadow_89_18" result="shape"/>
</filter>
</defs>
</svg>
