<svg width="28" height="22" viewBox="0 0 28 22" fill="none" xmlns="http://www.w3.org/2000/svg">
<path d="M2.8 4.8125H22.4C22.785 4.8125 23.1 5.12187 23.1 5.5V9.43594L23.3887 9.15234C23.8962 8.65391 24.5394 8.35742 25.2 8.27148V5.5C25.2 3.9832 23.9444 2.75 22.4 2.75H2.8C1.25563 2.75 0 3.9832 0 5.5V16.5C0 18.0168 1.25563 19.25 2.8 19.25H14.4594L14.7219 18.223C14.8181 17.8449 14.9931 17.4926 15.2381 17.1875H2.8C2.415 17.1875 2.1 16.8781 2.1 16.5V5.5C2.1 5.12187 2.415 4.8125 2.8 4.8125ZM5.25 11.6875C4.66812 11.6875 4.2 12.1473 4.2 12.7188C4.2 13.2902 4.66812 13.75 5.25 13.75H14.35C14.9319 13.75 15.4 13.2902 15.4 12.7188C15.4 12.1473 14.9319 11.6875 14.35 11.6875H5.25ZM4.2 8.59375C4.2 9.16523 4.66812 9.625 5.25 9.625H18.55C19.1319 9.625 19.6 9.16523 19.6 8.59375C19.6 8.02227 19.1319 7.5625 18.55 7.5625H5.25C4.66812 7.5625 4.2 8.02227 4.2 8.59375ZM26.8537 10.1277C26.1712 9.45742 25.0644 9.45742 24.3775 10.1277L23.0912 11.391L26.1975 14.4418L27.4838 13.1785C28.1663 12.5082 28.1663 11.4211 27.4838 10.7465L26.8537 10.1277ZM16.4456 17.918C16.2662 18.0941 16.1394 18.3133 16.0781 18.5582L15.4219 21.1406C15.3606 21.377 15.4306 21.6219 15.6056 21.7938C15.7806 21.9656 16.03 22.0344 16.2706 21.9742L18.9 21.3297C19.145 21.2695 19.3725 21.1449 19.5519 20.9688L25.2044 15.4129L22.0981 12.3621L16.4456 17.918Z" fill="#E3982A"/>
</svg>
