<svg width="30" height="30" viewBox="0 0 30 30" fill="none" xmlns="http://www.w3.org/2000/svg">
<g clip-path="url(#clip0_2599_2147)">
<path d="M27.1875 15C27.1875 11.7677 25.9035 8.66774 23.6179 6.38214C21.3323 4.09654 18.2323 2.8125 15 2.8125C11.7677 2.8125 8.66774 4.09654 6.38214 6.38214C4.09654 8.66774 2.8125 11.7677 2.8125 15C2.8125 18.2323 4.09654 21.3323 6.38214 23.6179C8.66774 25.9035 11.7677 27.1875 15 27.1875C18.2323 27.1875 21.3323 25.9035 23.6179 23.6179C25.9035 21.3323 27.1875 18.2323 27.1875 15ZM0 15C0 11.0218 1.58035 7.20644 4.3934 4.3934C7.20644 1.58035 11.0218 0 15 0C18.9782 0 22.7936 1.58035 25.6066 4.3934C28.4196 7.20644 30 11.0218 30 15C30 18.9782 28.4196 22.7936 25.6066 25.6066C22.7936 28.4196 18.9782 30 15 30C11.0218 30 7.20644 28.4196 4.3934 25.6066C1.58035 22.7936 0 18.9782 0 15ZM9.375 7.5H11.8008L12.4629 6.83789C12.6387 6.66211 12.8789 6.5625 13.125 6.5625H16.875C17.1211 6.5625 17.3613 6.66211 17.5371 6.83789L18.1992 7.5H20.625C21.1406 7.5 21.5625 7.92188 21.5625 8.4375C21.5625 8.95312 21.1406 9.375 20.625 9.375H9.375C8.85938 9.375 8.4375 8.95312 8.4375 8.4375C8.4375 7.92188 8.85938 7.5 9.375 7.5ZM9.375 11.25H20.625L19.8281 20.7832C19.7461 21.7559 18.9375 22.5 17.959 22.5H12.0352C11.0625 22.5 10.248 21.75 10.166 20.7832L9.375 11.25Z" fill="white"/>
</g>
<defs>
<clipPath id="clip0_2599_2147">
<rect width="30" height="30" fill="white"/>
</clipPath>
</defs>
</svg>
