<svg width="34" height="30" viewBox="0 0 34 30" fill="none" xmlns="http://www.w3.org/2000/svg">
<circle cx="16" cy="15" r="12" fill="#19A752"/>
<circle cx="15.0787" cy="17.8795" r="2.36" stroke="white" stroke-width="2"/>
<path d="M20.1834 12.2661C20.5284 11.8348 20.4585 11.2055 20.0272 10.8605C19.5959 10.5155 18.9666 10.5854 18.6216 11.0167L20.1834 12.2661ZM16.3434 17.0661L20.1834 12.2661L18.6216 11.0167L14.7816 15.8167L16.3434 17.0661Z" fill="white"/>
<path d="M18.6904 14.2687C19.0809 14.6592 19.7141 14.6592 20.1046 14.2687C20.4951 13.8781 20.4951 13.245 20.1046 12.8545L18.6904 14.2687ZM17.7304 13.3087L18.6904 14.2687L20.1046 12.8545L19.1446 11.8945L17.7304 13.3087Z" fill="white"/>
</svg>
