<svg width="34" height="30" viewBox="0 0 34 30" fill="none" xmlns="http://www.w3.org/2000/svg">
<path d="M1.5 14.2084C1.5 9.95313 4.64844 6.5 8.52828 6.5C10.3931 6.5 12.1805 7.31281 13.498 8.75781L17 12.5934L20.4972 8.75781C21.8195 7.31281 23.6069 6.5 25.4717 6.5C29.3516 6.5 32.5 9.95313 32.5 14.2084V15.7862C32.5 20.0469 29.3516 23.5 25.4717 23.5C23.6069 23.5 21.8195 22.6872 20.502 21.2422L17 17.4066L13.5028 21.2422C12.1805 22.6872 10.3931 23.5 8.52828 23.5C4.64844 23.5 1.5 20.0469 1.5 15.7916V14.2084ZM14.8058 15L11.3086 11.1644C10.5723 10.3569 9.56969 9.9 8.52828 9.9C6.35828 9.9 4.6 11.8284 4.6 14.2084V15.7862C4.6 18.1662 6.35828 20.0947 8.52828 20.0947C9.56969 20.0947 10.5723 19.6431 11.3086 18.8303L14.8058 15ZM19.1894 15L22.6866 18.8356C23.4228 19.6431 24.4255 20.1 25.4669 20.1C27.6369 20.1 29.3952 18.1716 29.3952 15.7916V14.2084C29.3952 11.8284 27.6369 9.9 25.4669 9.9C24.4255 9.9 23.4228 10.3516 22.6866 11.1644L19.1942 15H19.1894Z" fill="#566D91"/>
</svg>
