<svg width="78" height="78" viewBox="0 0 78 78" fill="none" xmlns="http://www.w3.org/2000/svg">
<g filter="url(#filter0_di_3059_988)">
<circle cx="39" cy="35" r="35" fill="url(#paint0_linear_3059_988)"/>
</g>
<g filter="url(#filter1_di_3059_988)">
<path d="M67 35C67 50.464 54.464 63 39 63C23.536 63 11 50.464 11 35C11 19.536 23.536 7 39 7C54.464 7 67 19.536 67 35ZM20.0005 35C20.0005 45.4931 28.5069 53.9995 39 53.9995C49.4931 53.9995 57.9995 45.4931 57.9995 35C57.9995 24.5069 49.4931 16.0005 39 16.0005C28.5069 16.0005 20.0005 24.5069 20.0005 35Z" fill="white"/>
</g>
<g filter="url(#filter2_d_3059_988)">
<path d="M33.8941 30.7787C35.2754 30.7787 36.4747 31.278 37.4921 32.2767C38.5094 33.2753 39.0181 34.5167 39.0181 36.0007C39.0181 37.4753 38.5327 38.7353 37.5621 39.7807C36.5914 40.8167 35.3967 41.3347 33.9781 41.3347C32.5594 41.3347 31.3507 40.8213 30.3521 39.7947C29.3627 38.768 28.8681 37.5453 28.8681 36.1267C28.8681 35.352 29.0081 34.6287 29.2881 33.9567C29.5681 33.2753 29.9414 32.706 30.4081 32.2487C30.8747 31.7913 31.4114 31.432 32.0181 31.1707C32.6247 30.9093 33.2501 30.7787 33.8941 30.7787ZM31.3461 36.0567C31.3461 36.8873 31.6121 37.564 32.1441 38.0867C32.6854 38.6 33.2874 38.8567 33.9501 38.8567C34.6127 38.8567 35.2101 38.6047 35.7421 38.1007C36.2741 37.5967 36.5401 36.92 36.5401 36.0707C36.5401 35.2213 36.2694 34.54 35.7281 34.0267C35.1961 33.5133 34.5987 33.2567 33.9361 33.2567C33.2734 33.2567 32.6761 33.518 32.1441 34.0407C31.6121 34.554 31.3461 35.226 31.3461 36.0567ZM44.3295 36.0147C45.7575 37.3867 46.7702 38.418 47.3675 39.1087C47.6755 39.454 47.8295 39.748 47.8295 39.9907C47.8295 40.224 47.6429 40.504 47.2695 40.8307C46.8962 41.148 46.5882 41.3067 46.3455 41.3067C46.1122 41.3067 45.8275 41.1107 45.4915 40.7187L42.4115 37.2047V39.9347C42.4115 40.1587 42.4022 40.322 42.3835 40.4247C42.3742 40.5273 42.3322 40.6487 42.2575 40.7887C42.1269 41.0407 41.7629 41.1667 41.1655 41.1667C40.5122 41.1667 40.1295 40.9893 40.0175 40.6347C39.9615 40.4853 39.9335 40.2473 39.9335 39.9207V32.1367C39.9335 31.922 39.9382 31.7633 39.9475 31.6607C39.9662 31.5487 40.0129 31.4227 40.0875 31.2827C40.2182 31.0307 40.5822 30.9047 41.1795 30.9047C41.8329 30.9047 42.2202 31.0773 42.3415 31.4227C42.3882 31.5813 42.4115 31.824 42.4115 32.1507V34.8247C43.6809 33.3967 44.7075 32.2253 45.4915 31.3107C45.8182 30.928 46.1029 30.7367 46.3455 30.7367C46.5882 30.7367 46.8962 30.9 47.2695 31.2267C47.6429 31.544 47.8295 31.824 47.8295 32.0667C47.8295 32.3 47.6895 32.58 47.4095 32.9067C46.8682 33.532 46.0282 34.3907 44.8895 35.4827L44.3295 36.0147Z" fill="white"/>
</g>
<defs>
<filter id="filter0_di_3059_988" x="0" y="0" width="78" height="78" filterUnits="userSpaceOnUse" color-interpolation-filters="sRGB">
<feFlood flood-opacity="0" result="BackgroundImageFix"/>
<feColorMatrix in="SourceAlpha" type="matrix" values="0 0 0 0 0 0 0 0 0 0 0 0 0 0 0 0 0 0 127 0" result="hardAlpha"/>
<feOffset dy="4"/>
<feGaussianBlur stdDeviation="2"/>
<feComposite in2="hardAlpha" operator="out"/>
<feColorMatrix type="matrix" values="0 0 0 0 0 0 0 0 0 0 0 0 0 0 0 0 0 0 0.25 0"/>
<feBlend mode="normal" in2="BackgroundImageFix" result="effect1_dropShadow_3059_988"/>
<feBlend mode="normal" in="SourceGraphic" in2="effect1_dropShadow_3059_988" result="shape"/>
<feColorMatrix in="SourceAlpha" type="matrix" values="0 0 0 0 0 0 0 0 0 0 0 0 0 0 0 0 0 0 127 0" result="hardAlpha"/>
<feOffset dy="4"/>
<feGaussianBlur stdDeviation="2"/>
<feComposite in2="hardAlpha" operator="arithmetic" k2="-1" k3="1"/>
<feColorMatrix type="matrix" values="0 0 0 0 0 0 0 0 0 0 0 0 0 0 0 0 0 0 0.25 0"/>
<feBlend mode="normal" in2="shape" result="effect2_innerShadow_3059_988"/>
</filter>
<filter id="filter1_di_3059_988" x="7" y="7" width="64" height="64" filterUnits="userSpaceOnUse" color-interpolation-filters="sRGB">
<feFlood flood-opacity="0" result="BackgroundImageFix"/>
<feColorMatrix in="SourceAlpha" type="matrix" values="0 0 0 0 0 0 0 0 0 0 0 0 0 0 0 0 0 0 127 0" result="hardAlpha"/>
<feOffset dy="4"/>
<feGaussianBlur stdDeviation="2"/>
<feComposite in2="hardAlpha" operator="out"/>
<feColorMatrix type="matrix" values="0 0 0 0 0 0 0 0 0 0 0 0 0 0 0 0 0 0 0.25 0"/>
<feBlend mode="normal" in2="BackgroundImageFix" result="effect1_dropShadow_3059_988"/>
<feBlend mode="normal" in="SourceGraphic" in2="effect1_dropShadow_3059_988" result="shape"/>
<feColorMatrix in="SourceAlpha" type="matrix" values="0 0 0 0 0 0 0 0 0 0 0 0 0 0 0 0 0 0 127 0" result="hardAlpha"/>
<feOffset dy="4"/>
<feGaussianBlur stdDeviation="2"/>
<feComposite in2="hardAlpha" operator="arithmetic" k2="-1" k3="1"/>
<feColorMatrix type="matrix" values="0 0 0 0 0 0 0 0 0 0 0 0 0 0 0 0 0 0 0.25 0"/>
<feBlend mode="normal" in2="shape" result="effect2_innerShadow_3059_988"/>
</filter>
<filter id="filter2_d_3059_988" x="24.8682" y="30.7367" width="26.9614" height="18.598" filterUnits="userSpaceOnUse" color-interpolation-filters="sRGB">
<feFlood flood-opacity="0" result="BackgroundImageFix"/>
<feColorMatrix in="SourceAlpha" type="matrix" values="0 0 0 0 0 0 0 0 0 0 0 0 0 0 0 0 0 0 127 0" result="hardAlpha"/>
<feOffset dy="4"/>
<feGaussianBlur stdDeviation="2"/>
<feComposite in2="hardAlpha" operator="out"/>
<feColorMatrix type="matrix" values="0 0 0 0 0 0 0 0 0 0 0 0 0 0 0 0 0 0 0.25 0"/>
<feBlend mode="normal" in2="BackgroundImageFix" result="effect1_dropShadow_3059_988"/>
<feBlend mode="normal" in="SourceGraphic" in2="effect1_dropShadow_3059_988" result="shape"/>
</filter>
<linearGradient id="paint0_linear_3059_988" x1="39" y1="0" x2="39" y2="70" gradientUnits="userSpaceOnUse">
<stop stop-color="#FFA623"/>
<stop offset="1" stop-color="#FA9500"/>
</linearGradient>
</defs>
</svg>
