<svg width="21" height="17" viewBox="0 0 21 17" fill="none" xmlns="http://www.w3.org/2000/svg">
<path d="M7.35 8.5C8.46391 8.5 9.5322 8.05223 10.3198 7.2552C11.1075 6.45817 11.55 5.37717 11.55 4.25C11.55 3.12283 11.1075 2.04183 10.3198 1.2448C9.5322 0.447767 8.46391 0 7.35 0C6.23609 0 5.1678 0.447767 4.38015 1.2448C3.5925 2.04183 3.15 3.12283 3.15 4.25C3.15 5.37717 3.5925 6.45817 4.38015 7.2552C5.1678 8.05223 6.23609 8.5 7.35 8.5ZM5.85047 10.0938C2.61844 10.0938 0 12.7434 0 16.0139C0 16.5584 0.436406 17 0.974531 17H10.5919C10.4902 16.7078 10.4705 16.3891 10.5459 16.077L11.0381 14.0814C11.13 13.7063 11.3203 13.3676 11.5894 13.0953L12.9117 11.7572C11.8584 10.7279 10.4278 10.0938 8.84625 10.0938H5.85047ZM20.1403 7.82598C19.6284 7.30801 18.7983 7.30801 18.2831 7.82598L17.3184 8.80215L19.6481 11.1596L20.6128 10.1834C21.1247 9.66543 21.1247 8.82539 20.6128 8.3041L20.1403 7.82598ZM12.3342 13.8457C12.1997 13.9818 12.1045 14.1512 12.0586 14.3404L11.5664 16.3359C11.5205 16.5186 11.573 16.7078 11.7042 16.8406C11.8355 16.9734 12.0225 17.0266 12.203 16.9801L14.175 16.482C14.3587 16.4355 14.5294 16.3393 14.6639 16.2031L18.9033 11.91L16.5736 9.55254L12.3342 13.8457Z" fill="#566D91"/>
</svg>
