<svg width="19" height="18" viewBox="0 0 19 18" fill="none" xmlns="http://www.w3.org/2000/svg">
<g clip-path="url(#clip0_3877_603)">
<path d="M0.97998 14.625C0.97998 15.0926 1.35425 15.4688 1.81946 15.4688H3.90766C4.26444 16.6113 5.32428 17.4375 6.5765 17.4375C7.82872 17.4375 8.88856 16.6113 9.24534 15.4688H18.0494C18.5146 15.4688 18.8888 15.0926 18.8888 14.625C18.8888 14.1574 18.5146 13.7812 18.0494 13.7812H9.24534C8.88856 12.6387 7.82872 11.8125 6.5765 11.8125C5.32428 11.8125 4.26444 12.6387 3.90766 13.7812H1.81946C1.35425 13.7812 0.97998 14.1574 0.97998 14.625ZM5.4572 14.625C5.4572 14.3266 5.57512 14.0405 5.78503 13.8295C5.99494 13.6185 6.27964 13.5 6.5765 13.5C6.87336 13.5 7.15806 13.6185 7.36797 13.8295C7.57788 14.0405 7.6958 14.3266 7.6958 14.625C7.6958 14.9234 7.57788 15.2095 7.36797 15.4205C7.15806 15.6315 6.87336 15.75 6.5765 15.75C6.27964 15.75 5.99494 15.6315 5.78503 15.4205C5.57512 15.2095 5.4572 14.9234 5.4572 14.625ZM12.173 9C12.173 8.70163 12.2909 8.41548 12.5009 8.2045C12.7108 7.99353 12.9955 7.875 13.2923 7.875C13.5892 7.875 13.8739 7.99353 14.0838 8.2045C14.2937 8.41548 14.4116 8.70163 14.4116 9C14.4116 9.29837 14.2937 9.58452 14.0838 9.7955C13.8739 10.0065 13.5892 10.125 13.2923 10.125C12.9955 10.125 12.7108 10.0065 12.5009 9.7955C12.2909 9.58452 12.173 9.29837 12.173 9ZM13.2923 6.1875C12.0401 6.1875 10.9803 7.01367 10.6235 8.15625H1.81946C1.35425 8.15625 0.97998 8.53242 0.97998 9C0.97998 9.46758 1.35425 9.84375 1.81946 9.84375H10.6235C10.9803 10.9863 12.0401 11.8125 13.2923 11.8125C14.5445 11.8125 15.6044 10.9863 15.9612 9.84375H18.0494C18.5146 9.84375 18.8888 9.46758 18.8888 9C18.8888 8.53242 18.5146 8.15625 18.0494 8.15625H15.9612C15.6044 7.01367 14.5445 6.1875 13.2923 6.1875ZM7.6958 4.5C7.39894 4.5 7.11425 4.38147 6.90434 4.1705C6.69443 3.95952 6.5765 3.67337 6.5765 3.375C6.5765 3.07663 6.69443 2.79048 6.90434 2.5795C7.11425 2.36853 7.39894 2.25 7.6958 2.25C7.99266 2.25 8.27736 2.36853 8.48727 2.5795C8.69718 2.79048 8.81511 3.07663 8.81511 3.375C8.81511 3.67337 8.69718 3.95952 8.48727 4.1705C8.27736 4.38147 7.99266 4.5 7.6958 4.5ZM10.3646 2.53125C10.0079 1.38867 8.94802 0.5625 7.6958 0.5625C6.44358 0.5625 5.38374 1.38867 5.02696 2.53125H1.81946C1.35425 2.53125 0.97998 2.90742 0.97998 3.375C0.97998 3.84258 1.35425 4.21875 1.81946 4.21875H5.02696C5.38374 5.36133 6.44358 6.1875 7.6958 6.1875C8.94802 6.1875 10.0079 5.36133 10.3646 4.21875H18.0494C18.5146 4.21875 18.8888 3.84258 18.8888 3.375C18.8888 2.90742 18.5146 2.53125 18.0494 2.53125H10.3646Z" fill="#F08F00"/>
</g>
<defs>
<clipPath id="clip0_3877_603">
<rect width="17.9089" height="18" fill="white" transform="translate(0.97998)"/>
</clipPath>
</defs>
</svg>
