<svg width="21" height="21" viewBox="0 0 21 21" fill="none" xmlns="http://www.w3.org/2000/svg">
<g clip-path="url(#clip0_3877_519)">
<path d="M1.95882 2.29688C1.95882 1.75137 1.52216 1.3125 0.979408 1.3125C0.436653 1.3125 0 1.75137 0 2.29688V16.7344C0 18.3668 1.31404 19.6875 2.93822 19.6875H19.9146C20.4574 19.6875 20.894 19.2486 20.894 18.7031C20.894 18.1576 20.4574 17.7188 19.9146 17.7188H2.93822C2.39547 17.7188 1.95882 17.2799 1.95882 16.7344V2.29688ZM19.3025 6.93164C19.6861 6.54609 19.6861 5.92266 19.3025 5.54121C18.9189 5.15977 18.2986 5.15566 17.9191 5.54121L13.0629 10.4221L9.83897 7.18184C9.65533 6.99727 9.4064 6.89473 9.14522 6.89473C8.88405 6.89473 8.63511 6.99727 8.45148 7.18184L4.53384 11.1193C4.15024 11.5049 4.15024 12.1283 4.53384 12.5098C4.91744 12.8912 5.53774 12.8953 5.91726 12.5098L9.14114 9.26953L12.365 12.5098C12.7486 12.8953 13.3689 12.8953 13.7484 12.5098L19.3025 6.93164Z" fill="#F79300"/>
</g>
<defs>
<clipPath id="clip0_3877_519">
<rect width="20.894" height="21" fill="white"/>
</clipPath>
</defs>
</svg>
