<svg width="23" height="20" viewBox="0 0 23 20" fill="none" xmlns="http://www.w3.org/2000/svg">
<g clip-path="url(#clip0_3877_804)">
<path d="M12.0572 0.222656C11.6996 -0.0742188 11.1792 -0.0742188 10.8217 0.222656L0.333361 8.97266C-0.0678959 9.30859 -0.11557 9.89844 0.222121 10.293C0.559812 10.6875 1.16368 10.7344 1.56494 10.4023L2.54226 9.58984V16.875C2.54226 18.6016 3.96453 20 5.72053 20H17.1623C18.9183 20 20.3406 18.6016 20.3406 16.875V9.58984L21.3139 10.4023C21.7152 10.7383 22.319 10.6875 22.6567 10.293C22.9944 9.89844 22.9468 9.30469 22.5455 8.97266L20.3406 7.13281V2.1875C20.3406 1.66797 19.9155 1.25 19.3871 1.25C18.8587 1.25 18.4336 1.66797 18.4336 2.1875V5.54297L12.0572 0.222656ZM4.44922 16.875V8L11.4414 2.16797L18.4336 8V16.875C18.4336 17.5664 17.8655 18.125 17.1623 18.125H5.72053C5.01734 18.125 4.44922 17.5664 4.44922 16.875ZM11.4414 11.25C12.1158 11.25 12.7625 10.9866 13.2393 10.5178C13.7161 10.0489 13.984 9.41304 13.984 8.75C13.984 8.08696 13.7161 7.45107 13.2393 6.98223C12.7625 6.51339 12.1158 6.25 11.4414 6.25C10.7671 6.25 10.1203 6.51339 9.64351 6.98223C9.16668 7.45107 8.8988 8.08696 8.8988 8.75C8.8988 9.41304 9.16668 10.0489 9.64351 10.5178C10.1203 10.9866 10.7671 11.25 11.4414 11.25ZM6.99184 15.625C6.99184 15.9688 7.27788 16.25 7.62749 16.25H15.2553C15.6049 16.25 15.891 15.9688 15.891 15.625C15.891 13.8984 14.4687 12.5 12.7127 12.5H10.1701C8.41411 12.5 6.99184 13.8984 6.99184 15.625Z" fill="#F08F00"/>
</g>
<defs>
<clipPath id="clip0_3877_804">
<rect width="22.8835" height="20" fill="white"/>
</clipPath>
</defs>
</svg>
