<svg width="21" height="21" viewBox="0 0 21 21" fill="none" xmlns="http://www.w3.org/2000/svg">
<g clip-path="url(#clip0_3877_617)">
<path d="M1.95878 2.29688C1.95878 1.75137 1.52214 1.3125 0.979391 1.3125C0.436645 1.3125 0 1.75137 0 2.29688V16.7344C0 18.3668 1.31402 19.6875 2.93817 19.6875H19.9143C20.457 19.6875 20.8937 19.2486 20.8937 18.7031C20.8937 18.1576 20.457 17.7188 19.9143 17.7188H2.93817C2.39543 17.7188 1.95878 17.2799 1.95878 16.7344V2.29688ZM19.3022 6.93164C19.6858 6.54609 19.6858 5.92266 19.3022 5.54121C18.9186 5.15977 18.2983 5.15566 17.9188 5.54121L13.0626 10.4221L9.8388 7.18184C9.65516 6.99727 9.40623 6.89473 9.14506 6.89473C8.88389 6.89473 8.63496 6.99727 8.45133 7.18184L4.53376 11.1193C4.15017 11.5049 4.15017 12.1283 4.53376 12.5098C4.91736 12.8912 5.53764 12.8953 5.91715 12.5098L9.14098 9.26953L12.3648 12.5098C12.7484 12.8953 13.3687 12.8953 13.7482 12.5098L19.3022 6.93164Z" fill="#566D91"/>
</g>
<defs>
<clipPath id="clip0_3877_617">
<rect width="20.8937" height="21" fill="white"/>
</clipPath>
</defs>
</svg>
