<svg width="30" height="24" viewBox="0 0 30 24" fill="none" xmlns="http://www.w3.org/2000/svg">
<path d="M5.78438 3.51094C5.8875 3.20625 6.17344 3 6.49688 3H13.0031C13.3266 3 13.6125 3.20625 13.7156 3.51094L14.5453 6H4.95469L5.78438 3.51094ZM1.69219 6.3C0.69375 6.78281 0 7.80937 0 9V13.5V15C0 15.8297 0.670312 16.5 1.5 16.5H2.25C3.07969 16.5 3.75 15.8297 3.75 15V13.5H10.1484C10.3875 13.2328 10.6547 12.9984 10.95 12.7922L12.0187 9.59063C12.7312 7.44844 14.7375 6 17.0016 6H17.7094L16.5609 2.56406C16.05 1.03125 14.6156 0 13.0031 0H6.49688C4.88438 0 3.45 1.03125 2.93906 2.56406L1.69219 6.3ZM2.625 9.75C2.625 9.45163 2.74353 9.16548 2.9545 8.9545C3.16548 8.74353 3.45163 8.625 3.75 8.625C4.04837 8.625 4.33452 8.74353 4.5455 8.9545C4.75647 9.16548 4.875 9.45163 4.875 9.75C4.875 10.0484 4.75647 10.3345 4.5455 10.5455C4.33452 10.7565 4.04837 10.875 3.75 10.875C3.45163 10.875 3.16548 10.7565 2.9545 10.5455C2.74353 10.3345 2.625 10.0484 2.625 9.75ZM16.9969 10.5H23.5031C23.8266 10.5 24.1125 10.7062 24.2156 11.0109L25.0453 13.5H15.4547L16.2844 11.0109C16.3875 10.7062 16.6734 10.5 16.9969 10.5ZM13.4391 10.0641L12.1922 13.8C11.1938 14.2828 10.5 15.3094 10.5 16.5V21V22.5C10.5 23.3297 11.1703 24 12 24H12.75C13.5797 24 14.25 23.3297 14.25 22.5V21H26.25V22.5C26.25 23.3297 26.9203 24 27.75 24H28.5C29.3297 24 30 23.3297 30 22.5V21V16.5C30 15.3094 29.3063 14.2828 28.3078 13.8L27.0609 10.0641C26.55 8.53125 25.1156 7.5 23.5031 7.5H16.9969C15.3844 7.5 13.95 8.53125 13.4391 10.0641ZM14.25 16.125C14.5484 16.125 14.8345 16.2435 15.0455 16.4545C15.2565 16.6655 15.375 16.9516 15.375 17.25C15.375 17.5484 15.2565 17.8345 15.0455 18.0455C14.8345 18.2565 14.5484 18.375 14.25 18.375C13.9516 18.375 13.6655 18.2565 13.4545 18.0455C13.2435 17.8345 13.125 17.5484 13.125 17.25C13.125 16.9516 13.2435 16.6655 13.4545 16.4545C13.6655 16.2435 13.9516 16.125 14.25 16.125ZM25.125 17.25C25.125 16.9516 25.2435 16.6655 25.4545 16.4545C25.6655 16.2435 25.9516 16.125 26.25 16.125C26.5484 16.125 26.8345 16.2435 27.0455 16.4545C27.2565 16.6655 27.375 16.9516 27.375 17.25C27.375 17.5484 27.2565 17.8345 27.0455 18.0455C26.8345 18.2565 26.5484 18.375 26.25 18.375C25.9516 18.375 25.6655 18.2565 25.4545 18.0455C25.2435 17.8345 25.125 17.5484 25.125 17.25Z" fill="#566D91"/>
</svg>
