<svg width="40" height="46" viewBox="0 0 40 46" fill="none" xmlns="http://www.w3.org/2000/svg">
<path d="M19.2857 0H20.7143C21.9018 0 22.8571 0.961328 22.8571 2.15625V7.1875L25.3929 2.07539C28.7857 3.9082 31.1518 7.41211 31.4018 11.5H31.4196C32.6071 11.5 33.5625 12.4613 33.5625 13.6562C33.5625 14.8512 32.6071 15.8125 31.4196 15.8125H8.57143C7.38393 15.8125 6.42857 14.8512 6.42857 13.6562C6.42857 12.4613 7.38393 11.5 8.57143 11.5H8.58929C8.83929 7.42109 11.2143 3.9082 14.6071 2.07539L17.1429 7.1875V2.15625C17.1429 0.961328 18.0982 0 19.2857 0ZM14.4643 27.3125C11.3482 25.5695 9.125 22.407 8.66071 18.6875H13C13.6607 21.9668 16.5446 24.4375 20 24.4375C23.4554 24.4375 26.3393 21.9668 27 18.6875H31.3393C30.875 22.407 28.6518 25.5695 25.5357 27.3125C23.8929 28.2289 22.0089 28.75 20 28.75C17.9911 28.75 16.1071 28.2289 14.4643 27.3125ZM13.4464 31.625H20H26.5536H28C34.625 31.625 40 37.0336 40 43.7C40 44.9668 38.9732 46 37.7143 46H2.28571C1.02679 46 0 44.9668 0 43.7C0 37.0336 5.375 31.625 12 31.625H13.4464ZM35.4554 41.6875C34.5714 38.3723 31.5714 35.9375 28 35.9375H12C8.42857 35.9375 5.42857 38.3723 4.54464 41.6875H35.4554Z" fill="#566D91"/>
</svg>
