<svg width="185" height="193" viewBox="0 0 185 193" fill="none" xmlns="http://www.w3.org/2000/svg">
<path d="M15 3C15 1.34315 16.3431 0 18 0H170V193H18C16.3431 193 15 191.657 15 190V3Z" fill="#D9D9D9"/>
<rect x="86" y="13" width="13" height="164" rx="6.5" fill="#446B54"/>
<path d="M185.001 91C185.001 88.2386 182.762 86 180.001 86H178.001C175.239 86 173.001 88.2386 173.001 91V108H185.001V91Z" fill="#D9D9D9"/>
<path d="M105 91.75C104.448 91.75 104 91.3023 104 90.75C104 90.1977 104.448 89.75 105 89.75V91.75ZM179.002 91.75H105V89.75H179.002V91.75Z" fill="#566D91"/>
<path d="M0 91C0 88.2386 2.23858 86 5 86H7C9.76142 86 12 88.2386 12 91V108H0V91Z" fill="#D9D9D9"/>
<path d="M80.0007 91.75C80.553 91.75 81.0007 91.3023 81.0007 90.75C81.0007 90.1977 80.553 89.75 80.0007 89.75V91.75ZM5.99902 91.75H80.0007V89.75H5.99902V91.75Z" fill="#566D91"/>
<line x1="93" y1="181" x2="93" y2="190" stroke="#DC9835" stroke-width="2" stroke-dasharray="10 10"/>
<line x1="92" y1="2" x2="92" y2="11" stroke="#DC9835" stroke-width="2" stroke-dasharray="10 10"/>
<path d="M12 159V145L17.5 143" stroke="#D0301F" stroke-width="3"/>
<line x1="18.5" y1="140" x2="18.5" y2="146" stroke="#D0301F" stroke-width="3"/>
<path d="M30.2859 74.2727L32.8768 81.6193H32.979L35.57 74.2727H36.6779L33.4734 83H32.3825L29.1779 74.2727H30.2859ZM37.9009 83V76.4545H38.9066V83H37.9009ZM38.4123 75.3636C38.2163 75.3636 38.0472 75.2969 37.9052 75.1634C37.766 75.0298 37.6964 74.8693 37.6964 74.6818C37.6964 74.4943 37.766 74.3338 37.9052 74.2003C38.0472 74.0668 38.2163 74 38.4123 74C38.6083 74 38.7759 74.0668 38.9151 74.2003C39.0572 74.3338 39.1282 74.4943 39.1282 74.6818C39.1282 74.8693 39.0572 75.0298 38.9151 75.1634C38.7759 75.2969 38.6083 75.3636 38.4123 75.3636ZM45.3849 77.9205L44.4815 78.1761C44.4247 78.0256 44.3409 77.8793 44.2301 77.7372C44.1222 77.5923 43.9744 77.473 43.7869 77.3793C43.5994 77.2855 43.3594 77.2386 43.0668 77.2386C42.6662 77.2386 42.3324 77.331 42.0653 77.5156C41.8011 77.6974 41.669 77.929 41.669 78.2102C41.669 78.4602 41.7599 78.6577 41.9418 78.8026C42.1236 78.9474 42.4077 79.0682 42.794 79.1648L43.7656 79.4034C44.3509 79.5455 44.7869 79.7628 45.0739 80.0554C45.3608 80.3452 45.5043 80.7187 45.5043 81.1761C45.5043 81.5511 45.3963 81.8864 45.1804 82.1818C44.9673 82.4773 44.669 82.7102 44.2855 82.8807C43.902 83.0511 43.456 83.1364 42.9474 83.1364C42.2798 83.1364 41.7273 82.9915 41.2898 82.7017C40.8523 82.4119 40.5753 81.9886 40.4588 81.4318L41.4134 81.1932C41.5043 81.5455 41.6761 81.8097 41.929 81.9858C42.1847 82.1619 42.5185 82.25 42.9304 82.25C43.3991 82.25 43.7713 82.1506 44.0469 81.9517C44.3253 81.75 44.4645 81.5085 44.4645 81.2273C44.4645 81 44.3849 80.8097 44.2259 80.6562C44.0668 80.5 43.8224 80.3835 43.4929 80.3068L42.402 80.0511C41.8026 79.9091 41.3622 79.6889 41.081 79.3906C40.8026 79.0895 40.6634 78.7131 40.6634 78.2614C40.6634 77.892 40.767 77.5653 40.9744 77.2812C41.1847 76.9972 41.4702 76.7741 41.831 76.6122C42.1946 76.4503 42.6065 76.3693 43.0668 76.3693C43.7145 76.3693 44.223 76.5114 44.5923 76.7955C44.9645 77.0795 45.2287 77.4545 45.3849 77.9205ZM47.0181 83V76.4545H48.0238V83H47.0181ZM47.5295 75.3636C47.3335 75.3636 47.1644 75.2969 47.0224 75.1634C46.8832 75.0298 46.8136 74.8693 46.8136 74.6818C46.8136 74.4943 46.8832 74.3338 47.0224 74.2003C47.1644 74.0668 47.3335 74 47.5295 74C47.7255 74 47.8931 74.0668 48.0323 74.2003C48.1744 74.3338 48.2454 74.4943 48.2454 74.6818C48.2454 74.8693 48.1744 75.0298 48.0323 75.1634C47.8931 75.2969 47.7255 75.3636 47.5295 75.3636ZM52.7124 76.4545V77.3068H49.3203V76.4545H52.7124ZM50.3089 74.8864H51.3146V81.125C51.3146 81.4091 51.3558 81.6222 51.4382 81.7642C51.5234 81.9034 51.6314 81.9972 51.7621 82.0455C51.8956 82.0909 52.0362 82.1136 52.1839 82.1136C52.2947 82.1136 52.3857 82.108 52.4567 82.0966C52.5277 82.0824 52.5845 82.071 52.6271 82.0625L52.8317 82.9659C52.7635 82.9915 52.6683 83.017 52.5462 83.0426C52.424 83.071 52.2692 83.0852 52.0817 83.0852C51.7976 83.0852 51.5192 83.0241 51.2464 82.902C50.9766 82.7798 50.7521 82.5938 50.5732 82.3438C50.397 82.0938 50.3089 81.7784 50.3089 81.3977V74.8864ZM56.8139 83.1364C56.223 83.1364 55.7045 82.9957 55.2585 82.7145C54.8153 82.4332 54.4688 82.0398 54.2188 81.5341C53.9716 81.0284 53.848 80.4375 53.848 79.7614C53.848 79.0795 53.9716 78.4844 54.2188 77.9759C54.4688 77.4673 54.8153 77.0724 55.2585 76.7912C55.7045 76.5099 56.223 76.3693 56.8139 76.3693C57.4048 76.3693 57.9219 76.5099 58.3651 76.7912C58.8111 77.0724 59.1577 77.4673 59.4048 77.9759C59.6548 78.4844 59.7798 79.0795 59.7798 79.7614C59.7798 80.4375 59.6548 81.0284 59.4048 81.5341C59.1577 82.0398 58.8111 82.4332 58.3651 82.7145C57.9219 82.9957 57.4048 83.1364 56.8139 83.1364ZM56.8139 82.233C57.2628 82.233 57.6321 82.1179 57.9219 81.8878C58.2116 81.6577 58.4261 81.3551 58.5653 80.9801C58.7045 80.6051 58.7741 80.1989 58.7741 79.7614C58.7741 79.3239 58.7045 78.9162 58.5653 78.5384C58.4261 78.1605 58.2116 77.8551 57.9219 77.6222C57.6321 77.3892 57.2628 77.2727 56.8139 77.2727C56.3651 77.2727 55.9957 77.3892 55.706 77.6222C55.4162 77.8551 55.2017 78.1605 55.0625 78.5384C54.9233 78.9162 54.8537 79.3239 54.8537 79.7614C54.8537 80.1989 54.9233 80.6051 55.0625 80.9801C55.2017 81.3551 55.4162 81.6577 55.706 81.8878C55.9957 82.1179 56.3651 82.233 56.8139 82.233ZM61.315 83V76.4545H62.2866V77.4432H62.3548C62.4741 77.1193 62.69 76.8565 63.0025 76.6548C63.315 76.4531 63.6673 76.3523 64.0593 76.3523C64.1332 76.3523 64.2255 76.3537 64.3363 76.3565C64.4471 76.3594 64.5309 76.3636 64.5877 76.3693V77.392C64.5536 77.3835 64.4755 77.3707 64.3533 77.3537C64.234 77.3338 64.1076 77.3239 63.9741 77.3239C63.6559 77.3239 63.3718 77.3906 63.1218 77.5241C62.8746 77.6548 62.6786 77.8366 62.5337 78.0696C62.3917 78.2997 62.3207 78.5625 62.3207 78.858V83H61.315ZM70.4162 77.9205L69.5128 78.1761C69.456 78.0256 69.3722 77.8793 69.2614 77.7372C69.1534 77.5923 69.0057 77.473 68.8182 77.3793C68.6307 77.2855 68.3906 77.2386 68.098 77.2386C67.6974 77.2386 67.3636 77.331 67.0966 77.5156C66.8324 77.6974 66.7003 77.929 66.7003 78.2102C66.7003 78.4602 66.7912 78.6577 66.973 78.8026C67.1548 78.9474 67.4389 79.0682 67.8253 79.1648L68.7969 79.4034C69.3821 79.5455 69.8182 79.7628 70.1051 80.0554C70.392 80.3452 70.5355 80.7187 70.5355 81.1761C70.5355 81.5511 70.4276 81.8864 70.2116 82.1818C69.9986 82.4773 69.7003 82.7102 69.3168 82.8807C68.9332 83.0511 68.4872 83.1364 67.9787 83.1364C67.3111 83.1364 66.7585 82.9915 66.321 82.7017C65.8835 82.4119 65.6065 81.9886 65.4901 81.4318L66.4446 81.1932C66.5355 81.5455 66.7074 81.8097 66.9602 81.9858C67.2159 82.1619 67.5497 82.25 67.9616 82.25C68.4304 82.25 68.8026 82.1506 69.0781 81.9517C69.3565 81.75 69.4957 81.5085 69.4957 81.2273C69.4957 81 69.4162 80.8097 69.2571 80.6562C69.098 80.5 68.8537 80.3835 68.5241 80.3068L67.4332 80.0511C66.8338 79.9091 66.3935 79.6889 66.1122 79.3906C65.8338 79.0895 65.6946 78.7131 65.6946 78.2614C65.6946 77.892 65.7983 77.5653 66.0057 77.2812C66.2159 76.9972 66.5014 76.7741 66.8622 76.6122C67.2259 76.4503 67.6378 76.3693 68.098 76.3693C68.7457 76.3693 69.2543 76.5114 69.6236 76.7955C69.9957 77.0795 70.2599 77.4545 70.4162 77.9205Z" fill="#566D91"/>
<path d="M106.219 83V74.2727H109.168C109.85 74.2727 110.409 74.3892 110.847 74.6222C111.284 74.8523 111.608 75.169 111.818 75.5724C112.029 75.9759 112.134 76.4347 112.134 76.9489C112.134 77.4631 112.029 77.919 111.818 78.3168C111.608 78.7145 111.286 79.027 110.851 79.2543C110.416 79.4787 109.861 79.5909 109.185 79.5909H106.798V78.6364H109.151C109.617 78.6364 109.992 78.5682 110.276 78.4318C110.563 78.2955 110.77 78.1023 110.898 77.8523C111.029 77.5994 111.094 77.2983 111.094 76.9489C111.094 76.5994 111.029 76.294 110.898 76.0327C110.767 75.7713 110.558 75.5696 110.271 75.4276C109.985 75.2827 109.605 75.2102 109.134 75.2102H107.276V83H106.219ZM110.327 79.0795L112.475 83H111.247L109.134 79.0795H110.327ZM116.432 83.1364C115.802 83.1364 115.258 82.9972 114.8 82.7188C114.346 82.4375 113.995 82.0455 113.748 81.5426C113.503 81.0369 113.381 80.4489 113.381 79.7784C113.381 79.108 113.503 78.517 113.748 78.0057C113.995 77.4915 114.339 77.0909 114.779 76.804C115.222 76.5142 115.739 76.3693 116.33 76.3693C116.671 76.3693 117.008 76.4261 117.34 76.5398C117.672 76.6534 117.975 76.8381 118.248 77.0938C118.52 77.3466 118.738 77.6818 118.9 78.0994C119.062 78.517 119.143 79.0312 119.143 79.642V80.0682H114.097V79.1989H118.12C118.12 78.8295 118.046 78.5 117.898 78.2102C117.753 77.9205 117.546 77.6918 117.276 77.5241C117.009 77.3565 116.694 77.2727 116.33 77.2727C115.93 77.2727 115.583 77.3722 115.29 77.571C115.001 77.767 114.778 78.0227 114.621 78.3381C114.465 78.6534 114.387 78.9915 114.387 79.3523V79.9318C114.387 80.4261 114.472 80.8452 114.643 81.1889C114.816 81.5298 115.056 81.7898 115.363 81.9688C115.67 82.1449 116.026 82.233 116.432 82.233C116.697 82.233 116.935 82.196 117.148 82.1222C117.364 82.0455 117.55 81.9318 117.706 81.7812C117.863 81.6278 117.983 81.4375 118.069 81.2102L119.04 81.483C118.938 81.8125 118.766 82.1023 118.525 82.3523C118.283 82.5994 117.985 82.7926 117.63 82.9318C117.275 83.0682 116.876 83.1364 116.432 83.1364ZM125.309 77.9205L124.405 78.1761C124.349 78.0256 124.265 77.8793 124.154 77.7372C124.046 77.5923 123.898 77.473 123.711 77.3793C123.523 77.2855 123.283 77.2386 122.991 77.2386C122.59 77.2386 122.256 77.331 121.989 77.5156C121.725 77.6974 121.593 77.929 121.593 78.2102C121.593 78.4602 121.684 78.6577 121.866 78.8026C122.047 78.9474 122.331 79.0682 122.718 79.1648L123.689 79.4034C124.275 79.5455 124.711 79.7628 124.998 80.0554C125.285 80.3452 125.428 80.7187 125.428 81.1761C125.428 81.5511 125.32 81.8864 125.104 82.1818C124.891 82.4773 124.593 82.7102 124.209 82.8807C123.826 83.0511 123.38 83.1364 122.871 83.1364C122.204 83.1364 121.651 82.9915 121.214 82.7017C120.776 82.4119 120.499 81.9886 120.383 81.4318L121.337 81.1932C121.428 81.5455 121.6 81.8097 121.853 81.9858C122.108 82.1619 122.442 82.25 122.854 82.25C123.323 82.25 123.695 82.1506 123.971 81.9517C124.249 81.75 124.388 81.5085 124.388 81.2273C124.388 81 124.309 80.8097 124.15 80.6562C123.991 80.5 123.746 80.3835 123.417 80.3068L122.326 80.0511C121.726 79.9091 121.286 79.6889 121.005 79.3906C120.726 79.0895 120.587 78.7131 120.587 78.2614C120.587 77.892 120.691 77.5653 120.898 77.2812C121.108 76.9972 121.394 76.7741 121.755 76.6122C122.118 76.4503 122.53 76.3693 122.991 76.3693C123.638 76.3693 124.147 76.5114 124.516 76.7955C124.888 77.0795 125.153 77.4545 125.309 77.9205ZM126.942 83V76.4545H127.948V83H126.942ZM127.453 75.3636C127.257 75.3636 127.088 75.2969 126.946 75.1634C126.807 75.0298 126.737 74.8693 126.737 74.6818C126.737 74.4943 126.807 74.3338 126.946 74.2003C127.088 74.0668 127.257 74 127.453 74C127.649 74 127.817 74.0668 127.956 74.2003C128.098 74.3338 128.169 74.4943 128.169 74.6818C128.169 74.8693 128.098 75.0298 127.956 75.1634C127.817 75.2969 127.649 75.3636 127.453 75.3636ZM132.261 83.1364C131.716 83.1364 131.234 82.9986 130.817 82.723C130.399 82.4446 130.072 82.0526 129.836 81.5469C129.601 81.0384 129.483 80.4375 129.483 79.7443C129.483 79.0568 129.601 78.4602 129.836 77.9545C130.072 77.4489 130.4 77.0582 130.821 76.7827C131.241 76.5071 131.727 76.3693 132.278 76.3693C132.704 76.3693 133.041 76.4403 133.288 76.5824C133.538 76.7216 133.729 76.8807 133.859 77.0597C133.993 77.2358 134.096 77.3807 134.17 77.4943H134.256V74.2727H135.261V83H134.29V81.9943H134.17C134.096 82.1136 133.991 82.2642 133.855 82.446C133.719 82.625 133.524 82.7855 133.271 82.9276C133.018 83.0668 132.682 83.1364 132.261 83.1364ZM132.398 82.233C132.801 82.233 133.142 82.1278 133.42 81.9176C133.699 81.7045 133.91 81.4105 134.055 81.0355C134.2 80.6577 134.273 80.2216 134.273 79.7273C134.273 79.2386 134.202 78.8111 134.059 78.4446C133.917 78.0753 133.707 77.7884 133.429 77.5838C133.15 77.3764 132.807 77.2727 132.398 77.2727C131.971 77.2727 131.616 77.3821 131.332 77.6009C131.051 77.8168 130.839 78.1108 130.697 78.483C130.558 78.8523 130.488 79.267 130.488 79.7273C130.488 80.1932 130.559 80.6165 130.702 80.9972C130.846 81.375 131.059 81.6761 131.341 81.9006C131.625 82.1222 131.977 82.233 132.398 82.233ZM139.987 83.1364C139.356 83.1364 138.812 82.9972 138.355 82.7188C137.9 82.4375 137.55 82.0455 137.302 81.5426C137.058 81.0369 136.936 80.4489 136.936 79.7784C136.936 79.108 137.058 78.517 137.302 78.0057C137.55 77.4915 137.893 77.0909 138.334 76.804C138.777 76.5142 139.294 76.3693 139.885 76.3693C140.226 76.3693 140.562 76.4261 140.895 76.5398C141.227 76.6534 141.53 76.8381 141.802 77.0938C142.075 77.3466 142.292 77.6818 142.454 78.0994C142.616 78.517 142.697 79.0312 142.697 79.642V80.0682H137.652V79.1989H141.675C141.675 78.8295 141.601 78.5 141.453 78.2102C141.308 77.9205 141.101 77.6918 140.831 77.5241C140.564 77.3565 140.248 77.2727 139.885 77.2727C139.484 77.2727 139.138 77.3722 138.845 77.571C138.555 77.767 138.332 78.0227 138.176 78.3381C138.02 78.6534 137.942 78.9915 137.942 79.3523V79.9318C137.942 80.4261 138.027 80.8452 138.197 81.1889C138.371 81.5298 138.611 81.7898 138.917 81.9688C139.224 82.1449 139.581 82.233 139.987 82.233C140.251 82.233 140.49 82.196 140.703 82.1222C140.919 82.0455 141.105 81.9318 141.261 81.7812C141.417 81.6278 141.538 81.4375 141.623 81.2102L142.595 81.483C142.493 81.8125 142.321 82.1023 142.079 82.3523C141.838 82.5994 141.54 82.7926 141.184 82.9318C140.829 83.0682 140.43 83.1364 139.987 83.1364ZM145.233 79.0625V83H144.227V76.4545H145.199V77.4773H145.284C145.437 77.1449 145.67 76.8778 145.983 76.6761C146.295 76.4716 146.699 76.3693 147.193 76.3693C147.636 76.3693 148.024 76.4602 148.356 76.642C148.689 76.821 148.947 77.0938 149.132 77.4602C149.317 77.8239 149.409 78.2841 149.409 78.8409V83H148.403V78.9091C148.403 78.3949 148.27 77.9943 148.003 77.7074C147.736 77.4176 147.369 77.2727 146.903 77.2727C146.582 77.2727 146.295 77.3423 146.042 77.4815C145.792 77.6207 145.595 77.8239 145.45 78.0909C145.305 78.358 145.233 78.6818 145.233 79.0625ZM154.093 76.4545V77.3068H150.701V76.4545H154.093ZM151.69 74.8864H152.695V81.125C152.695 81.4091 152.737 81.6222 152.819 81.7642C152.904 81.9034 153.012 81.9972 153.143 82.0455C153.276 82.0909 153.417 82.1136 153.565 82.1136C153.676 82.1136 153.767 82.108 153.838 82.0966C153.909 82.0824 153.965 82.071 154.008 82.0625L154.213 82.9659C154.144 82.9915 154.049 83.017 153.927 83.0426C153.805 83.071 153.65 83.0852 153.463 83.0852C153.178 83.0852 152.9 83.0241 152.627 82.902C152.357 82.7798 152.133 82.5938 151.954 82.3438C151.778 82.0938 151.69 81.7784 151.69 81.3977V74.8864ZM160.125 77.9205L159.222 78.1761C159.165 78.0256 159.081 77.8793 158.97 77.7372C158.862 77.5923 158.715 77.473 158.527 77.3793C158.34 77.2855 158.1 77.2386 157.807 77.2386C157.406 77.2386 157.073 77.331 156.806 77.5156C156.541 77.6974 156.409 77.929 156.409 78.2102C156.409 78.4602 156.5 78.6577 156.682 78.8026C156.864 78.9474 157.148 79.0682 157.534 79.1648L158.506 79.4034C159.091 79.5455 159.527 79.7628 159.814 80.0554C160.101 80.3452 160.244 80.7187 160.244 81.1761C160.244 81.5511 160.137 81.8864 159.921 82.1818C159.708 82.4773 159.409 82.7102 159.026 82.8807C158.642 83.0511 158.196 83.1364 157.688 83.1364C157.02 83.1364 156.468 82.9915 156.03 82.7017C155.593 82.4119 155.316 81.9886 155.199 81.4318L156.154 81.1932C156.244 81.5455 156.416 81.8097 156.669 81.9858C156.925 82.1619 157.259 82.25 157.671 82.25C158.139 82.25 158.512 82.1506 158.787 81.9517C159.066 81.75 159.205 81.5085 159.205 81.2273C159.205 81 159.125 80.8097 158.966 80.6562C158.807 80.5 158.563 80.3835 158.233 80.3068L157.142 80.0511C156.543 79.9091 156.102 79.6889 155.821 79.3906C155.543 79.0895 155.404 78.7131 155.404 78.2614C155.404 77.892 155.507 77.5653 155.715 77.2812C155.925 76.9972 156.21 76.7741 156.571 76.6122C156.935 76.4503 157.347 76.3693 157.807 76.3693C158.455 76.3693 158.963 76.5114 159.333 76.7955C159.705 77.0795 159.969 77.4545 160.125 77.9205Z" fill="#566D91"/>
</svg>
