<svg width="25" height="24" viewBox="0 0 25 24" fill="none" xmlns="http://www.w3.org/2000/svg">
<circle cx="12" cy="12" r="12" fill="#19A752"/>
<circle cx="11.08" cy="14.88" r="2.36" stroke="white" stroke-width="2"/>
<path d="M16.1809 9.26464C16.5259 8.83337 16.456 8.20408 16.0248 7.85907C15.5935 7.51406 14.9642 7.58398 14.6192 8.01525L16.1809 9.26464ZM12.3409 14.0646L16.1809 9.26464L14.6192 8.01525L10.7792 12.8152L12.3409 14.0646Z" fill="white"/>
<path d="M14.6928 11.2672C15.0834 11.6577 15.7165 11.6577 16.107 11.2672C16.4976 10.8767 16.4976 10.2435 16.107 9.85299L14.6928 11.2672ZM13.7328 10.3072L14.6928 11.2672L16.107 9.85299L15.147 8.89299L13.7328 10.3072Z" fill="white"/>
</svg>
