<svg width="19" height="21" viewBox="0 0 19 21" fill="none" xmlns="http://www.w3.org/2000/svg">
<g clip-path="url(#clip0_3877_650)">
<path d="M6.09664 0C6.80422 0 7.37587 0.586523 7.37587 1.3125V2.625H12.4928V1.3125C12.4928 0.586523 13.0644 0 13.772 0C14.4796 0 15.0512 0.586523 15.0512 1.3125V2.625H16.9701C18.0294 2.625 18.8889 3.50684 18.8889 4.59375V6.5625H0.979736V4.59375C0.979736 3.50684 1.83922 2.625 2.89858 2.625H4.81742V1.3125C4.81742 0.586523 5.38907 0 6.09664 0ZM0.979736 7.875H18.8889V19.0312C18.8889 20.1182 18.0294 21 16.9701 21H2.89858C1.83922 21 0.979736 20.1182 0.979736 19.0312V7.875ZM3.53819 11.1562V12.4688C3.53819 12.8297 3.82602 13.125 4.1778 13.125H5.45703C5.80882 13.125 6.09664 12.8297 6.09664 12.4688V11.1562C6.09664 10.7953 5.80882 10.5 5.45703 10.5H4.1778C3.82602 10.5 3.53819 10.7953 3.53819 11.1562ZM8.6551 11.1562V12.4688C8.6551 12.8297 8.94292 13.125 9.29471 13.125H10.5739C10.9257 13.125 11.2136 12.8297 11.2136 12.4688V11.1562C11.2136 10.7953 10.9257 10.5 10.5739 10.5H9.29471C8.94292 10.5 8.6551 10.7953 8.6551 11.1562ZM14.4116 10.5C14.0598 10.5 13.772 10.7953 13.772 11.1562V12.4688C13.772 12.8297 14.0598 13.125 14.4116 13.125H15.6908C16.0426 13.125 16.3305 12.8297 16.3305 12.4688V11.1562C16.3305 10.7953 16.0426 10.5 15.6908 10.5H14.4116ZM3.53819 16.4062V17.7188C3.53819 18.0797 3.82602 18.375 4.1778 18.375H5.45703C5.80882 18.375 6.09664 18.0797 6.09664 17.7188V16.4062C6.09664 16.0453 5.80882 15.75 5.45703 15.75H4.1778C3.82602 15.75 3.53819 16.0453 3.53819 16.4062ZM9.29471 15.75C8.94292 15.75 8.6551 16.0453 8.6551 16.4062V17.7188C8.6551 18.0797 8.94292 18.375 9.29471 18.375H10.5739C10.9257 18.375 11.2136 18.0797 11.2136 17.7188V16.4062C11.2136 16.0453 10.9257 15.75 10.5739 15.75H9.29471ZM13.772 16.4062V17.7188C13.772 18.0797 14.0598 18.375 14.4116 18.375H15.6908C16.0426 18.375 16.3305 18.0797 16.3305 17.7188V16.4062C16.3305 16.0453 16.0426 15.75 15.6908 15.75H14.4116C14.0598 15.75 13.772 16.0453 13.772 16.4062Z" fill="#566D91"/>
</g>
<defs>
<clipPath id="clip0_3877_650">
<rect width="17.9092" height="21" fill="white" transform="translate(0.979736)"/>
</clipPath>
</defs>
</svg>
