<svg width="11" height="22" viewBox="0 0 11 22" fill="none" xmlns="http://www.w3.org/2000/svg">
<rect x="1" y="1" width="9" height="19.3889" rx="1" fill="#F08F00" stroke="#F08F00" stroke-width="2"/>
<rect x="2.44434" y="4.88892" width="6.11111" height="12.8333" rx="2" fill="white"/>
<circle cx="5.49975" cy="2.44433" r="0.611078" fill="white"/>
<g clip-path="url(#clip0_3982_378)">
<path d="M3.70996 9.64072C3.70996 9.42852 3.88225 9.25635 4.0946 9.25635H4.86389C5.07624 9.25635 5.24853 9.42852 5.24853 9.64072V10.4095C5.24853 10.6217 5.07624 10.7938 4.86389 10.7938H4.0946C3.88225 10.7938 3.70996 10.6217 3.70996 10.4095V9.64072ZM4.22282 9.76885V10.2813H4.73568V9.76885H4.22282ZM3.70996 11.6907C3.70996 11.4785 3.88225 11.3063 4.0946 11.3063H4.86389C5.07624 11.3063 5.24853 11.4785 5.24853 11.6907V12.4595C5.24853 12.6717 5.07624 12.8438 4.86389 12.8438H4.0946C3.88225 12.8438 3.70996 12.6717 3.70996 12.4595V11.6907ZM4.22282 11.8188V12.3313H4.73568V11.8188H4.22282ZM6.14603 9.25635H6.91532C7.12767 9.25635 7.29996 9.42852 7.29996 9.64072V10.4095C7.29996 10.6217 7.12767 10.7938 6.91532 10.7938H6.14603C5.93368 10.7938 5.76139 10.6217 5.76139 10.4095V9.64072C5.76139 9.42852 5.93368 9.25635 6.14603 9.25635ZM6.7871 9.76885H6.27425V10.2813H6.7871V9.76885ZM5.76139 11.4345C5.76139 11.364 5.81909 11.3063 5.8896 11.3063H6.40246C6.47298 11.3063 6.53068 11.364 6.53068 11.4345C6.53068 11.5049 6.58837 11.5626 6.65889 11.5626H6.91532C6.98584 11.5626 7.04353 11.5049 7.04353 11.4345C7.04353 11.364 7.10123 11.3063 7.17175 11.3063C7.24226 11.3063 7.29996 11.364 7.29996 11.4345V12.2032C7.29996 12.2737 7.24226 12.3313 7.17175 12.3313H6.65889C6.58837 12.3313 6.53068 12.2737 6.53068 12.2032C6.53068 12.1328 6.47298 12.0751 6.40246 12.0751C6.33194 12.0751 6.27425 12.1328 6.27425 12.2032V12.7157C6.27425 12.7862 6.21655 12.8438 6.14603 12.8438H5.8896C5.81909 12.8438 5.76139 12.7862 5.76139 12.7157V11.4345ZM6.65889 12.8438C6.62488 12.8438 6.59227 12.8303 6.56823 12.8063C6.54418 12.7823 6.53068 12.7497 6.53068 12.7157C6.53068 12.6817 6.54418 12.6492 6.56823 12.6251C6.59227 12.6011 6.62488 12.5876 6.65889 12.5876C6.69289 12.5876 6.72551 12.6011 6.74955 12.6251C6.7736 12.6492 6.7871 12.6817 6.7871 12.7157C6.7871 12.7497 6.7736 12.7823 6.74955 12.8063C6.72551 12.8303 6.69289 12.8438 6.65889 12.8438ZM7.17175 12.8438C7.13774 12.8438 7.10513 12.8303 7.08109 12.8063C7.05704 12.7823 7.04353 12.7497 7.04353 12.7157C7.04353 12.6817 7.05704 12.6492 7.08109 12.6251C7.10513 12.6011 7.13774 12.5876 7.17175 12.5876C7.20575 12.5876 7.23836 12.6011 7.26241 12.6251C7.28645 12.6492 7.29996 12.6817 7.29996 12.7157C7.29996 12.7497 7.28645 12.7823 7.26241 12.8063C7.23836 12.8303 7.20575 12.8438 7.17175 12.8438Z" fill="#F08F00"/>
</g>
<defs>
<clipPath id="clip0_3982_378">
<rect width="3.59" height="4.1" fill="white" transform="translate(3.70996 9)"/>
</clipPath>
</defs>
</svg>
