<svg width="150" height="23" viewBox="0 0 150 23" fill="none" xmlns="http://www.w3.org/2000/svg">
<path d="M0.333333 20C0.333333 21.4728 1.52724 22.6667 3 22.6667C4.47276 22.6667 5.66667 21.4728 5.66667 20C5.66667 18.5272 4.47276 17.3333 3 17.3333C1.52724 17.3333 0.333333 18.5272 0.333333 20ZM149.5 1.5C149.776 1.5 150 1.27614 150 1C150 0.723858 149.776 0.5 149.5 0.5V1.5ZM30.7754 1V0.5H30.6208L30.4932 0.587317L30.7754 1ZM3.2823 20.4127L31.0577 1.41268L30.4932 0.587317L2.7177 19.5873L3.2823 20.4127ZM30.7754 1.5L149.5 1.5V0.5L30.7754 0.5V1.5Z" fill="#D0301F"/>
</svg>
