<svg width="17" height="15" viewBox="0 0 17 15" fill="none" xmlns="http://www.w3.org/2000/svg">
<path d="M12.5475 2.51621L16.6248 6.59355C16.8639 6.83262 17 7.16133 17 7.5C17 7.83867 16.8639 8.16738 16.6248 8.40644L12.5475 12.4838C12.335 12.6963 12.0494 12.8125 11.7506 12.8125C11.1297 12.8125 10.625 12.3078 10.625 11.6869V9.625H6.375C5.7873 9.625 5.3125 9.1502 5.3125 8.5625V6.4375C5.3125 5.8498 5.7873 5.375 6.375 5.375H10.625V3.31309C10.625 2.69219 11.1297 2.1875 11.7506 2.1875C12.0494 2.1875 12.335 2.30703 12.5475 2.51621ZM5.3125 2.1875H3.1875C2.5998 2.1875 2.125 2.6623 2.125 3.25V11.75C2.125 12.3377 2.5998 12.8125 3.1875 12.8125H5.3125C5.9002 12.8125 6.375 13.2873 6.375 13.875C6.375 14.4627 5.9002 14.9375 5.3125 14.9375H3.1875C1.42773 14.9375 0 13.5098 0 11.75V3.25C0 1.49023 1.42773 0.0625 3.1875 0.0625H5.3125C5.9002 0.0625 6.375 0.537305 6.375 1.125C6.375 1.7127 5.9002 2.1875 5.3125 2.1875Z" fill="white"/>
</svg>
