<svg width="15" height="15" viewBox="0 0 15 15" fill="none" xmlns="http://www.w3.org/2000/svg">
<path d="M0 1.875C0 0.84082 0.84082 0 1.875 0H6.5625V3.75C6.5625 4.26855 6.98145 4.6875 7.5 4.6875H11.25V8.90625H5.15625C4.12207 8.90625 3.28125 9.74707 3.28125 10.7812V15H1.875C0.84082 15 0 14.1592 0 13.125V1.875ZM11.25 3.75H7.5V0L11.25 3.75ZM5.15625 10.3125H6.09375C6.99902 10.3125 7.73438 11.0479 7.73438 11.9531C7.73438 12.8584 6.99902 13.5938 6.09375 13.5938H5.625V14.5312C5.625 14.7891 5.41406 15 5.15625 15C4.89844 15 4.6875 14.7891 4.6875 14.5312V13.125V10.7812C4.6875 10.5234 4.89844 10.3125 5.15625 10.3125ZM6.09375 12.6562C6.4834 12.6562 6.79688 12.3428 6.79688 11.9531C6.79688 11.5635 6.4834 11.25 6.09375 11.25H5.625V12.6562H6.09375ZM8.90625 10.3125H9.84375C10.6201 10.3125 11.25 10.9424 11.25 11.7188V13.5938C11.25 14.3701 10.6201 15 9.84375 15H8.90625C8.64844 15 8.4375 14.7891 8.4375 14.5312V10.7812C8.4375 10.5234 8.64844 10.3125 8.90625 10.3125ZM9.84375 14.0625C10.1016 14.0625 10.3125 13.8516 10.3125 13.5938V11.7188C10.3125 11.4609 10.1016 11.25 9.84375 11.25H9.375V14.0625H9.84375ZM12.1875 10.7812C12.1875 10.5234 12.3984 10.3125 12.6562 10.3125H14.0625C14.3203 10.3125 14.5312 10.5234 14.5312 10.7812C14.5312 11.0391 14.3203 11.25 14.0625 11.25H13.125V12.1875H14.0625C14.3203 12.1875 14.5312 12.3984 14.5312 12.6562C14.5312 12.9141 14.3203 13.125 14.0625 13.125H13.125V14.5312C13.125 14.7891 12.9141 15 12.6562 15C12.3984 15 12.1875 14.7891 12.1875 14.5312V12.6562V10.7812Z" fill="#566D91"/>
</svg>
