<svg width="31" height="17" viewBox="0 0 31 17" fill="none" xmlns="http://www.w3.org/2000/svg">
<path d="M0 7.70844C0 3.45313 3.14844 0 7.02828 0C8.89312 0 10.6805 0.812812 11.998 2.25781L15.5 6.09344L18.9972 2.25781C20.3195 0.812812 22.1069 0 23.9717 0C27.8516 0 31 3.45313 31 7.70844V9.28625C31 13.5469 27.8516 17 23.9717 17C22.1069 17 20.3195 16.1872 19.002 14.7422L15.5 10.9066L12.0028 14.7422C10.6805 16.1872 8.89312 17 7.02828 17C3.14844 17 0 13.5469 0 9.29156V7.70844ZM13.3058 8.5L9.80859 4.66438C9.07234 3.85688 8.06969 3.4 7.02828 3.4C4.85828 3.4 3.1 5.32844 3.1 7.70844V9.28625C3.1 11.6662 4.85828 13.5947 7.02828 13.5947C8.06969 13.5947 9.07234 13.1431 9.80859 12.3303L13.3058 8.5ZM17.6894 8.5L21.1866 12.3356C21.9228 13.1431 22.9255 13.6 23.9669 13.6C26.1369 13.6 27.8952 11.6716 27.8952 9.29156V7.70844C27.8952 5.32844 26.1369 3.4 23.9669 3.4C22.9255 3.4 21.9228 3.85156 21.1866 4.66438L17.6942 8.5H17.6894Z" fill="#566D91"/>
</svg>
