<svg width="438" height="98" viewBox="0 0 438 98" fill="none" xmlns="http://www.w3.org/2000/svg">
<path d="M4.09379 2.08755L4.09391 4.00003L4.09373 2.08748C4.09375 2.0875 4.09377 2.08752 4.09379 2.08755ZM6.09391 2.0001V1.99991L4.09379 2.00003V2.00006H4.09372V2.00003H4.09353L4.09279 2.00003L4.08997 2.00003L4.07988 2.00003L4.04889 2.00004L3.99699 2.00005L3.99362 2.00006C3.99053 2.00007 3.82841 2.00742 3.67045 2.02739C3.11714 2.73597 2.96707 3.41253 3.0134 4.00003H2.09391V94V96H4.09391H433.834H435.834V94V4.00003H434.89C434.909 3.38906 434.697 2.69439 434.004 2.00003L434.001 2.00003L433.998 2.00003L433.996 2.00003L433.985 2.00003L433.894 2.00003L433.852 2.00003L433.839 2.00003H433.835H433.834L431.834 2.00005V4.00003C426.932 4.00002 411.383 3.99999 363.541 4.00003C323.062 4.00007 302.788 23.558 283.521 42.1441C265.99 59.0566 249.292 75.1646 218.964 75C189.045 74.8377 172.228 58.7928 154.625 41.9987C135.19 23.456 114.797 3.99985 74.7548 4.00003C26.2899 4.00025 10.884 4.00019 6.09391 4.00012V2.0001Z" fill="url(#paint0_linear_102_35)" stroke="url(#paint1_linear_102_35)" stroke-width="4"/>
<g filter="url(#filter0_d_102_35)">
<path d="M330.745 60.07C330.745 60.65 330.545 61.1333 330.145 61.52C329.752 61.9 329.149 62.09 328.335 62.09H326.995V65H326.085V58.03H328.335C329.122 58.03 329.719 58.22 330.125 58.6C330.539 58.98 330.745 59.47 330.745 60.07ZM328.335 61.34C328.842 61.34 329.215 61.23 329.455 61.01C329.695 60.79 329.815 60.4767 329.815 60.07C329.815 59.21 329.322 58.78 328.335 58.78H326.995V61.34H328.335ZM336.876 62.05C336.876 62.2233 336.866 62.4067 336.846 62.6H332.466C332.5 63.14 332.683 63.5633 333.016 63.87C333.356 64.17 333.766 64.32 334.246 64.32C334.64 64.32 334.966 64.23 335.226 64.05C335.493 63.8633 335.68 63.6167 335.786 63.31H336.766C336.62 63.8367 336.326 64.2667 335.886 64.6C335.446 64.9267 334.9 65.09 334.246 65.09C333.726 65.09 333.26 64.9733 332.846 64.74C332.44 64.5067 332.12 64.1767 331.886 63.75C331.653 63.3167 331.536 62.8167 331.536 62.25C331.536 61.6833 331.65 61.1867 331.876 60.76C332.103 60.3333 332.42 60.0067 332.826 59.78C333.24 59.5467 333.713 59.43 334.246 59.43C334.766 59.43 335.226 59.5433 335.626 59.77C336.026 59.9967 336.333 60.31 336.546 60.71C336.766 61.1033 336.876 61.55 336.876 62.05ZM335.936 61.86C335.936 61.5133 335.86 61.2167 335.706 60.97C335.553 60.7167 335.343 60.5267 335.076 60.4C334.816 60.2667 334.526 60.2 334.206 60.2C333.746 60.2 333.353 60.3467 333.026 60.64C332.706 60.9333 332.523 61.34 332.476 61.86H335.936ZM338.988 60.41C339.148 60.0967 339.374 59.8533 339.668 59.68C339.968 59.5067 340.331 59.42 340.758 59.42V60.36H340.518C339.498 60.36 338.988 60.9133 338.988 62.02V65H338.078V59.52H338.988V60.41ZM348.398 59.42C348.825 59.42 349.205 59.51 349.538 59.69C349.871 59.8633 350.135 60.1267 350.328 60.48C350.521 60.8333 350.618 61.2633 350.618 61.77V65H349.718V61.9C349.718 61.3533 349.581 60.9367 349.308 60.65C349.041 60.3567 348.678 60.21 348.218 60.21C347.745 60.21 347.368 60.3633 347.088 60.67C346.808 60.97 346.668 61.4067 346.668 61.98V65H345.768V61.9C345.768 61.3533 345.631 60.9367 345.358 60.65C345.091 60.3567 344.728 60.21 344.268 60.21C343.795 60.21 343.418 60.3633 343.138 60.67C342.858 60.97 342.718 61.4067 342.718 61.98V65H341.808V59.52H342.718V60.31C342.898 60.0233 343.138 59.8033 343.438 59.65C343.745 59.4967 344.081 59.42 344.448 59.42C344.908 59.42 345.315 59.5233 345.668 59.73C346.021 59.9367 346.285 60.24 346.458 60.64C346.611 60.2533 346.865 59.9533 347.218 59.74C347.571 59.5267 347.965 59.42 348.398 59.42ZM351.771 62.24C351.771 61.68 351.884 61.19 352.111 60.77C352.337 60.3433 352.647 60.0133 353.041 59.78C353.441 59.5467 353.884 59.43 354.371 59.43C354.851 59.43 355.267 59.5333 355.621 59.74C355.974 59.9467 356.237 60.2067 356.411 60.52V59.52H357.331V65H356.411V63.98C356.231 64.3 355.961 64.5667 355.601 64.78C355.247 64.9867 354.834 65.09 354.361 65.09C353.874 65.09 353.434 64.97 353.041 64.73C352.647 64.49 352.337 64.1533 352.111 63.72C351.884 63.2867 351.771 62.7933 351.771 62.24ZM356.411 62.25C356.411 61.8367 356.327 61.4767 356.161 61.17C355.994 60.8633 355.767 60.63 355.481 60.47C355.201 60.3033 354.891 60.22 354.551 60.22C354.211 60.22 353.901 60.3 353.621 60.46C353.341 60.62 353.117 60.8533 352.951 61.16C352.784 61.4667 352.701 61.8267 352.701 62.24C352.701 62.66 352.784 63.0267 352.951 63.34C353.117 63.6467 353.341 63.8833 353.621 64.05C353.901 64.21 354.211 64.29 354.551 64.29C354.891 64.29 355.201 64.21 355.481 64.05C355.767 63.8833 355.994 63.6467 356.161 63.34C356.327 63.0267 356.411 62.6633 356.411 62.25ZM361.539 59.42C362.205 59.42 362.745 59.6233 363.159 60.03C363.572 60.43 363.779 61.01 363.779 61.77V65H362.879V61.9C362.879 61.3533 362.742 60.9367 362.469 60.65C362.195 60.3567 361.822 60.21 361.349 60.21C360.869 60.21 360.485 60.36 360.199 60.66C359.919 60.96 359.779 61.3967 359.779 61.97V65H358.869V59.52H359.779V60.3C359.959 60.02 360.202 59.8033 360.509 59.65C360.822 59.4967 361.165 59.42 361.539 59.42ZM370.265 62.05C370.265 62.2233 370.255 62.4067 370.235 62.6H365.855C365.888 63.14 366.072 63.5633 366.405 63.87C366.745 64.17 367.155 64.32 367.635 64.32C368.028 64.32 368.355 64.23 368.615 64.05C368.882 63.8633 369.068 63.6167 369.175 63.31H370.155C370.008 63.8367 369.715 64.2667 369.275 64.6C368.835 64.9267 368.288 65.09 367.635 65.09C367.115 65.09 366.648 64.9733 366.235 64.74C365.828 64.5067 365.508 64.1767 365.275 63.75C365.042 63.3167 364.925 62.8167 364.925 62.25C364.925 61.6833 365.038 61.1867 365.265 60.76C365.492 60.3333 365.808 60.0067 366.215 59.78C366.628 59.5467 367.102 59.43 367.635 59.43C368.155 59.43 368.615 59.5433 369.015 59.77C369.415 59.9967 369.722 60.31 369.935 60.71C370.155 61.1033 370.265 61.55 370.265 62.05ZM369.325 61.86C369.325 61.5133 369.248 61.2167 369.095 60.97C368.942 60.7167 368.732 60.5267 368.465 60.4C368.205 60.2667 367.915 60.2 367.595 60.2C367.135 60.2 366.742 60.3467 366.415 60.64C366.095 60.9333 365.912 61.34 365.865 61.86H369.325ZM374.136 59.42C374.803 59.42 375.343 59.6233 375.756 60.03C376.17 60.43 376.376 61.01 376.376 61.77V65H375.476V61.9C375.476 61.3533 375.34 60.9367 375.066 60.65C374.793 60.3567 374.42 60.21 373.946 60.21C373.466 60.21 373.083 60.36 372.796 60.66C372.516 60.96 372.376 61.3967 372.376 61.97V65H371.466V59.52H372.376V60.3C372.556 60.02 372.8 59.8033 373.106 59.65C373.42 59.4967 373.763 59.42 374.136 59.42ZM378.973 60.27V63.5C378.973 63.7667 379.029 63.9567 379.143 64.07C379.256 64.1767 379.453 64.23 379.733 64.23H380.403V65H379.583C379.076 65 378.696 64.8833 378.443 64.65C378.189 64.4167 378.063 64.0333 378.063 63.5V60.27H377.353V59.52H378.063V58.14H378.973V59.52H380.403V60.27H378.973ZM388.831 60.07C388.831 60.65 388.631 61.1333 388.231 61.52C387.838 61.9 387.235 62.09 386.421 62.09H385.081V65H384.171V58.03H386.421C387.208 58.03 387.805 58.22 388.211 58.6C388.625 58.98 388.831 59.47 388.831 60.07ZM386.421 61.34C386.928 61.34 387.301 61.23 387.541 61.01C387.781 60.79 387.901 60.4767 387.901 60.07C387.901 59.21 387.408 58.78 386.421 58.78H385.081V61.34H386.421ZM390.872 58.03V65H389.962V58.03H390.872ZM397.903 65H396.993L393.333 59.45V65H392.423V58.02H393.333L396.993 63.56V58.02H397.903V65Z" fill="white"/>
<path d="M349 42.8947C349 39.6406 351.641 37 354.895 37C356.459 37 357.958 37.6216 359.063 38.7266L362 41.6597L364.933 38.7266C366.042 37.6216 367.541 37 369.105 37C372.359 37 375 39.6406 375 42.8947V44.1012C375 47.3594 372.359 50 369.105 50C367.541 50 366.042 49.3784 364.937 48.2734L362 45.3403L359.067 48.2734C357.958 49.3784 356.459 50 354.895 50C351.641 50 349 47.3594 349 44.1053V42.8947ZM360.16 43.5L357.227 40.5669C356.609 39.9494 355.768 39.6 354.895 39.6C353.075 39.6 351.6 41.0747 351.6 42.8947V44.1012C351.6 45.9212 353.075 47.3959 354.895 47.3959C355.768 47.3959 356.609 47.0506 357.227 46.4291L360.16 43.5ZM363.836 43.5L366.769 46.4331C367.387 47.0506 368.228 47.4 369.101 47.4C370.921 47.4 372.396 45.9253 372.396 44.1053V42.8947C372.396 41.0747 370.921 39.6 369.101 39.6C368.228 39.6 367.387 39.9453 366.769 40.5669L363.84 43.5H363.836Z" fill="white"/>
</g>
<g filter="url(#filter1_d_102_35)">
<path d="M43.1245 58.03V58.77H41.2245V65H40.3145V58.77H38.4045V58.03H43.1245ZM49.2446 62.05C49.2446 62.2233 49.2346 62.4067 49.2146 62.6H44.8346C44.8679 63.14 45.0513 63.5633 45.3846 63.87C45.7246 64.17 46.1346 64.32 46.6146 64.32C47.0079 64.32 47.3346 64.23 47.5946 64.05C47.8613 63.8633 48.0479 63.6167 48.1546 63.31H49.1346C48.9879 63.8367 48.6946 64.2667 48.2546 64.6C47.8146 64.9267 47.2679 65.09 46.6146 65.09C46.0946 65.09 45.6279 64.9733 45.2146 64.74C44.8079 64.5067 44.4879 64.1767 44.2546 63.75C44.0213 63.3167 43.9046 62.8167 43.9046 62.25C43.9046 61.6833 44.0179 61.1867 44.2446 60.76C44.4713 60.3333 44.7879 60.0067 45.1946 59.78C45.6079 59.5467 46.0813 59.43 46.6146 59.43C47.1346 59.43 47.5946 59.5433 47.9946 59.77C48.3946 59.9967 48.7013 60.31 48.9146 60.71C49.1346 61.1033 49.2446 61.55 49.2446 62.05ZM48.3046 61.86C48.3046 61.5133 48.2279 61.2167 48.0746 60.97C47.9213 60.7167 47.7113 60.5267 47.4446 60.4C47.1846 60.2667 46.8946 60.2 46.5746 60.2C46.1146 60.2 45.7213 60.3467 45.3946 60.64C45.0746 60.9333 44.8913 61.34 44.8446 61.86H48.3046ZM57.0358 59.42C57.4624 59.42 57.8424 59.51 58.1758 59.69C58.5091 59.8633 58.7724 60.1267 58.9658 60.48C59.1591 60.8333 59.2558 61.2633 59.2558 61.77V65H58.3558V61.9C58.3558 61.3533 58.2191 60.9367 57.9458 60.65C57.6791 60.3567 57.3158 60.21 56.8558 60.21C56.3824 60.21 56.0058 60.3633 55.7258 60.67C55.4458 60.97 55.3058 61.4067 55.3058 61.98V65H54.4058V61.9C54.4058 61.3533 54.2691 60.9367 53.9958 60.65C53.7291 60.3567 53.3658 60.21 52.9058 60.21C52.4324 60.21 52.0558 60.3633 51.7758 60.67C51.4958 60.97 51.3558 61.4067 51.3558 61.98V65H50.4458V59.52H51.3558V60.31C51.5358 60.0233 51.7758 59.8033 52.0758 59.65C52.3824 59.4967 52.7191 59.42 53.0858 59.42C53.5458 59.42 53.9524 59.5233 54.3058 59.73C54.6591 59.9367 54.9224 60.24 55.0958 60.64C55.2491 60.2533 55.5024 59.9533 55.8558 59.74C56.2091 59.5267 56.6024 59.42 57.0358 59.42ZM61.6585 60.53C61.8385 60.2167 62.1052 59.9567 62.4585 59.75C62.8185 59.5367 63.2352 59.43 63.7085 59.43C64.1952 59.43 64.6352 59.5467 65.0285 59.78C65.4285 60.0133 65.7418 60.3433 65.9685 60.77C66.1952 61.19 66.3085 61.68 66.3085 62.24C66.3085 62.7933 66.1952 63.2867 65.9685 63.72C65.7418 64.1533 65.4285 64.49 65.0285 64.73C64.6352 64.97 64.1952 65.09 63.7085 65.09C63.2418 65.09 62.8285 64.9867 62.4685 64.78C62.1152 64.5667 61.8452 64.3033 61.6585 63.99V67.6H60.7485V59.52H61.6585V60.53ZM65.3785 62.24C65.3785 61.8267 65.2952 61.4667 65.1285 61.16C64.9618 60.8533 64.7352 60.62 64.4485 60.46C64.1685 60.3 63.8585 60.22 63.5185 60.22C63.1852 60.22 62.8752 60.3033 62.5885 60.47C62.3085 60.63 62.0818 60.8667 61.9085 61.18C61.7418 61.4867 61.6585 61.8433 61.6585 62.25C61.6585 62.6633 61.7418 63.0267 61.9085 63.34C62.0818 63.6467 62.3085 63.8833 62.5885 64.05C62.8752 64.21 63.1852 64.29 63.5185 64.29C63.8585 64.29 64.1685 64.21 64.4485 64.05C64.7352 63.8833 64.9618 63.6467 65.1285 63.34C65.2952 63.0267 65.3785 62.66 65.3785 62.24ZM69.8963 65.09C69.383 65.09 68.9163 64.9733 68.4963 64.74C68.083 64.5067 67.7563 64.1767 67.5163 63.75C67.283 63.3167 67.1663 62.8167 67.1663 62.25C67.1663 61.69 67.2863 61.1967 67.5263 60.77C67.773 60.3367 68.1063 60.0067 68.5263 59.78C68.9463 59.5467 69.4163 59.43 69.9363 59.43C70.4563 59.43 70.9263 59.5467 71.3463 59.78C71.7663 60.0067 72.0963 60.3333 72.3363 60.76C72.583 61.1867 72.7063 61.6833 72.7063 62.25C72.7063 62.8167 72.5797 63.3167 72.3263 63.75C72.0797 64.1767 71.743 64.5067 71.3163 64.74C70.8897 64.9733 70.4163 65.09 69.8963 65.09ZM69.8963 64.29C70.223 64.29 70.5297 64.2133 70.8163 64.06C71.103 63.9067 71.333 63.6767 71.5063 63.37C71.6863 63.0633 71.7763 62.69 71.7763 62.25C71.7763 61.81 71.6897 61.4367 71.5163 61.13C71.343 60.8233 71.1163 60.5967 70.8363 60.45C70.5563 60.2967 70.253 60.22 69.9263 60.22C69.593 60.22 69.2863 60.2967 69.0063 60.45C68.733 60.5967 68.513 60.8233 68.3463 61.13C68.1797 61.4367 68.0963 61.81 68.0963 62.25C68.0963 62.6967 68.1763 63.0733 68.3363 63.38C68.503 63.6867 68.723 63.9167 68.9963 64.07C69.2697 64.2167 69.5697 64.29 69.8963 64.29ZM74.8128 60.41C74.9728 60.0967 75.1995 59.8533 75.4928 59.68C75.7928 59.5067 76.1561 59.42 76.5828 59.42V60.36H76.3428C75.3228 60.36 74.8128 60.9133 74.8128 62.02V65H73.9028V59.52H74.8128V60.41ZM77.2933 62.24C77.2933 61.68 77.4066 61.19 77.6333 60.77C77.8599 60.3433 78.1699 60.0133 78.5633 59.78C78.9633 59.5467 79.4066 59.43 79.8933 59.43C80.3733 59.43 80.7899 59.5333 81.1433 59.74C81.4966 59.9467 81.7599 60.2067 81.9333 60.52V59.52H82.8533V65H81.9333V63.98C81.7533 64.3 81.4833 64.5667 81.1233 64.78C80.7699 64.9867 80.3566 65.09 79.8833 65.09C79.3966 65.09 78.9566 64.97 78.5633 64.73C78.1699 64.49 77.8599 64.1533 77.6333 63.72C77.4066 63.2867 77.2933 62.7933 77.2933 62.24ZM81.9333 62.25C81.9333 61.8367 81.8499 61.4767 81.6833 61.17C81.5166 60.8633 81.2899 60.63 81.0033 60.47C80.7233 60.3033 80.4133 60.22 80.0733 60.22C79.7333 60.22 79.4233 60.3 79.1433 60.46C78.8633 60.62 78.6399 60.8533 78.4733 61.16C78.3066 61.4667 78.2233 61.8267 78.2233 62.24C78.2233 62.66 78.3066 63.0267 78.4733 63.34C78.6399 63.6467 78.8633 63.8833 79.1433 64.05C79.4233 64.21 79.7333 64.29 80.0733 64.29C80.4133 64.29 80.7233 64.21 81.0033 64.05C81.2899 63.8833 81.5166 63.6467 81.6833 63.34C81.8499 63.0267 81.9333 62.6633 81.9333 62.25ZM85.3011 60.41C85.4611 60.0967 85.6878 59.8533 85.9811 59.68C86.2811 59.5067 86.6444 59.42 87.0711 59.42V60.36H86.8311C85.8111 60.36 85.3011 60.9133 85.3011 62.02V65H84.3911V59.52H85.3011V60.41ZM92.8416 59.52L89.5416 67.58H88.6016L89.6816 64.94L87.4716 59.52H88.4816L90.2016 63.96L91.9016 59.52H92.8416ZM101.082 60.07C101.082 60.65 100.882 61.1333 100.482 61.52C100.089 61.9 99.4857 62.09 98.6723 62.09H97.3323V65H96.4223V58.03H98.6723C99.459 58.03 100.056 58.22 100.462 58.6C100.876 58.98 101.082 59.47 101.082 60.07ZM98.6723 61.34C99.179 61.34 99.5523 61.23 99.7923 61.01C100.032 60.79 100.152 60.4767 100.152 60.07C100.152 59.21 99.659 58.78 98.6723 58.78H97.3323V61.34H98.6723ZM103.123 58.03V65H102.213V58.03H103.123ZM110.154 65H109.244L105.584 59.45V65H104.674V58.02H105.584L109.244 63.56V58.02H110.154V65Z" fill="white"/>
<g clip-path="url(#clip0_102_35)">
<path d="M70 33C69.4469 33 69 33.4748 69 34.0625C69 34.6502 69.4469 35.125 70 35.125V35.4902C70 36.898 70.5281 38.2494 71.4656 39.2455L73.5844 41.5L71.4656 43.7545C70.5281 44.7506 70 46.102 70 47.5098V47.875C69.4469 47.875 69 48.3498 69 48.9375C69 49.5252 69.4469 50 70 50H71H79H80C80.5531 50 81 49.5252 81 48.9375C81 48.3498 80.5531 47.875 80 47.875V47.5098C80 46.102 79.4719 44.7506 78.5344 43.7545L76.4156 41.5L78.5375 39.2455C79.475 38.2494 80.0031 36.898 80.0031 35.4902V35.125C80.5562 35.125 81.0031 34.6502 81.0031 34.0625C81.0031 33.4748 80.5562 33 80.0031 33H79H71H70ZM78 47.5098V47.875H72V47.5098C72 46.6631 72.3156 45.8529 72.8781 45.2553L75 43.0041L77.1219 45.2586C77.6844 45.8563 78 46.6664 78 47.5131V47.5098Z" fill="white"/>
</g>
</g>
<defs>
<filter id="filter0_d_102_35" x="322.085" y="37" width="79.8179" height="36.0898" filterUnits="userSpaceOnUse" color-interpolation-filters="sRGB">
<feFlood flood-opacity="0" result="BackgroundImageFix"/>
<feColorMatrix in="SourceAlpha" type="matrix" values="0 0 0 0 0 0 0 0 0 0 0 0 0 0 0 0 0 0 127 0" result="hardAlpha"/>
<feOffset dy="4"/>
<feGaussianBlur stdDeviation="2"/>
<feComposite in2="hardAlpha" operator="out"/>
<feColorMatrix type="matrix" values="0 0 0 0 0 0 0 0 0 0 0 0 0 0 0 0 0 0 0.25 0"/>
<feBlend mode="normal" in2="BackgroundImageFix" result="effect1_dropShadow_102_35"/>
<feBlend mode="normal" in="SourceGraphic" in2="effect1_dropShadow_102_35" result="shape"/>
</filter>
<filter id="filter1_d_102_35" x="34.4045" y="33" width="79.7498" height="42.6001" filterUnits="userSpaceOnUse" color-interpolation-filters="sRGB">
<feFlood flood-opacity="0" result="BackgroundImageFix"/>
<feColorMatrix in="SourceAlpha" type="matrix" values="0 0 0 0 0 0 0 0 0 0 0 0 0 0 0 0 0 0 127 0" result="hardAlpha"/>
<feOffset dy="4"/>
<feGaussianBlur stdDeviation="2"/>
<feComposite in2="hardAlpha" operator="out"/>
<feColorMatrix type="matrix" values="0 0 0 0 0 0 0 0 0 0 0 0 0 0 0 0 0 0 0.25 0"/>
<feBlend mode="normal" in2="BackgroundImageFix" result="effect1_dropShadow_102_35"/>
<feBlend mode="normal" in="SourceGraphic" in2="effect1_dropShadow_102_35" result="shape"/>
</filter>
<linearGradient id="paint0_linear_102_35" x1="442.349" y1="30.5" x2="-536.113" y2="20.9225" gradientUnits="userSpaceOnUse">
<stop stop-color="#2A3649"/>
<stop offset="1" stop-color="#566D90"/>
</linearGradient>
<linearGradient id="paint1_linear_102_35" x1="-4.46083" y1="49" x2="442.756" y2="49" gradientUnits="userSpaceOnUse">
<stop stop-color="#EEEEEE"/>
<stop offset="1" stop-color="#566D91"/>
</linearGradient>
<clipPath id="clip0_102_35">
<rect width="12" height="17" fill="white" transform="translate(69 33)"/>
</clipPath>
</defs>
</svg>
