<svg width="438" height="98" viewBox="0 0 438 98" fill="none" xmlns="http://www.w3.org/2000/svg">
<path d="M433.906 2.08755L433.906 4.00003L433.906 2.08748C433.906 2.0875 433.906 2.08752 433.906 2.08755ZM431.906 2.0001V1.99991L433.906 2.00003V2.00006H433.906V2.00003H433.906L433.907 2.00003L433.91 2.00003L433.92 2.00003L433.951 2.00004L434.003 2.00005L434.006 2.00006C434.009 2.00007 434.172 2.00742 434.33 2.02739C434.883 2.73598 435.033 3.41253 434.987 4.00003H435.906V94V96H433.906H4.16574H2.16574V94V4.00003H3.11002C3.09085 3.38906 3.30252 2.69439 3.99594 2.00003L3.99915 2.00003L4.00183 2.00003L4.00354 2.00003L4.0152 2.00003L4.1058 2.00003L4.14798 2.00003L4.16098 2.00003H4.16452H4.16544H4.16577L6.16574 2.00005V4.00003C11.0683 4.00002 26.6173 3.99999 74.4592 4.00003C114.8 4.00007 134.903 9.40305 153.949 14.5216C171.404 19.2129 187.971 23.6652 218.413 23.5C248.21 23.3383 265.152 18.961 282.823 14.395C302.487 9.31422 323.055 3.99985 363.245 4.00003C411.71 4.00025 427.116 4.00019 431.906 4.00012V2.0001Z" fill="url(#paint0_linear_3019_2208)" stroke="url(#paint1_linear_3019_2208)" stroke-width="4"/>
<g filter="url(#filter0_d_3019_2208)">
<path d="M66.1245 60.03V60.77H64.2245V67H63.3145V60.77H61.4045V60.03H66.1245ZM72.2446 64.05C72.2446 64.2233 72.2346 64.4067 72.2146 64.6H67.8346C67.8679 65.14 68.0513 65.5633 68.3846 65.87C68.7246 66.17 69.1346 66.32 69.6146 66.32C70.0079 66.32 70.3346 66.23 70.5946 66.05C70.8613 65.8633 71.0479 65.6167 71.1546 65.31H72.1346C71.9879 65.8367 71.6946 66.2667 71.2546 66.6C70.8146 66.9267 70.2679 67.09 69.6146 67.09C69.0946 67.09 68.6279 66.9733 68.2146 66.74C67.8079 66.5067 67.4879 66.1767 67.2546 65.75C67.0213 65.3167 66.9046 64.8167 66.9046 64.25C66.9046 63.6833 67.0179 63.1867 67.2446 62.76C67.4713 62.3333 67.7879 62.0067 68.1946 61.78C68.6079 61.5467 69.0813 61.43 69.6146 61.43C70.1346 61.43 70.5946 61.5433 70.9946 61.77C71.3946 61.9967 71.7013 62.31 71.9146 62.71C72.1346 63.1033 72.2446 63.55 72.2446 64.05ZM71.3046 63.86C71.3046 63.5133 71.2279 63.2167 71.0746 62.97C70.9213 62.7167 70.7113 62.5267 70.4446 62.4C70.1846 62.2667 69.8946 62.2 69.5746 62.2C69.1146 62.2 68.7213 62.3467 68.3946 62.64C68.0746 62.9333 67.8913 63.34 67.8446 63.86H71.3046ZM80.0358 61.42C80.4624 61.42 80.8424 61.51 81.1758 61.69C81.5091 61.8633 81.7724 62.1267 81.9658 62.48C82.1591 62.8333 82.2558 63.2633 82.2558 63.77V67H81.3558V63.9C81.3558 63.3533 81.2191 62.9367 80.9458 62.65C80.6791 62.3567 80.3158 62.21 79.8558 62.21C79.3824 62.21 79.0058 62.3633 78.7258 62.67C78.4458 62.97 78.3058 63.4067 78.3058 63.98V67H77.4058V63.9C77.4058 63.3533 77.2691 62.9367 76.9958 62.65C76.7291 62.3567 76.3658 62.21 75.9058 62.21C75.4324 62.21 75.0558 62.3633 74.7758 62.67C74.4958 62.97 74.3558 63.4067 74.3558 63.98V67H73.4458V61.52H74.3558V62.31C74.5358 62.0233 74.7758 61.8033 75.0758 61.65C75.3824 61.4967 75.7191 61.42 76.0858 61.42C76.5458 61.42 76.9524 61.5233 77.3058 61.73C77.6591 61.9367 77.9224 62.24 78.0958 62.64C78.2491 62.2533 78.5024 61.9533 78.8558 61.74C79.2091 61.5267 79.6024 61.42 80.0358 61.42ZM84.6585 62.53C84.8385 62.2167 85.1052 61.9567 85.4585 61.75C85.8185 61.5367 86.2352 61.43 86.7085 61.43C87.1952 61.43 87.6352 61.5467 88.0285 61.78C88.4285 62.0133 88.7418 62.3433 88.9685 62.77C89.1952 63.19 89.3085 63.68 89.3085 64.24C89.3085 64.7933 89.1952 65.2867 88.9685 65.72C88.7418 66.1533 88.4285 66.49 88.0285 66.73C87.6352 66.97 87.1952 67.09 86.7085 67.09C86.2418 67.09 85.8285 66.9867 85.4685 66.78C85.1152 66.5667 84.8452 66.3033 84.6585 65.99V69.6H83.7485V61.52H84.6585V62.53ZM88.3785 64.24C88.3785 63.8267 88.2952 63.4667 88.1285 63.16C87.9618 62.8533 87.7352 62.62 87.4485 62.46C87.1685 62.3 86.8585 62.22 86.5185 62.22C86.1852 62.22 85.8752 62.3033 85.5885 62.47C85.3085 62.63 85.0818 62.8667 84.9085 63.18C84.7418 63.4867 84.6585 63.8433 84.6585 64.25C84.6585 64.6633 84.7418 65.0267 84.9085 65.34C85.0818 65.6467 85.3085 65.8833 85.5885 66.05C85.8752 66.21 86.1852 66.29 86.5185 66.29C86.8585 66.29 87.1685 66.21 87.4485 66.05C87.7352 65.8833 87.9618 65.6467 88.1285 65.34C88.2952 65.0267 88.3785 64.66 88.3785 64.24ZM92.8963 67.09C92.383 67.09 91.9163 66.9733 91.4963 66.74C91.083 66.5067 90.7563 66.1767 90.5163 65.75C90.283 65.3167 90.1663 64.8167 90.1663 64.25C90.1663 63.69 90.2863 63.1967 90.5263 62.77C90.773 62.3367 91.1063 62.0067 91.5263 61.78C91.9463 61.5467 92.4163 61.43 92.9363 61.43C93.4563 61.43 93.9263 61.5467 94.3463 61.78C94.7663 62.0067 95.0963 62.3333 95.3363 62.76C95.583 63.1867 95.7063 63.6833 95.7063 64.25C95.7063 64.8167 95.5797 65.3167 95.3263 65.75C95.0797 66.1767 94.743 66.5067 94.3163 66.74C93.8897 66.9733 93.4163 67.09 92.8963 67.09ZM92.8963 66.29C93.223 66.29 93.5297 66.2133 93.8163 66.06C94.103 65.9067 94.333 65.6767 94.5063 65.37C94.6863 65.0633 94.7763 64.69 94.7763 64.25C94.7763 63.81 94.6897 63.4367 94.5163 63.13C94.343 62.8233 94.1163 62.5967 93.8363 62.45C93.5563 62.2967 93.253 62.22 92.9263 62.22C92.593 62.22 92.2863 62.2967 92.0063 62.45C91.733 62.5967 91.513 62.8233 91.3463 63.13C91.1797 63.4367 91.0963 63.81 91.0963 64.25C91.0963 64.6967 91.1763 65.0733 91.3363 65.38C91.503 65.6867 91.723 65.9167 91.9963 66.07C92.2697 66.2167 92.5697 66.29 92.8963 66.29ZM97.8128 62.41C97.9728 62.0967 98.1995 61.8533 98.4928 61.68C98.7928 61.5067 99.1561 61.42 99.5828 61.42V62.36H99.3428C98.3228 62.36 97.8128 62.9133 97.8128 64.02V67H96.9028V61.52H97.8128V62.41ZM100.293 64.24C100.293 63.68 100.407 63.19 100.633 62.77C100.86 62.3433 101.17 62.0133 101.563 61.78C101.963 61.5467 102.407 61.43 102.893 61.43C103.373 61.43 103.79 61.5333 104.143 61.74C104.497 61.9467 104.76 62.2067 104.933 62.52V61.52H105.853V67H104.933V65.98C104.753 66.3 104.483 66.5667 104.123 66.78C103.77 66.9867 103.357 67.09 102.883 67.09C102.397 67.09 101.957 66.97 101.563 66.73C101.17 66.49 100.86 66.1533 100.633 65.72C100.407 65.2867 100.293 64.7933 100.293 64.24ZM104.933 64.25C104.933 63.8367 104.85 63.4767 104.683 63.17C104.517 62.8633 104.29 62.63 104.003 62.47C103.723 62.3033 103.413 62.22 103.073 62.22C102.733 62.22 102.423 62.3 102.143 62.46C101.863 62.62 101.64 62.8533 101.473 63.16C101.307 63.4667 101.223 63.8267 101.223 64.24C101.223 64.66 101.307 65.0267 101.473 65.34C101.64 65.6467 101.863 65.8833 102.143 66.05C102.423 66.21 102.733 66.29 103.073 66.29C103.413 66.29 103.723 66.21 104.003 66.05C104.29 65.8833 104.517 65.6467 104.683 65.34C104.85 65.0267 104.933 64.6633 104.933 64.25ZM108.301 62.41C108.461 62.0967 108.688 61.8533 108.981 61.68C109.281 61.5067 109.644 61.42 110.071 61.42V62.36H109.831C108.811 62.36 108.301 62.9133 108.301 64.02V67H107.391V61.52H108.301V62.41ZM115.842 61.52L112.542 69.58H111.602L112.682 66.94L110.472 61.52H111.482L113.202 65.96L114.902 61.52H115.842ZM124.082 62.07C124.082 62.65 123.882 63.1333 123.482 63.52C123.089 63.9 122.486 64.09 121.672 64.09H120.332V67H119.422V60.03H121.672C122.459 60.03 123.056 60.22 123.462 60.6C123.876 60.98 124.082 61.47 124.082 62.07ZM121.672 63.34C122.179 63.34 122.552 63.23 122.792 63.01C123.032 62.79 123.152 62.4767 123.152 62.07C123.152 61.21 122.659 60.78 121.672 60.78H120.332V63.34H121.672ZM126.123 60.03V67H125.213V60.03H126.123ZM133.154 67H132.244L128.584 61.45V67H127.674V60.02H128.584L132.244 65.56V60.02H133.154V67Z" fill="white"/>
<g clip-path="url(#clip0_3019_2208)">
<path d="M93 35C92.4469 35 92 35.4748 92 36.0625C92 36.6502 92.4469 37.125 93 37.125V37.4902C93 38.898 93.5281 40.2494 94.4656 41.2455L96.5844 43.5L94.4656 45.7545C93.5281 46.7506 93 48.102 93 49.5098V49.875C92.4469 49.875 92 50.3498 92 50.9375C92 51.5252 92.4469 52 93 52H94H102H103C103.553 52 104 51.5252 104 50.9375C104 50.3498 103.553 49.875 103 49.875V49.5098C103 48.102 102.472 46.7506 101.534 45.7545L99.4156 43.5L101.537 41.2455C102.475 40.2494 103.003 38.898 103.003 37.4902V37.125C103.556 37.125 104.003 36.6502 104.003 36.0625C104.003 35.4748 103.556 35 103.003 35H102H94H93ZM101 49.5098V49.875H95V49.5098C95 48.6631 95.3156 47.8529 95.8781 47.2553L98 45.0041L100.122 47.2586C100.684 47.8563 101 48.6664 101 49.5131V49.5098Z" fill="white"/>
</g>
</g>
<g filter="url(#filter1_d_3019_2208)">
<path d="M307.745 62.07C307.745 62.65 307.545 63.1333 307.145 63.52C306.752 63.9 306.149 64.09 305.335 64.09H303.995V67H303.085V60.03H305.335C306.122 60.03 306.719 60.22 307.125 60.6C307.539 60.98 307.745 61.47 307.745 62.07ZM305.335 63.34C305.842 63.34 306.215 63.23 306.455 63.01C306.695 62.79 306.815 62.4767 306.815 62.07C306.815 61.21 306.322 60.78 305.335 60.78H303.995V63.34H305.335ZM313.876 64.05C313.876 64.2233 313.866 64.4067 313.846 64.6H309.466C309.5 65.14 309.683 65.5633 310.016 65.87C310.356 66.17 310.766 66.32 311.246 66.32C311.64 66.32 311.966 66.23 312.226 66.05C312.493 65.8633 312.68 65.6167 312.786 65.31H313.766C313.62 65.8367 313.326 66.2667 312.886 66.6C312.446 66.9267 311.9 67.09 311.246 67.09C310.726 67.09 310.26 66.9733 309.846 66.74C309.44 66.5067 309.12 66.1767 308.886 65.75C308.653 65.3167 308.536 64.8167 308.536 64.25C308.536 63.6833 308.65 63.1867 308.876 62.76C309.103 62.3333 309.42 62.0067 309.826 61.78C310.24 61.5467 310.713 61.43 311.246 61.43C311.766 61.43 312.226 61.5433 312.626 61.77C313.026 61.9967 313.333 62.31 313.546 62.71C313.766 63.1033 313.876 63.55 313.876 64.05ZM312.936 63.86C312.936 63.5133 312.86 63.2167 312.706 62.97C312.553 62.7167 312.343 62.5267 312.076 62.4C311.816 62.2667 311.526 62.2 311.206 62.2C310.746 62.2 310.353 62.3467 310.026 62.64C309.706 62.9333 309.523 63.34 309.476 63.86H312.936ZM315.988 62.41C316.148 62.0967 316.374 61.8533 316.668 61.68C316.968 61.5067 317.331 61.42 317.758 61.42V62.36H317.518C316.498 62.36 315.988 62.9133 315.988 64.02V67H315.078V61.52H315.988V62.41ZM325.398 61.42C325.825 61.42 326.205 61.51 326.538 61.69C326.871 61.8633 327.135 62.1267 327.328 62.48C327.521 62.8333 327.618 63.2633 327.618 63.77V67H326.718V63.9C326.718 63.3533 326.581 62.9367 326.308 62.65C326.041 62.3567 325.678 62.21 325.218 62.21C324.745 62.21 324.368 62.3633 324.088 62.67C323.808 62.97 323.668 63.4067 323.668 63.98V67H322.768V63.9C322.768 63.3533 322.631 62.9367 322.358 62.65C322.091 62.3567 321.728 62.21 321.268 62.21C320.795 62.21 320.418 62.3633 320.138 62.67C319.858 62.97 319.718 63.4067 319.718 63.98V67H318.808V61.52H319.718V62.31C319.898 62.0233 320.138 61.8033 320.438 61.65C320.745 61.4967 321.081 61.42 321.448 61.42C321.908 61.42 322.315 61.5233 322.668 61.73C323.021 61.9367 323.285 62.24 323.458 62.64C323.611 62.2533 323.865 61.9533 324.218 61.74C324.571 61.5267 324.965 61.42 325.398 61.42ZM328.771 64.24C328.771 63.68 328.884 63.19 329.111 62.77C329.337 62.3433 329.647 62.0133 330.041 61.78C330.441 61.5467 330.884 61.43 331.371 61.43C331.851 61.43 332.267 61.5333 332.621 61.74C332.974 61.9467 333.237 62.2067 333.411 62.52V61.52H334.331V67H333.411V65.98C333.231 66.3 332.961 66.5667 332.601 66.78C332.247 66.9867 331.834 67.09 331.361 67.09C330.874 67.09 330.434 66.97 330.041 66.73C329.647 66.49 329.337 66.1533 329.111 65.72C328.884 65.2867 328.771 64.7933 328.771 64.24ZM333.411 64.25C333.411 63.8367 333.327 63.4767 333.161 63.17C332.994 62.8633 332.767 62.63 332.481 62.47C332.201 62.3033 331.891 62.22 331.551 62.22C331.211 62.22 330.901 62.3 330.621 62.46C330.341 62.62 330.117 62.8533 329.951 63.16C329.784 63.4667 329.701 63.8267 329.701 64.24C329.701 64.66 329.784 65.0267 329.951 65.34C330.117 65.6467 330.341 65.8833 330.621 66.05C330.901 66.21 331.211 66.29 331.551 66.29C331.891 66.29 332.201 66.21 332.481 66.05C332.767 65.8833 332.994 65.6467 333.161 65.34C333.327 65.0267 333.411 64.6633 333.411 64.25ZM338.539 61.42C339.205 61.42 339.745 61.6233 340.159 62.03C340.572 62.43 340.779 63.01 340.779 63.77V67H339.879V63.9C339.879 63.3533 339.742 62.9367 339.469 62.65C339.195 62.3567 338.822 62.21 338.349 62.21C337.869 62.21 337.485 62.36 337.199 62.66C336.919 62.96 336.779 63.3967 336.779 63.97V67H335.869V61.52H336.779V62.3C336.959 62.02 337.202 61.8033 337.509 61.65C337.822 61.4967 338.165 61.42 338.539 61.42ZM347.265 64.05C347.265 64.2233 347.255 64.4067 347.235 64.6H342.855C342.888 65.14 343.072 65.5633 343.405 65.87C343.745 66.17 344.155 66.32 344.635 66.32C345.028 66.32 345.355 66.23 345.615 66.05C345.882 65.8633 346.068 65.6167 346.175 65.31H347.155C347.008 65.8367 346.715 66.2667 346.275 66.6C345.835 66.9267 345.288 67.09 344.635 67.09C344.115 67.09 343.648 66.9733 343.235 66.74C342.828 66.5067 342.508 66.1767 342.275 65.75C342.042 65.3167 341.925 64.8167 341.925 64.25C341.925 63.6833 342.038 63.1867 342.265 62.76C342.492 62.3333 342.808 62.0067 343.215 61.78C343.628 61.5467 344.102 61.43 344.635 61.43C345.155 61.43 345.615 61.5433 346.015 61.77C346.415 61.9967 346.722 62.31 346.935 62.71C347.155 63.1033 347.265 63.55 347.265 64.05ZM346.325 63.86C346.325 63.5133 346.248 63.2167 346.095 62.97C345.942 62.7167 345.732 62.5267 345.465 62.4C345.205 62.2667 344.915 62.2 344.595 62.2C344.135 62.2 343.742 62.3467 343.415 62.64C343.095 62.9333 342.912 63.34 342.865 63.86H346.325ZM351.136 61.42C351.803 61.42 352.343 61.6233 352.756 62.03C353.17 62.43 353.376 63.01 353.376 63.77V67H352.476V63.9C352.476 63.3533 352.34 62.9367 352.066 62.65C351.793 62.3567 351.42 62.21 350.946 62.21C350.466 62.21 350.083 62.36 349.796 62.66C349.516 62.96 349.376 63.3967 349.376 63.97V67H348.466V61.52H349.376V62.3C349.556 62.02 349.8 61.8033 350.106 61.65C350.42 61.4967 350.763 61.42 351.136 61.42ZM355.973 62.27V65.5C355.973 65.7667 356.029 65.9567 356.143 66.07C356.256 66.1767 356.453 66.23 356.733 66.23H357.403V67H356.583C356.076 67 355.696 66.8833 355.443 66.65C355.189 66.4167 355.063 66.0333 355.063 65.5V62.27H354.353V61.52H355.063V60.14H355.973V61.52H357.403V62.27H355.973ZM365.831 62.07C365.831 62.65 365.631 63.1333 365.231 63.52C364.838 63.9 364.235 64.09 363.421 64.09H362.081V67H361.171V60.03H363.421C364.208 60.03 364.805 60.22 365.211 60.6C365.625 60.98 365.831 61.47 365.831 62.07ZM363.421 63.34C363.928 63.34 364.301 63.23 364.541 63.01C364.781 62.79 364.901 62.4767 364.901 62.07C364.901 61.21 364.408 60.78 363.421 60.78H362.081V63.34H363.421ZM367.872 60.03V67H366.962V60.03H367.872ZM374.903 67H373.993L370.333 61.45V67H369.423V60.02H370.333L373.993 65.56V60.02H374.903V67Z" fill="white"/>
<path d="M326 40.8947C326 37.6406 328.641 35 331.895 35C333.459 35 334.958 35.6216 336.063 36.7266L339 39.6597L341.933 36.7266C343.042 35.6216 344.541 35 346.105 35C349.359 35 352 37.6406 352 40.8947V42.1012C352 45.3594 349.359 48 346.105 48C344.541 48 343.042 47.3784 341.937 46.2734L339 43.3403L336.067 46.2734C334.958 47.3784 333.459 48 331.895 48C328.641 48 326 45.3594 326 42.1053V40.8947ZM337.16 41.5L334.227 38.5669C333.609 37.9494 332.768 37.6 331.895 37.6C330.075 37.6 328.6 39.0747 328.6 40.8947V42.1012C328.6 43.9212 330.075 45.3959 331.895 45.3959C332.768 45.3959 333.609 45.0506 334.227 44.4291L337.16 41.5ZM340.836 41.5L343.769 44.4331C344.387 45.0506 345.228 45.4 346.101 45.4C347.921 45.4 349.396 43.9253 349.396 42.1053V40.8947C349.396 39.0747 347.921 37.6 346.101 37.6C345.228 37.6 344.387 37.9453 343.769 38.5669L340.84 41.5H340.836Z" fill="white"/>
</g>
<g filter="url(#filter2_i_3019_2208)">
<path d="M219 70V37" stroke="#EEEEEE" stroke-width="4" stroke-linecap="round"/>
</g>
<defs>
<filter id="filter0_d_3019_2208" x="57.4043" y="35" width="79.75" height="42.6" filterUnits="userSpaceOnUse" color-interpolation-filters="sRGB">
<feFlood flood-opacity="0" result="BackgroundImageFix"/>
<feColorMatrix in="SourceAlpha" type="matrix" values="0 0 0 0 0 0 0 0 0 0 0 0 0 0 0 0 0 0 127 0" result="hardAlpha"/>
<feOffset dy="4"/>
<feGaussianBlur stdDeviation="2"/>
<feComposite in2="hardAlpha" operator="out"/>
<feColorMatrix type="matrix" values="0 0 0 0 0 0 0 0 0 0 0 0 0 0 0 0 0 0 0.25 0"/>
<feBlend mode="normal" in2="BackgroundImageFix" result="effect1_dropShadow_3019_2208"/>
<feBlend mode="normal" in="SourceGraphic" in2="effect1_dropShadow_3019_2208" result="shape"/>
</filter>
<filter id="filter1_d_3019_2208" x="299.085" y="35" width="79.8179" height="40.09" filterUnits="userSpaceOnUse" color-interpolation-filters="sRGB">
<feFlood flood-opacity="0" result="BackgroundImageFix"/>
<feColorMatrix in="SourceAlpha" type="matrix" values="0 0 0 0 0 0 0 0 0 0 0 0 0 0 0 0 0 0 127 0" result="hardAlpha"/>
<feOffset dy="4"/>
<feGaussianBlur stdDeviation="2"/>
<feComposite in2="hardAlpha" operator="out"/>
<feColorMatrix type="matrix" values="0 0 0 0 0 0 0 0 0 0 0 0 0 0 0 0 0 0 0.25 0"/>
<feBlend mode="normal" in2="BackgroundImageFix" result="effect1_dropShadow_3019_2208"/>
<feBlend mode="normal" in="SourceGraphic" in2="effect1_dropShadow_3019_2208" result="shape"/>
</filter>
<filter id="filter2_i_3019_2208" x="217" y="35" width="4" height="41" filterUnits="userSpaceOnUse" color-interpolation-filters="sRGB">
<feFlood flood-opacity="0" result="BackgroundImageFix"/>
<feBlend mode="normal" in="SourceGraphic" in2="BackgroundImageFix" result="shape"/>
<feColorMatrix in="SourceAlpha" type="matrix" values="0 0 0 0 0 0 0 0 0 0 0 0 0 0 0 0 0 0 127 0" result="hardAlpha"/>
<feOffset dy="4"/>
<feGaussianBlur stdDeviation="2"/>
<feComposite in2="hardAlpha" operator="arithmetic" k2="-1" k3="1"/>
<feColorMatrix type="matrix" values="0 0 0 0 0 0 0 0 0 0 0 0 0 0 0 0 0 0 0.25 0"/>
<feBlend mode="normal" in2="shape" result="effect1_innerShadow_3019_2208"/>
</filter>
<linearGradient id="paint0_linear_3019_2208" x1="451.5" y1="38" x2="-496.5" y2="44.075" gradientUnits="userSpaceOnUse">
<stop stop-color="#2A3649"/>
<stop offset="1" stop-color="#566D90"/>
</linearGradient>
<linearGradient id="paint1_linear_3019_2208" x1="1.49998" y1="-2.16389e-07" x2="434" y2="1.00001" gradientUnits="userSpaceOnUse">
<stop stop-color="#EEEEEE"/>
<stop offset="1" stop-color="#566D91"/>
</linearGradient>
<clipPath id="clip0_3019_2208">
<rect width="12" height="17" fill="white" transform="translate(92 35)"/>
</clipPath>
</defs>
</svg>
