<svg width="23" height="20" viewBox="0 0 23 20" fill="none" xmlns="http://www.w3.org/2000/svg">
<g clip-path="url(#clip0_3877_670)">
<path d="M12.0573 0.222656C11.6997 -0.0742188 11.1793 -0.0742188 10.8217 0.222656L0.333245 8.97266C-0.0680192 9.30859 -0.115694 9.89844 0.222003 10.293C0.5597 10.6875 1.16358 10.7344 1.56485 10.4023L2.54218 9.58984V16.875C2.54218 18.6016 3.96448 20 5.72051 20H17.1625C18.9185 20 20.3408 18.6016 20.3408 16.875V9.58984L21.3142 10.4023C21.7154 10.7383 22.3193 10.6875 22.657 10.293C22.9947 9.89844 22.947 9.30469 22.5458 8.97266L20.3408 7.13281V2.1875C20.3408 1.66797 19.9157 1.25 19.3873 1.25C18.8589 1.25 18.4338 1.66797 18.4338 2.1875V5.54297L12.0573 0.222656ZM4.44918 16.875V8L11.4415 2.16797L18.4338 8V16.875C18.4338 17.5664 17.8657 18.125 17.1625 18.125H5.72051C5.0173 18.125 4.44918 17.5664 4.44918 16.875ZM11.4415 11.25C12.1158 11.25 12.7626 10.9866 13.2394 10.5178C13.7163 10.0489 13.9842 9.41304 13.9842 8.75C13.9842 8.08696 13.7163 7.45107 13.2394 6.98223C12.7626 6.51339 12.1158 6.25 11.4415 6.25C10.7671 6.25 10.1204 6.51339 9.64356 6.98223C9.16672 7.45107 8.89883 8.08696 8.89883 8.75C8.89883 9.41304 9.16672 10.0489 9.64356 10.5178C10.1204 10.9866 10.7671 11.25 11.4415 11.25ZM6.99184 15.625C6.99184 15.9688 7.27789 16.25 7.6275 16.25H15.2555C15.6051 16.25 15.8911 15.9688 15.8911 15.625C15.8911 13.8984 14.4688 12.5 12.7128 12.5H10.1702C8.41414 12.5 6.99184 13.8984 6.99184 15.625Z" fill="#566D91"/>
</g>
<defs>
<clipPath id="clip0_3877_670">
<rect width="22.8839" height="20" fill="white"/>
</clipPath>
</defs>
</svg>
