<svg width="19" height="18" viewBox="0 0 19 18" fill="none" xmlns="http://www.w3.org/2000/svg">
<g clip-path="url(#clip0_3877_522)">
<path d="M0.979736 14.625C0.979736 15.0926 1.35401 15.4688 1.81923 15.4688H3.90747C4.26425 16.6113 5.32411 17.4375 6.57635 17.4375C7.8286 17.4375 8.88846 16.6113 9.24524 15.4688H18.0494C18.5146 15.4688 18.8889 15.0926 18.8889 14.625C18.8889 14.1574 18.5146 13.7812 18.0494 13.7812H9.24524C8.88846 12.6387 7.8286 11.8125 6.57635 11.8125C5.32411 11.8125 4.26425 12.6387 3.90747 13.7812H1.81923C1.35401 13.7812 0.979736 14.1574 0.979736 14.625ZM5.45703 14.625C5.45703 14.3266 5.57496 14.0405 5.78487 13.8295C5.99479 13.6185 6.27949 13.5 6.57635 13.5C6.87322 13.5 7.15792 13.6185 7.36783 13.8295C7.57775 14.0405 7.69568 14.3266 7.69568 14.625C7.69568 14.9234 7.57775 15.2095 7.36783 15.4205C7.15792 15.6315 6.87322 15.75 6.57635 15.75C6.27949 15.75 5.99479 15.6315 5.78487 15.4205C5.57496 15.2095 5.45703 14.9234 5.45703 14.625ZM12.173 9C12.173 8.70163 12.2909 8.41548 12.5008 8.2045C12.7107 7.99353 12.9954 7.875 13.2923 7.875C13.5892 7.875 13.8739 7.99353 14.0838 8.2045C14.2937 8.41548 14.4116 8.70163 14.4116 9C14.4116 9.29837 14.2937 9.58452 14.0838 9.7955C13.8739 10.0065 13.5892 10.125 13.2923 10.125C12.9954 10.125 12.7107 10.0065 12.5008 9.7955C12.2909 9.58452 12.173 9.29837 12.173 9ZM13.2923 6.1875C12.0401 6.1875 10.9802 7.01367 10.6234 8.15625H1.81923C1.35401 8.15625 0.979736 8.53242 0.979736 9C0.979736 9.46758 1.35401 9.84375 1.81923 9.84375H10.6234C10.9802 10.9863 12.0401 11.8125 13.2923 11.8125C14.5445 11.8125 15.6044 10.9863 15.9612 9.84375H18.0494C18.5146 9.84375 18.8889 9.46758 18.8889 9C18.8889 8.53242 18.5146 8.15625 18.0494 8.15625H15.9612C15.6044 7.01367 14.5445 6.1875 13.2923 6.1875ZM7.69568 4.5C7.39881 4.5 7.11411 4.38147 6.9042 4.1705C6.69428 3.95952 6.57635 3.67337 6.57635 3.375C6.57635 3.07663 6.69428 2.79048 6.9042 2.5795C7.11411 2.36853 7.39881 2.25 7.69568 2.25C7.99254 2.25 8.27724 2.36853 8.48716 2.5795C8.69707 2.79048 8.815 3.07663 8.815 3.375C8.815 3.67337 8.69707 3.95952 8.48716 4.1705C8.27724 4.38147 7.99254 4.5 7.69568 4.5ZM10.3646 2.53125C10.0078 1.38867 8.94792 0.5625 7.69568 0.5625C6.44343 0.5625 5.38357 1.38867 5.02679 2.53125H1.81923C1.35401 2.53125 0.979736 2.90742 0.979736 3.375C0.979736 3.84258 1.35401 4.21875 1.81923 4.21875H5.02679C5.38357 5.36133 6.44343 6.1875 7.69568 6.1875C8.94792 6.1875 10.0078 5.36133 10.3646 4.21875H18.0494C18.5146 4.21875 18.8889 3.84258 18.8889 3.375C18.8889 2.90742 18.5146 2.53125 18.0494 2.53125H10.3646Z" fill="#566D91"/>
</g>
<defs>
<clipPath id="clip0_3877_522">
<rect width="17.9092" height="18" fill="white" transform="translate(0.979736)"/>
</clipPath>
</defs>
</svg>
