<svg width="32" height="32" viewBox="0 0 32 32" fill="none" xmlns="http://www.w3.org/2000/svg">
<g filter="url(#filter0_d_3059_2257)">
<path d="M25.75 12C25.75 9.41414 24.7228 6.93419 22.8943 5.10571C21.0658 3.27723 18.5859 2.25 16 2.25C13.4141 2.25 10.9342 3.27723 9.10571 5.10571C7.27723 6.93419 6.25 9.41414 6.25 12C6.25 14.5859 7.27723 17.0658 9.10571 18.8943C10.9342 20.7228 13.4141 21.75 16 21.75C18.5859 21.75 21.0658 20.7228 22.8943 18.8943C24.7228 17.0658 25.75 14.5859 25.75 12ZM4 12C4 8.8174 5.26428 5.76516 7.51472 3.51472C9.76516 1.26428 12.8174 0 16 0C19.1826 0 22.2348 1.26428 24.4853 3.51472C26.7357 5.76516 28 8.8174 28 12C28 15.1826 26.7357 18.2348 24.4853 20.4853C22.2348 22.7357 19.1826 24 16 24C12.8174 24 9.76516 22.7357 7.51472 20.4853C5.26428 18.2348 4 15.1826 4 12ZM10.75 9.375C10.75 8.75156 11.2516 8.25 11.875 8.25H16.375C16.9984 8.25 17.5 8.75156 17.5 9.375V14.625C17.5 15.2484 16.9984 15.75 16.375 15.75H11.875C11.2516 15.75 10.75 15.2484 10.75 14.625V9.375ZM21.1047 14.9016L19 13.5V10.5L21.1047 9.09844C21.1984 9.0375 21.3109 9 21.4234 9C21.7422 9 22 9.25781 22 9.57656V14.4234C22 14.7422 21.7422 15 21.4234 15C21.3109 15 21.1984 14.9672 21.1047 14.9016Z" fill="#F08F00"/>
</g>
<defs>
<filter id="filter0_d_3059_2257" x="0" y="0" width="32" height="32" filterUnits="userSpaceOnUse" color-interpolation-filters="sRGB">
<feFlood flood-opacity="0" result="BackgroundImageFix"/>
<feColorMatrix in="SourceAlpha" type="matrix" values="0 0 0 0 0 0 0 0 0 0 0 0 0 0 0 0 0 0 127 0" result="hardAlpha"/>
<feOffset dy="4"/>
<feGaussianBlur stdDeviation="2"/>
<feComposite in2="hardAlpha" operator="out"/>
<feColorMatrix type="matrix" values="0 0 0 0 0 0 0 0 0 0 0 0 0 0 0 0 0 0 0.25 0"/>
<feBlend mode="normal" in2="BackgroundImageFix" result="effect1_dropShadow_3059_2257"/>
<feBlend mode="normal" in="SourceGraphic" in2="effect1_dropShadow_3059_2257" result="shape"/>
</filter>
</defs>
</svg>
