<svg width="49" height="43" viewBox="0 0 49 43" fill="none" xmlns="http://www.w3.org/2000/svg">
<path d="M24.6203 0.199951C25.9517 0.199951 27.1799 0.903076 27.8549 2.0562L48.1064 36.5562C48.7908 37.7187 48.7908 39.1531 48.1251 40.3156C47.4595 41.4781 46.2125 42.2 44.8718 42.2H4.36888C3.02816 42.2 1.78119 41.4781 1.11552 40.3156C0.449848 39.1531 0.459223 37.7093 1.13427 36.5562L21.3857 2.0562C22.0608 0.903076 23.289 0.199951 24.6203 0.199951ZM24.6203 12.2C23.3734 12.2 22.3702 13.2031 22.3702 14.45V24.95C22.3702 26.1968 23.3734 27.2 24.6203 27.2C25.8673 27.2 26.8705 26.1968 26.8705 24.95V14.45C26.8705 13.2031 25.8673 12.2 24.6203 12.2ZM27.6205 33.2C27.6205 32.4043 27.3044 31.6412 26.7418 31.0786C26.1791 30.516 25.416 30.2 24.6203 30.2C23.8246 30.2 23.0615 30.516 22.4989 31.0786C21.9362 31.6412 21.6201 32.4043 21.6201 33.2C21.6201 33.9956 21.9362 34.7587 22.4989 35.3213C23.0615 35.8839 23.8246 36.2 24.6203 36.2C25.416 36.2 26.1791 35.8839 26.7418 35.3213C27.3044 34.7587 27.6205 33.9956 27.6205 33.2Z" fill="#D0301F"/>
</svg>
